<?xml version="1.0" standalone="no"?>
<!DOCTYPE svg PUBLIC "-//W3C//DTD SVG 20010904//EN"
 "http://www.w3.org/TR/2001/REC-SVG-20010904/DTD/svg10.dtd">
<svg version="1.0" xmlns="http://www.w3.org/2000/svg"
 width="2000.000000pt" height="2000.000000pt" viewBox="0 0 2000.000000 2000.000000"
 preserveAspectRatio="xMidYMid meet">
<metadata>
Created by potrace 1.14, written by Peter Selinger 2001-2017
</metadata>
<g transform="translate(0.000000,2000.000000) scale(0.100000,-0.100000)"
fill="#000000" stroke="none">
<path d="M0 10000 l0 -10000 5751 0 c5473 0 5751 1 5744 17 -4 10 -19 47 -32
83 -13 36 -29 69 -34 75 -5 5 -9 18 -9 28 0 11 -11 45 -24 76 -44 103 -84 216
-91 253 l-6 38 68 -1 c37 0 85 -5 105 -10 26 -7 43 -6 56 2 12 8 29 9 48 4 16
-5 34 -7 39 -5 58 17 186 27 222 18 36 -9 47 -8 69 7 19 12 66 19 192 27 165
10 167 10 212 -13 25 -13 56 -34 69 -46 13 -13 41 -28 61 -34 34 -10 42 -9 68
10 17 11 42 21 56 21 14 0 46 7 71 15 25 9 50 13 55 10 6 -3 10 1 10 11 0 26
47 64 80 64 17 0 49 -4 72 -10 24 -5 54 -12 68 -14 14 -3 62 -43 110 -91 47
-47 95 -88 106 -91 26 -7 120 35 158 71 15 14 30 25 34 25 4 0 27 -18 52 -40
25 -22 51 -40 58 -40 8 0 12 -9 11 -22 -3 -31 41 -117 63 -124 48 -15 57 41
17 99 -11 15 -17 32 -14 37 6 10 -13 73 -41 135 -20 45 -64 191 -64 212 0 10
6 25 13 34 19 25 196 53 224 36 7 -4 15 -2 20 5 11 18 69 37 93 31 15 -4 22 2
30 21 7 19 17 26 35 26 22 0 25 -4 20 -20 -6 -17 -2 -20 28 -20 22 0 37 -6 41
-15 13 -36 29 -272 19 -288 -10 -17 -12 -100 -2 -118 6 -11 4 -21 -6 -29 -8
-7 -15 -18 -15 -25 0 -8 -13 -19 -30 -26 -16 -8 -35 -26 -41 -41 -6 -15 -15
-25 -21 -22 -14 9 -58 -25 -58 -45 0 -10 -11 -26 -25 -35 -31 -21 -28 -38 21
-113 19 -29 34 -55 34 -59 0 -3 13 -23 30 -44 16 -20 27 -40 23 -44 -3 -3 89
-6 205 -6 135 0 212 4 212 10 0 6 -7 10 -15 10 -10 0 -15 11 -15 35 0 21 5 35
12 35 7 0 2 7 -10 16 -19 13 -22 21 -16 52 4 20 11 42 16 49 6 7 5 14 -2 18
-8 5 -8 10 0 20 6 7 8 24 5 37 -3 13 -1 37 6 53 7 17 12 42 11 58 0 15 3 25 8
22 5 -3 11 -1 15 5 3 5 -2 10 -12 10 -15 0 -15 3 6 19 18 14 21 22 14 37 -14
29 -8 85 10 99 10 7 17 21 17 31 0 11 21 36 50 59 27 22 50 44 50 50 0 5 26
37 58 71 31 33 71 77 87 98 17 21 48 57 70 81 74 79 114 132 121 161 4 16 11
32 17 35 10 7 14 27 22 109 8 85 23 141 43 163 26 29 42 61 42 84 0 26 61 83
87 83 29 0 68 -38 77 -72 5 -21 3 -28 -9 -28 -22 0 -18 -21 5 -27 18 -5 20
-14 20 -87 0 -44 -5 -99 -12 -121 -11 -41 -18 -134 -23 -288 -1 -48 -8 -93
-14 -101 -9 -10 -8 -16 4 -26 9 -7 13 -20 10 -29 -3 -8 -8 -41 -11 -72 -4 -46
-2 -59 11 -66 21 -12 11 -33 -29 -61 -26 -18 -35 -32 -39 -65 -7 -49 -3 -55
23 -39 34 21 50 15 50 -18 0 -19 -7 -33 -20 -40 -13 -7 -20 -21 -20 -38 0 -15
-7 -37 -15 -49 -12 -17 -13 -28 -5 -49 8 -19 8 -29 0 -34 -8 -5 -8 -15 0 -35
6 -15 7 -32 2 -39 -5 -6 -9 -47 -10 -90 -2 -64 -6 -84 -22 -101 -11 -12 -20
-24 -20 -28 0 -4 1145 -7 2545 -7 l2545 0 0 10000 0 10000 -10000 0 -10000 0
0 -10000z m9126 6432 c5 -5 36 -15 69 -23 36 -8 68 -22 81 -36 12 -12 24 -20
28 -16 13 13 75 13 127 0 56 -15 64 -23 50 -46 -7 -11 -13 -12 -23 -3 -8 6
-19 7 -27 3 -7 -5 -41 -7 -75 -6 -59 3 -140 -10 -161 -26 -5 -4 -28 -10 -50
-14 -22 -4 -48 -15 -58 -23 -14 -13 -22 -14 -37 -5 -15 10 -21 9 -32 -7 -7
-10 -24 -21 -38 -26 -22 -6 -23 -5 -11 10 19 23 -3 50 -29 36 -24 -13 -60 -13
-60 0 0 19 -17 10 -28 -15 -13 -27 -52 -35 -52 -10 0 8 4 15 8 15 5 0 14 11
20 25 7 15 20 25 32 25 16 0 20 7 20 30 0 17 4 30 8 30 4 0 8 10 9 21 1 12 7
27 13 33 23 23 195 45 216 28z m524 -140 c0 -13 -12 -22 -22 -16 -10 6 -1 24
13 24 5 0 9 -4 9 -8z m110 -39 c30 -8 120 -34 200 -58 80 -24 179 -51 220 -60
110 -23 164 -37 175 -46 14 -10 66 -13 88 -5 38 14 47 15 52 6 4 -6 23 -10 44
-10 21 0 44 -6 50 -14 16 -19 52 -127 45 -137 -3 -5 4 -21 15 -35 12 -15 21
-41 21 -58 0 -17 9 -64 20 -105 26 -96 25 -117 -2 -132 -18 -10 -19 -13 -7
-23 8 -6 15 -24 14 -41 0 -36 18 -46 25 -14 6 25 30 38 30 16 0 -28 -31 -76
-45 -70 -18 6 -19 -4 -4 -45 16 -45 -2 -72 -47 -72 -44 0 -90 -23 -97 -50 -7
-27 -23 -25 -43 5 -22 34 -34 31 -35 -7 -1 -18 -5 -44 -9 -58 -8 -24 -8 -24
-9 -2 -1 23 -21 32 -22 10 0 -7 -2 -30 -4 -52 -3 -24 1 -47 10 -60 23 -32 19
-75 -7 -85 -15 -5 -18 -10 -9 -15 7 -5 18 -3 24 3 15 15 27 14 27 -4 0 -8 8
-20 19 -26 14 -10 17 -21 13 -55 -2 -24 -1 -51 3 -61 5 -15 10 -11 28 22 21
39 22 39 25 13 2 -15 -2 -36 -7 -47 -6 -11 -11 -50 -11 -87 0 -58 -2 -65 -15
-54 -8 7 -15 27 -15 45 0 18 -8 43 -18 56 -35 47 -45 77 -38 113 10 51 -1 44
-18 -11 l-14 -48 -7 38 c-4 20 -11 37 -16 37 -17 0 -20 -21 -8 -61 11 -34 10
-42 -2 -50 -24 -15 -28 -11 -31 34 -2 34 -7 42 -23 42 -21 0 -23 -9 -30 -160
-1 -33 -5 -59 -9 -57 -3 1 -12 2 -20 2 -8 0 -19 14 -25 30 -5 17 -14 30 -19
30 -6 0 -14 21 -18 47 -5 25 -13 48 -19 50 -12 4 -55 -69 -55 -94 1 -16 3 -15
19 5 11 12 22 22 25 22 11 0 6 -56 -6 -68 -8 -8 -8 -15 0 -25 16 -19 24 -89
13 -107 -16 -24 -35 4 -33 46 3 33 1 36 -20 31 -28 -8 -48 9 -48 40 0 18 -5
24 -17 21 -16 -3 -18 -17 -18 -131 0 -70 -3 -127 -7 -127 -4 0 -8 11 -8 25 0
29 -8 32 -25 8 -14 -19 -35 -10 -35 16 0 28 -45 64 -69 56 -25 -7 -27 -27 -6
-45 8 -7 12 -16 9 -22 -8 -12 -46 0 -61 20 -12 14 -14 14 -31 -1 -10 -9 -24
-17 -30 -17 -7 0 -12 -4 -12 -10 0 -16 -40 -12 -57 6 -12 11 -26 14 -50 9 -34
-6 -35 -6 -28 24 5 23 2 34 -14 48 -12 9 -21 27 -21 38 0 11 -9 35 -21 54
l-20 33 20 20 c24 22 26 34 7 45 -20 12 -38 51 -26 58 19 12 10 45 -15 55 -14
5 -25 17 -25 25 0 14 -26 43 -74 83 -29 24 -117 72 -131 72 -8 0 -24 9 -35 20
-11 11 -27 20 -37 20 -9 0 -36 12 -60 26 -25 14 -47 23 -50 21 -2 -3 -21 1
-41 10 -37 15 -108 11 -145 -8 -16 -9 -15 -12 12 -34 16 -14 33 -25 39 -25 16
0 82 -79 82 -99 0 -10 -7 -24 -16 -31 -8 -8 -21 -29 -29 -47 -15 -36 -56 -60
-117 -66 -18 -2 -38 -6 -43 -8 -6 -3 -48 -5 -95 -4 -47 0 -91 -3 -98 -8 -7 -6
-13 -8 -15 -6 -1 2 -7 13 -13 24 -7 11 -20 19 -30 17 -11 -2 -33 -5 -50 -6
-40 -3 -125 -43 -145 -69 -17 -20 -17 -20 -43 6 -15 15 -37 29 -49 32 -21 6
-23 12 -24 88 -3 103 16 160 76 233 42 51 61 76 89 121 18 28 34 41 47 40 15
-2 19 3 18 21 -2 17 14 36 67 79 39 32 72 64 75 73 3 8 27 37 55 64 l50 49 38
-42 c34 -37 42 -41 85 -41 59 0 83 -12 91 -45 4 -15 13 -25 25 -25 22 0 37
-17 43 -45 10 -56 171 -88 259 -51 106 44 135 55 155 61 11 3 27 16 34 29 7
14 48 44 91 68 43 24 79 47 79 51 0 4 -10 11 -22 16 l-22 8 22 12 c52 28 4 80
-61 67 -16 -3 -40 -3 -54 0 -19 5 -23 12 -21 32 3 25 5 26 63 23 33 -1 65 -7
71 -12 10 -8 62 -2 152 17 17 3 33 13 33 20 3 35 19 64 35 64 16 0 19 16 3 25
-13 9 -33 56 -30 73 1 6 -7 12 -19 12 -11 0 -20 4 -20 9 0 18 32 33 82 40 52
6 53 6 33 24 -74 66 -175 167 -175 175 0 5 -25 26 -55 46 -54 36 -72 55 -37
41 9 -4 42 -14 72 -22z m106 -228 c20 -19 5 -19 -20 0 -11 9 -14 15 -7 15 7 0
19 -7 27 -15z m2180 -63 c53 -27 112 -79 131 -117 17 -33 38 -113 48 -190 12
-93 -31 -277 -95 -410 -21 -44 -41 -88 -44 -98 -4 -11 -11 -15 -18 -11 -8 5
-9 2 -5 -9 16 -43 -203 -337 -241 -322 -8 3 -25 -3 -36 -13 -12 -11 -43 -32
-71 -47 -27 -15 -64 -38 -82 -51 -18 -14 -69 -33 -117 -44 -81 -20 -88 -20
-135 -4 -67 22 -78 37 -83 121 -7 93 0 104 48 78 28 -15 58 -20 116 -21 43 0
78 3 78 7 0 5 18 13 39 20 44 13 73 55 46 66 -16 5 -132 -32 -149 -48 -13 -12
-32 -11 -78 1 -27 8 -39 18 -47 41 -10 30 -41 64 -64 72 -8 2 -12 36 -13 97 0
100 -10 118 -38 75 -9 -14 -23 -25 -31 -25 -8 0 -15 -7 -15 -15 0 -19 -10 -19
-40 2 -36 24 -36 23 -21 33 12 7 11 11 -3 25 -13 13 -15 26 -10 49 13 56 8
154 -10 180 -21 33 -12 116 14 116 9 0 25 9 34 19 10 11 23 18 29 15 7 -2 23
16 36 41 26 49 52 70 81 62 9 -2 25 0 34 5 10 6 27 11 39 13 12 1 34 6 48 10
16 4 30 2 33 -4 4 -6 0 -11 -8 -11 -9 0 -22 -16 -30 -35 -8 -19 -22 -35 -30
-35 -9 0 -16 -4 -16 -8 0 -9 -98 -114 -120 -128 -36 -22 -58 -69 -55 -119 3
-65 3 -65 21 -32 11 20 21 26 37 23 15 -3 31 5 47 21 19 20 31 24 58 19 56 -9
62 -19 58 -109 -2 -63 -9 -96 -30 -141 -15 -32 -29 -77 -32 -101 -6 -37 -3
-46 24 -76 41 -46 58 -30 67 61 8 75 5 73 77 74 21 1 38 -2 38 -6 0 -5 11 -8
25 -8 14 0 25 -6 26 -12 0 -7 5 -1 10 14 8 21 6 35 -11 68 -19 37 -20 45 -8
77 15 40 39 53 102 53 36 0 50 -6 85 -39 41 -38 43 -41 36 -83 -4 -24 -12 -49
-17 -55 -23 -28 4 -11 45 30 76 73 97 149 65 232 -10 28 -28 57 -38 67 -11 9
-20 23 -20 31 0 17 -24 40 -33 31 -3 -4 -22 4 -41 16 -30 18 -44 20 -89 15
-43 -6 -57 -4 -70 10 -10 9 -17 20 -17 24 0 13 33 38 70 53 19 8 61 45 93 81
70 80 95 88 167 54 l52 -25 44 30 c51 34 66 32 89 -12 16 -32 10 -56 -22 -89
-10 -10 -11 -17 -3 -25 8 -8 13 -7 19 3 7 10 12 8 24 -9 8 -12 20 -19 26 -15
14 8 12 141 -2 175 -6 14 -12 30 -12 35 -5 29 -27 65 -55 88 -44 38 -126 36
-207 -4 -32 -16 -63 -29 -69 -29 -7 0 -25 -7 -40 -15 -16 -8 -37 -15 -46 -15
-9 0 -20 -4 -23 -10 -3 -5 -15 -10 -26 -10 -10 0 -19 -4 -19 -9 0 -5 -16 -15
-35 -21 -19 -6 -47 -27 -61 -46 -15 -19 -30 -34 -34 -34 -16 0 -2 78 17 100
38 42 48 51 98 89 65 49 88 61 160 83 77 23 175 19 231 -10z m-2472 -31 c28
-9 52 -23 54 -31 3 -9 0 -11 -14 -5 -11 4 -57 18 -104 30 -85 23 -85 23 -35
23 28 0 72 -7 99 -17z m-20 -65 c21 -10 36 -19 34 -21 -2 -2 -46 7 -98 20
l-95 25 60 -4 c33 -2 77 -11 99 -20z m1176 -286 c0 -5 -2 -10 -4 -10 -3 0 -8
5 -11 10 -3 6 -1 10 4 10 6 0 11 -4 11 -10z m20 -145 c0 -8 -4 -15 -10 -15 -5
0 -10 7 -10 15 0 8 5 15 10 15 6 0 10 -7 10 -15z m-90 -120 c0 -8 -4 -15 -9
-15 -5 0 -11 7 -15 15 -3 9 0 15 9 15 8 0 15 -7 15 -15z m-103 -137 c-3 -7 -5
-2 -5 12 0 14 2 19 5 13 2 -7 2 -19 0 -25z m-52 -78 c-5 -22 -3 -30 7 -30 8 0
25 -11 38 -25 22 -24 25 -24 31 -8 4 10 8 30 8 46 1 17 6 27 16 27 12 0 13 -4
5 -19 -5 -11 -11 -41 -11 -68 -1 -26 -3 -40 -6 -30 -3 12 -11 15 -28 11 -19
-5 -29 2 -54 36 -26 36 -28 45 -19 66 15 33 21 30 13 -6z m52 8 c-3 -8 -6 -5
-6 6 -1 11 2 17 5 13 3 -3 4 -12 1 -19z m95 -135 c6 -7 7 -24 4 -38 -12 -46
-24 -26 -23 38 0 34 3 51 5 37 2 -14 8 -31 14 -37z m25 15 c-3 -8 -6 -5 -6 6
-1 11 2 17 5 13 3 -3 4 -12 1 -19z m-1507 -184 c0 -23 24 -94 32 -94 5 0 8 9
8 20 0 11 5 20 10 20 6 0 10 -9 10 -19 0 -11 5 -23 10 -26 6 -3 10 -17 10 -31
0 -13 -4 -24 -10 -24 -5 0 -10 5 -10 10 0 19 -19 10 -22 -10 -4 -28 -22 -27
-28 1 -8 33 -30 36 -30 5 0 -30 -8 -33 -26 -8 -13 16 -14 16 -20 -5 -3 -12
-13 -24 -21 -27 -11 -5 -14 1 -11 27 3 30 1 32 -31 32 -19 0 -36 5 -38 12 -4
10 93 126 121 145 14 9 46 -10 46 -28z m1211 -27 c-8 -8 -11 -3 -11 19 1 25 2
27 11 11 8 -14 8 -22 0 -30z m-231 -149 c0 -10 -5 -18 -10 -18 -15 0 -23 27
-16 47 6 15 8 15 16 3 6 -8 10 -23 10 -32z m1056 -95 c-10 -10 -19 5 -10 18 6
11 8 11 12 0 2 -7 1 -15 -2 -18z m-2120 -20 c12 -17 14 -17 29 -2 15 14 20 15
43 3 38 -20 78 -52 71 -58 -3 -3 -60 -2 -127 1 -94 5 -122 9 -122 20 0 7 13
16 30 19 16 4 35 13 41 20 15 18 19 18 35 -3z m138 -213 c14 -5 39 -28 55 -51
24 -33 32 -38 37 -25 3 9 11 16 16 16 6 0 16 7 23 17 15 21 35 9 35 -22 0 -36
-10 -55 -31 -55 -10 0 -19 -5 -19 -11 0 -8 14 -10 40 -6 22 3 40 2 40 -1 0 -4
4 -14 10 -22 7 -12 12 -11 31 5 22 20 22 20 15 -2 -5 -15 -1 -28 11 -40 19
-20 25 -45 23 -107 0 -21 2 -47 5 -57 11 -33 25 -21 25 22 0 36 2 40 20 34 16
-5 20 -2 20 19 0 18 4 24 15 20 8 -4 15 -18 15 -34 0 -20 6 -29 22 -34 13 -3
27 -1 32 4 24 24 53 8 46 -25 -1 -5 -2 -20 -2 -32 0 -13 -7 -23 -14 -23 -8 0
-14 7 -14 15 0 9 -7 18 -16 22 -21 8 -44 -21 -37 -47 3 -11 2 -27 -1 -36 -5
-14 -9 -14 -22 -3 -11 9 -15 26 -12 58 2 33 -1 46 -10 46 -16 0 -25 -92 -11
-101 5 -3 9 -14 9 -25 0 -16 -5 -19 -20 -14 -21 7 -28 -9 -10 -20 6 -4 8 -11
4 -16 -3 -5 -18 0 -34 11 -37 26 -44 25 -59 -6 -19 -42 -36 -15 -39 62 -2 38
-6 72 -8 76 -11 17 -24 7 -19 -14 2 -13 7 -49 10 -81 5 -54 4 -59 -15 -64 -20
-5 -21 -10 -14 -94 7 -89 1 -106 -26 -74 -9 11 -9 22 -1 46 11 33 2 63 -21 72
-10 3 -8 9 5 24 9 11 17 28 17 39 -1 19 -1 19 -15 0 -12 -16 -17 -17 -30 -6
-12 10 -15 10 -15 0 0 -8 -6 -21 -14 -29 -9 -12 -11 -33 -7 -79 7 -64 0 -92
-24 -92 -7 0 -21 -21 -31 -46 -16 -43 -19 -45 -32 -28 -8 12 -11 32 -8 52 6
38 -10 42 -26 7 -6 -14 -15 -25 -20 -25 -4 0 -8 -13 -8 -30 0 -16 -4 -30 -10
-30 -5 0 -10 5 -10 10 0 22 -29 20 -65 -4 -21 -14 -43 -26 -49 -25 -7 0 -6 3
2 6 6 2 12 16 12 29 0 24 -14 32 -25 14 -8 -14 -45 -13 -45 1 0 24 103 99 137
99 5 0 20 19 33 42 20 36 24 39 35 25 17 -24 25 -21 25 8 0 22 3 24 19 15 29
-15 34 -13 53 21 17 28 17 33 2 67 -9 20 -18 45 -19 55 -5 48 -45 45 -45 -4 0
-16 -3 -29 -6 -29 -3 0 -20 16 -38 35 -21 22 -48 38 -74 43 -55 13 -79 36 -60
59 10 12 10 17 1 20 -18 6 20 40 81 71 160 81 246 135 246 152 0 40 -24 32
-78 -26 l-54 -58 -34 37 c-19 20 -38 37 -42 37 -5 0 -21 -13 -36 -29 -16 -16
-50 -39 -76 -50 -29 -13 -51 -29 -55 -42 -6 -19 -54 -46 -112 -64 -17 -5 -23
-2 -23 9 0 9 -5 16 -11 16 -6 0 -8 -7 -5 -16 8 -22 -11 -54 -33 -54 -35 0 -54
94 -32 153 8 19 15 23 35 20 20 -4 26 -1 26 12 0 26 46 101 66 109 20 8 54 -2
54 -15 0 -19 19 -8 36 21 33 55 112 72 135 28 10 -19 12 -18 44 16 34 37 55
43 99 26z m-104 -230 c0 -5 -4 -10 -10 -10 -5 0 -10 5 -10 10 0 6 5 10 10 10
6 0 10 -4 10 -10z m-145 -89 c-3 -6 -11 -8 -17 -5 -6 4 -5 9 3 15 16 10 23 4
14 -10z m2450 -21 c21 17 21 -7 -1 -31 -14 -16 -13 -18 16 -24 36 -8 45 -2 45
28 0 26 23 34 31 10 3 -10 10 -26 16 -37 6 -12 6 -22 -1 -29 -6 -6 -11 -21
-11 -34 0 -13 -7 -26 -15 -29 -8 -4 -12 -10 -9 -15 9 -15 24 -10 24 7 0 13 7
15 30 11 27 -6 30 -4 30 19 0 16 7 27 23 33 26 10 35 5 19 -11 -19 -19 -14
-38 13 -50 23 -11 25 -16 25 -87 l0 -76 -45 3 c-45 4 -65 22 -24 22 15 0 19 4
15 16 -3 9 -6 22 -6 30 0 25 -18 15 -29 -16 -5 -16 -17 -30 -25 -30 -9 0 -16
-7 -16 -15 0 -8 7 -15 15 -15 8 0 15 -6 15 -14 0 -19 -23 -33 -28 -18 -5 17
-57 15 -72 -3 -7 -9 -21 -13 -31 -10 -14 5 -19 1 -19 -14 0 -34 -88 -68 -105
-41 -3 6 2 10 12 10 21 1 63 33 63 49 0 6 -13 11 -30 11 -16 0 -30 5 -30 10 0
6 4 10 10 10 5 0 19 10 30 22 18 19 19 24 6 33 -21 16 -15 91 10 110 28 21 34
19 34 -15 0 -33 27 -55 51 -39 12 8 11 11 -4 20 -12 7 -16 17 -12 30 4 12 1
21 -9 25 -8 3 -12 12 -9 20 3 8 0 14 -6 14 -6 0 -11 6 -11 13 0 8 -8 21 -18
30 -13 12 -17 27 -14 54 4 33 6 35 18 18 11 -15 16 -16 29 -5z m-1755 -137 c0
-20 -3 -24 -11 -16 -7 7 -9 19 -6 27 10 24 17 19 17 -11z m-530 -53 c0 -5 -2
-10 -4 -10 -3 0 -8 5 -11 10 -3 6 -1 10 4 10 6 0 11 -4 11 -10z m540 -12 c0
-16 -3 -19 -11 -11 -6 6 -8 16 -5 22 11 17 16 13 16 -11z m1590 -78 c0 -5 -4
-10 -10 -10 -5 0 -10 5 -10 10 0 6 5 10 10 10 6 0 10 -4 10 -10z m373 -101
c-17 -17 -37 -1 -22 17 8 10 15 12 23 4 7 -7 7 -13 -1 -21z m-161 -23 c12 -27
41 -43 46 -27 2 6 7 11 11 11 11 0 2 -104 -8 -108 -5 -2 -7 -12 -4 -22 3 -11
0 -20 -6 -20 -6 0 -16 -12 -21 -26 -12 -30 -36 -27 -33 5 2 15 -3 21 -17 21
-16 0 -19 -5 -14 -24 3 -13 1 -27 -5 -30 -24 -15 -9 -23 34 -19 51 6 51 5 32
-68 -18 -69 -56 -103 -71 -64 -3 8 -12 12 -21 9 -22 -9 -18 -24 6 -24 12 0 23
-8 26 -20 6 -24 16 -25 33 -5 7 8 23 15 36 15 16 0 22 4 18 14 -3 9 4 15 21
18 31 6 41 -5 19 -22 -10 -9 -13 -22 -9 -41 5 -22 2 -30 -15 -39 -12 -6 -25
-8 -28 -4 -4 4 -1 9 6 11 14 5 17 53 3 53 -5 0 -18 -11 -28 -24 -23 -28 -80
-59 -87 -47 -3 5 1 14 9 21 21 18 18 32 -5 25 -13 -4 -22 -1 -26 9 -3 9 -12
16 -20 16 -7 0 -18 9 -25 21 l-11 21 -16 -24 c-17 -24 -17 -35 0 -30 6 1 15
-4 22 -12 6 -8 20 -16 31 -18 36 -6 27 -32 -20 -57 -25 -13 -48 -22 -50 -19
-10 10 7 36 26 41 10 3 19 10 19 16 0 16 -16 14 -34 -4 -8 -8 -18 -15 -23 -15
-19 0 -63 26 -63 37 0 7 -9 17 -20 23 -16 9 -20 8 -20 -5 0 -28 -27 -16 -34
15 -7 36 -5 45 11 44 6 -1 9 5 6 12 -3 9 2 14 12 14 11 0 15 -5 11 -15 -3 -10
1 -18 12 -22 9 -4 21 -12 25 -20 14 -23 36 -14 67 30 16 23 46 59 67 79 21 20
34 40 31 44 -4 3 -31 -10 -61 -29 -66 -44 -105 -62 -114 -54 -9 9 65 77 84 77
12 0 14 7 10 30 -7 33 7 48 28 30 18 -15 31 -7 40 27 3 15 14 32 23 39 16 12
16 13 -1 20 -24 9 -67 -11 -67 -31 0 -20 -16 -19 -24 1 -5 13 -9 14 -21 4 -8
-7 -15 -8 -15 -3 0 5 14 17 30 26 35 21 38 37 10 44 -12 3 -19 11 -17 17 7 21
37 17 60 -8 27 -29 47 -34 47 -11 0 8 -6 15 -12 15 -7 0 -2 7 10 16 13 9 21
21 19 27 -4 13 21 36 41 37 7 0 17 -11 24 -24z m38 8 c0 -8 -4 -12 -10 -9 -5
3 -10 10 -10 16 0 5 5 9 10 9 6 0 10 -7 10 -16z m109 -126 c-1 -71 -3 -93 -9
-71 -7 30 -2 173 6 173 2 0 4 -46 3 -102z m-399 -18 c0 -5 -4 -10 -10 -10 -5
0 -10 5 -10 10 0 6 5 10 10 10 6 0 10 -4 10 -10z m360 -4 c0 -8 -4 -18 -10
-21 -5 -3 -10 3 -10 14 0 12 5 21 10 21 6 0 10 -6 10 -14z m50 -117 c0 -11 -4
-17 -10 -14 -5 3 -10 13 -10 21 0 8 5 14 10 14 6 0 10 -9 10 -21z m616 -85
c76 -36 132 -91 207 -201 37 -54 86 -118 110 -143 84 -87 169 -231 210 -356
21 -63 24 -67 67 -83 85 -31 190 -91 267 -154 112 -90 168 -127 224 -146 27
-10 59 -27 72 -39 41 -39 215 -167 274 -201 32 -19 81 -52 110 -73 29 -21 65
-44 80 -50 46 -20 310 -192 428 -278 28 -21 95 -67 150 -105 55 -37 125 -87
155 -111 80 -64 172 -135 220 -169 22 -16 68 -61 101 -100 76 -90 98 -110 313
-300 236 -209 621 -597 670 -677 12 -18 64 -73 116 -122 195 -183 226 -224
250 -340 7 -33 19 -78 27 -100 20 -54 42 -145 43 -173 0 -29 -23 -30 -57 -3
-23 18 -27 18 -64 3 -32 -13 -45 -13 -66 -4 -20 9 -29 9 -42 -2 -9 -8 -26 -18
-38 -21 -27 -9 -110 -136 -126 -193 -6 -24 -17 -43 -24 -43 -7 0 -13 -8 -13
-19 0 -10 -7 -24 -15 -31 -9 -7 -13 -15 -10 -18 10 -10 -18 -32 -41 -32 -29 0
-31 11 -3 28 l20 13 -22 18 c-24 19 -19 41 10 41 10 0 21 9 24 21 3 11 15 23
26 26 30 8 26 21 -6 25 -17 2 -28 9 -28 18 -1 39 -14 43 -119 35 -56 -5 -133
-8 -172 -6 -89 3 -304 -32 -339 -55 -22 -15 -45 -43 -45 -57 0 -3 11 -7 23
-11 19 -4 26 -16 36 -58 12 -53 17 -58 94 -111 10 -7 22 -29 26 -47 5 -28 13
-37 39 -45 20 -6 31 -14 28 -22 -6 -15 38 -60 72 -74 12 -5 22 -17 22 -28 0
-11 16 -36 35 -55 19 -20 35 -39 35 -44 0 -4 18 -18 40 -31 30 -16 40 -29 40
-47 0 -14 6 -24 14 -24 8 0 24 -13 36 -30 12 -16 36 -34 53 -38 25 -7 31 -14
30 -30 -2 -17 8 -27 52 -47 30 -13 55 -29 55 -35 0 -17 -37 -85 -53 -98 -12
-10 -25 -10 -61 0 -40 10 -48 10 -56 -2 -8 -12 -15 -12 -57 1 -34 10 -72 13
-131 9 -78 -5 -85 -7 -108 -35 -13 -16 -33 -41 -44 -54 -11 -13 -20 -28 -20
-34 0 -10 -66 -123 -88 -148 -7 -10 -13 -40 -13 -70 0 -106 1 -105 -85 -101
-72 3 -77 1 -110 -28 -19 -16 -45 -31 -57 -32 -12 0 -35 -2 -50 -2 -16 -1 -33
-9 -38 -18 -22 -40 -61 -76 -87 -81 -16 -3 -80 -28 -143 -54 -63 -27 -134 -55
-159 -62 -25 -7 -53 -17 -62 -22 -10 -5 -29 -9 -42 -9 -14 0 -36 -4 -50 -10
-14 -5 -27 -6 -30 -1 -6 9 -96 -10 -96 -20 0 -7 54 -5 190 6 44 3 95 1 125 -5
62 -15 122 -16 201 -6 61 8 61 8 67 -20 2 -15 -1 -42 -9 -60 -19 -44 -18 -113
0 -120 8 -3 25 2 39 10 28 19 216 46 243 35 11 -4 32 -8 47 -8 39 -1 33 -33
-8 -42 -17 -3 -75 -27 -129 -53 -55 -26 -121 -53 -149 -60 -56 -14 -68 -29
-69 -89 -1 -77 -2 -76 37 -70 20 3 35 1 35 -4 0 -13 -49 -35 -61 -27 -13 7
-39 -57 -39 -96 0 -28 2 -30 21 -20 11 6 52 14 92 17 40 3 79 10 88 14 27 14
187 39 284 46 50 3 97 9 105 13 25 13 144 21 159 11 12 -8 7 -18 -27 -55 -23
-25 -42 -50 -42 -55 0 -25 23 -59 37 -54 8 3 20 -3 27 -12 7 -10 20 -16 28
-12 9 3 21 0 27 -6 9 -9 14 -8 21 3 7 10 10 11 10 3 0 -7 6 -13 14 -13 16 0
31 34 21 49 -4 7 15 62 31 89 8 14 48 -17 69 -52 37 -64 34 -110 -11 -152 -20
-18 -51 -36 -68 -40 -32 -7 -55 -17 -171 -77 -38 -20 -74 -37 -78 -37 -5 0
-32 -11 -60 -24 -29 -13 -59 -26 -68 -29 -9 -3 -19 -20 -22 -39 -2 -18 -11
-48 -18 -65 -11 -28 -11 -42 2 -90 10 -40 13 -74 7 -108 -9 -62 3 -119 42
-196 38 -75 56 -96 101 -119 20 -11 39 -26 43 -35 10 -26 7 -73 -4 -80 -12 -7
-80 40 -80 55 0 5 -13 28 -29 52 -16 24 -50 87 -76 141 -26 54 -53 101 -61
104 -8 3 -14 14 -14 24 0 22 -3 22 -48 10 -23 -7 -35 -6 -45 3 -6 7 -26 15
-44 19 -37 7 -72 -16 -107 -72 -18 -29 -35 -40 -80 -53 -31 -10 -63 -18 -71
-18 -47 0 -245 -91 -245 -112 0 -15 43 -47 64 -48 11 0 28 -8 38 -17 17 -15
26 -15 77 -5 75 16 96 15 111 -3 8 -10 30 -15 61 -15 54 0 61 -7 69 -65 4 -33
10 -41 35 -50 37 -12 45 -22 45 -57 0 -22 -6 -29 -27 -33 -36 -7 -96 -39 -101
-54 -2 -6 10 -14 27 -17 40 -8 58 -29 41 -49 -7 -8 -19 -15 -27 -15 -9 0 -13
-6 -10 -14 3 -7 0 -19 -6 -26 -9 -10 -8 -12 5 -7 27 9 29 -6 7 -51 l-21 -41
23 -47 c13 -25 34 -54 47 -64 23 -18 24 -18 59 6 43 29 103 33 103 7 0 -10
-14 -36 -30 -57 -38 -50 -38 -72 0 -143 29 -54 38 -88 22 -81 -4 2 -33 31 -62
65 -30 34 -66 74 -80 90 -38 42 -278 233 -294 233 -3 0 -32 27 -64 60 -33 33
-64 60 -70 60 -5 0 -25 13 -43 30 -44 38 -66 38 -74 0 -4 -16 -4 -34 -1 -39 3
-5 -2 -23 -11 -40 -22 -38 -53 -47 -188 -55 -160 -10 -214 -17 -325 -43 -112
-26 -279 -98 -280 -122 0 -8 -7 -11 -20 -8 -13 3 -24 -1 -30 -13 -6 -10 -20
-22 -32 -26 -25 -8 -81 -45 -86 -56 -6 -14 -22 -8 -22 8 0 23 -24 11 -28 -14
-2 -15 -10 -22 -25 -22 -24 0 -77 -40 -77 -59 0 -7 19 -11 48 -11 52 0 330 58
430 90 90 28 131 26 176 -9 61 -49 248 -76 319 -47 l37 16 20 -33 20 -33 62 7
c46 5 69 4 90 -7 15 -8 35 -14 45 -14 10 0 32 -8 48 -18 81 -49 286 -83 353
-59 18 7 22 5 22 -11 0 -44 -88 -91 -178 -93 -94 -2 -212 -69 -212 -120 0 -18
11 -23 65 -31 14 -2 20 -11 20 -28 l0 -25 150 -3 c92 -2 165 1 189 8 30 9 44
9 62 -1 20 -10 27 -10 44 6 19 17 20 17 26 0 16 -40 -53 -278 -97 -337 l-17
-22 -139 24 c-76 13 -153 23 -171 23 -78 -3 -139 -43 -166 -107 -23 -55 -21
-68 9 -60 21 5 36 -5 96 -62 39 -38 109 -118 156 -179 46 -60 100 -129 119
-153 34 -43 43 -72 24 -72 -6 0 -49 37 -98 81 -48 45 -121 106 -162 137 -41
30 -100 74 -131 97 -50 38 -64 43 -130 50 -41 4 -105 16 -144 26 -38 10 -82
19 -97 19 -14 0 -61 14 -104 31 -42 17 -102 33 -133 36 -31 2 -72 11 -91 19
-44 18 -277 74 -307 74 -45 0 -21 -16 68 -44 50 -17 135 -51 188 -77 79 -39
98 -45 107 -34 9 12 22 10 80 -11 38 -14 83 -36 100 -49 17 -13 57 -31 90 -40
32 -10 79 -29 103 -43 76 -45 297 -275 306 -319 10 -54 33 -139 54 -196 l20
-58 -26 -81 -27 -81 -12 49 c-26 101 -32 121 -63 188 -31 67 -106 174 -172
246 -17 19 -50 55 -73 80 -36 40 -96 87 -96 75 0 -2 -30 18 -66 46 -37 27 -69
47 -73 44 -3 -4 3 -14 14 -23 18 -15 63 -70 120 -147 11 -15 27 -39 36 -55 8
-15 24 -40 33 -55 17 -26 72 -128 140 -260 17 -33 39 -72 49 -85 128 -176 169
-290 109 -298 -22 -3 -66 34 -126 109 -23 27 -76 129 -76 145 0 19 -25 64 -38
69 -7 2 -15 -2 -18 -10 -11 -27 -60 -18 -83 14 -12 16 -21 34 -21 40 0 6 -4
11 -10 11 -5 0 -10 -8 -10 -17 1 -22 23 -53 38 -53 7 0 9 -19 5 -55 -3 -31 -1
-60 4 -67 15 -18 26 -78 16 -78 -5 0 -20 21 -32 46 -44 87 -105 138 -126 103
-4 -5 1 -19 10 -29 18 -20 18 -99 0 -112 -18 -14 -58 -8 -71 9 -16 23 -23 16
-26 -30 -1 -20 -5 -37 -9 -37 -4 0 -26 37 -50 83 -47 90 -138 230 -194 297
-19 23 -35 45 -35 49 0 8 -127 136 -190 191 -36 32 -106 73 -82 49 6 -7 12
-21 12 -31 0 -10 5 -15 13 -12 23 8 45 -29 57 -95 6 -34 9 -65 6 -68 -9 -9
-48 35 -41 46 3 7 -2 11 -14 11 -12 0 -21 -4 -21 -10 0 -5 -7 -10 -15 -10 -11
0 -12 -5 -6 -24 14 -34 2 -106 -17 -106 -8 0 -21 8 -28 18 -12 16 -14 16 -28
-3 -8 -11 -16 -32 -16 -46 0 -44 -22 -62 -76 -64 -63 -3 -64 -3 -64 -15 0 -5
9 -10 21 -10 15 0 19 -4 15 -16 -3 -9 -6 -20 -6 -25 0 -17 -25 -9 -38 12 -23
36 -37 17 -38 -52 -1 -99 -12 -149 -34 -149 -11 0 -22 12 -29 31 -9 26 -13 29
-30 19 -11 -5 -26 -19 -34 -30 -8 -11 -28 -23 -45 -26 -26 -5 -31 -12 -34 -38
-4 -38 -33 -48 -43 -15 -7 22 -9 22 -42 -15 -29 -31 -32 -40 -22 -53 11 -13 8
-14 -24 -12 -29 3 -40 -1 -53 -19 -13 -19 -21 -22 -50 -16 -20 4 -34 2 -34 -4
0 -16 -43 -22 -59 -9 -11 9 -15 9 -19 -1 -2 -7 -16 -27 -30 -43 -24 -29 -27
-30 -38 -14 -20 28 -62 11 -80 -30 -15 -37 -38 -46 -48 -19 -6 15 -8 15 -30 0
-27 -17 -94 -28 -101 -15 -6 9 -69 -8 -73 -20 -2 -5 -15 -6 -32 -1 -24 7 -37
3 -67 -18 -31 -22 -49 -27 -100 -27 -36 0 -67 -5 -74 -13 -7 -6 -23 -12 -36
-12 -13 0 -49 -9 -80 -19 -67 -22 -120 -24 -127 -4 -4 9 -11 11 -18 6 -7 -4
-40 -8 -73 -10 -33 -1 -84 -8 -112 -16 -55 -15 -66 -8 -39 22 22 25 4 50 -24
33 -11 -6 -30 -12 -44 -12 -13 0 -30 -8 -37 -19 -13 -17 -21 -18 -99 -9 -61 7
-98 7 -132 -2 -37 -9 -55 -9 -83 1 -23 9 -39 10 -43 4 -15 -21 -78 -45 -105
-40 -29 6 -75 -13 -96 -39 -9 -10 -30 -16 -57 -16 -25 0 -59 -9 -79 -20 -20
-11 -40 -20 -46 -20 -6 0 -24 -10 -41 -21 -25 -18 -32 -19 -39 -8 -6 10 -9 11
-9 1 0 -9 -21 -12 -82 -11 -85 2 -144 -6 -165 -23 -7 -5 -17 -7 -22 -3 -6 3
-25 -1 -43 -9 -30 -13 -46 -17 -117 -31 -14 -2 -29 -9 -35 -15 -14 -14 -56
-13 -60 3 -12 51 -53 161 -75 202 -35 64 -55 137 -47 168 12 49 -10 118 -47
151 -46 41 -62 88 -38 110 10 9 28 16 40 16 37 0 329 71 393 95 41 16 122 34
266 61 62 11 96 22 101 33 13 24 23 180 21 331 -1 103 2 144 14 173 18 42 22
44 48 21 13 -12 38 -17 88 -18 63 -1 73 -4 91 -26 29 -37 22 -121 -14 -158
-27 -28 -101 -57 -118 -46 -18 11 -58 -26 -68 -63 -6 -21 -12 -86 -14 -145 -2
-84 0 -108 10 -108 7 0 18 -10 25 -21 7 -12 45 -36 83 -54 64 -30 77 -32 155
-29 46 2 97 6 113 10 31 7 86 60 87 84 0 8 14 42 30 75 16 33 30 63 30 66 0 4
-11 10 -24 13 -13 3 -47 35 -75 70 -65 83 -75 137 -40 214 13 28 28 52 32 52
5 0 20 9 33 19 27 22 30 21 239 -10 72 -10 133 -19 137 -19 11 0 48 -42 65
-73 10 -20 12 -41 8 -68 -6 -33 -13 -43 -46 -59 -21 -11 -70 -27 -109 -35 -70
-15 -129 -45 -163 -82 -16 -18 -16 -22 -2 -33 8 -7 15 -29 15 -50 0 -71 45
-140 130 -200 64 -46 97 -58 174 -69 117 -17 172 -14 226 11 51 23 70 50 95
133 26 87 18 126 -34 175 -15 14 -41 46 -59 72 -40 58 -42 105 -8 139 40 40
56 50 67 44 5 -4 49 -10 96 -15 68 -6 93 -4 122 8 59 26 149 160 136 202 -4
11 1 30 9 42 9 12 16 31 16 41 0 20 74 247 91 278 6 11 12 28 15 37 13 52 56
232 78 326 14 60 32 116 40 125 8 9 24 50 35 92 11 41 25 88 31 104 6 16 8 45
5 65 -14 88 -14 112 0 140 8 16 15 37 15 46 0 10 10 38 22 62 17 35 19 49 10
63 -12 18 0 72 19 93 5 6 9 24 9 41 0 17 5 36 12 43 7 7 15 40 18 75 5 43 16
76 34 106 26 41 28 42 46 26 38 -34 62 -144 40 -184 -11 -21 12 -147 29 -164
8 -8 11 -7 11 2 0 7 21 35 48 63 61 65 73 89 74 151 1 44 -8 69 -56 164 -31
61 -56 122 -56 135 0 13 -9 59 -20 103 -17 65 -21 113 -21 260 0 204 9 362 22
387 5 9 25 25 44 34 26 12 36 24 41 50 4 20 12 34 21 34 11 0 14 10 11 36 -2
27 2 39 15 45 9 5 25 13 35 18 9 5 16 17 14 26 -2 10 2 21 9 25 13 9 11 11
-48 74 -26 28 -33 44 -33 75 0 52 16 91 46 116 21 17 28 30 33 65 3 15 54 33
168 56 104 22 156 27 278 28 83 0 162 -3 178 -7 20 -6 29 -4 33 8 19 50 -124
110 -309 130 -72 8 -147 17 -166 21 -28 6 -47 0 -115 -36 l-82 -44 -34 25
c-19 13 -37 25 -39 26 -2 2 3 11 12 21 25 27 11 32 -41 15 -70 -23 -77 -28
-76 -54 1 -13 -5 -28 -12 -34 -11 -8 -10 -16 3 -45 10 -19 20 -37 23 -40 3 -3
5 -12 5 -20 0 -26 30 -17 33 10 4 27 19 50 33 50 24 0 3 -175 -32 -270 -11
-30 -25 -93 -30 -140 -12 -105 -34 -165 -70 -190 -26 -19 -149 -63 -149 -53 0
2 -18 -17 -40 -42 -22 -25 -40 -51 -40 -56 0 -5 -11 -14 -24 -20 l-23 -11 25
-25 c19 -19 23 -31 18 -56 -10 -49 -23 -54 -40 -13 -13 32 -19 36 -50 36 -20
0 -36 -4 -36 -10 0 -5 -4 -10 -10 -10 -18 0 -10 31 14 55 13 13 21 26 18 29
-13 14 -76 4 -103 -15 -42 -30 -107 -165 -100 -208 1 -8 -5 -33 -14 -57 -14
-36 -23 -45 -53 -54 -20 -5 -43 -10 -49 -10 -7 0 -19 -13 -28 -30 -11 -21 -27
-32 -56 -40 -41 -11 -43 -11 -81 27 -36 35 -39 41 -33 79 l6 41 -41 0 c-53 0
-73 20 -80 79 -5 43 -8 47 -45 62 -64 25 -126 18 -198 -20 -59 -32 -64 -39
-104 -119 -24 -46 -43 -91 -43 -100 0 -15 -14 -49 -43 -109 -21 -41 -49 -37
-75 12 -12 24 -22 55 -22 70 0 26 -49 93 -93 128 -61 48 -132 73 -215 78 -83
5 -83 5 -118 -29 -27 -26 -43 -33 -76 -34 l-43 -1 -9 -63 -8 -63 41 -42 c45
-45 47 -53 29 -102 -12 -33 -31 -44 -80 -44 -51 0 -58 58 -29 215 6 28 10 88
10 135 1 90 14 258 31 400 5 47 21 204 35 350 14 146 32 330 40 410 8 80 22
217 30 305 35 365 128 888 224 1255 93 354 240 794 278 830 14 14 15 12 10
-13 -3 -23 0 -31 18 -39 13 -6 25 -23 29 -39 4 -20 17 -36 41 -50 19 -12 35
-25 35 -29 0 -4 11 -18 25 -31 13 -13 25 -29 25 -35 0 -16 24 -64 33 -64 4 0
12 -11 17 -25 5 -14 20 -27 35 -31 14 -3 25 -13 25 -23 0 -10 6 -26 14 -37 26
-35 40 -3 42 95 1 49 5 98 8 108 3 10 1 34 -4 53 -6 19 -13 82 -16 140 -3 58
-13 123 -21 145 -8 22 -18 74 -23 116 -7 62 -15 87 -45 135 -21 32 -48 70 -60
84 -13 14 -29 43 -36 65 -17 48 -81 116 -137 144 -27 14 -70 57 -124 122 -123
150 -129 160 -135 227 -11 119 28 168 169 217 51 18 107 37 123 43 79 27 132
42 150 42 32 0 94 48 101 78 4 15 20 68 36 117 40 118 59 198 49 208 -5 4 -23
2 -42 -6 -56 -24 -169 -55 -254 -71 -44 -8 -91 -18 -105 -22 -16 -4 -21 -3
-15 3 6 5 29 15 53 22 23 6 42 16 42 21 0 6 5 10 12 10 16 0 87 34 88 42 0 4
-10 8 -22 10 -15 2 -23 10 -23 22 0 10 -9 22 -20 26 -17 6 -12 14 42 68 47 46
66 59 82 55 29 -7 26 -16 -9 -31 -17 -8 -37 -27 -45 -42 -19 -37 -19 -44 3
-34 9 4 51 10 92 13 l75 6 3 33 c2 18 -1 32 -7 32 -6 0 -11 -9 -11 -20 0 -11
-2 -20 -3 -20 -14 0 -67 34 -67 42 0 7 5 7 14 -1 11 -9 17 -6 31 16 16 24 19
25 30 10 7 -9 17 -17 24 -17 6 0 11 -11 11 -25 0 -14 5 -25 10 -25 6 0 10 9
10 20 0 13 12 26 34 36 39 19 85 104 56 104 -5 0 -10 -8 -10 -19 0 -32 -25
-44 -76 -36 -57 8 -57 34 0 50 21 6 44 19 51 28 13 19 35 23 35 7 0 -24 19 -6
46 45 16 30 39 72 50 94 12 22 32 57 44 78 13 21 66 124 117 228 52 105 98
198 104 208 5 9 16 39 25 65 9 26 24 65 34 87 36 79 90 227 90 245 0 10 7 35
16 56 40 95 35 242 -9 292 -14 15 -43 48 -66 74 -38 41 -46 46 -75 41 -27 -4
-35 -1 -49 20 -9 14 -13 28 -9 32 12 12 95 -5 148 -31z m-1014 -151 c41 -18
48 -31 21 -39 -10 -3 -39 -16 -65 -29 -25 -13 -49 -21 -52 -17 -14 13 -4 32
19 38 13 3 30 12 36 20 10 12 8 16 -10 21 -17 4 -19 8 -9 14 17 11 15 12 60
-8z m-92 -23 c-20 -13 -40 -13 -40 0 0 6 12 10 28 10 21 0 24 -2 12 -10z m283
-12 c-13 -6 -23 -15 -23 -20 0 -4 -4 -8 -9 -8 -14 0 -80 -44 -81 -53 0 -11 73
-5 81 7 4 5 15 5 25 1 17 -7 16 -8 -6 -15 -32 -9 -70 -32 -70 -42 0 -5 11 -8
24 -8 61 0 25 -35 -57 -55 -26 -7 -27 -5 -27 30 l0 38 -67 -7 c-38 -4 -82 -12
-100 -18 -26 -9 -34 -9 -48 5 -15 16 -15 17 10 17 25 0 69 22 90 46 6 6 31 25
57 41 33 23 49 28 57 20 8 -8 14 -8 23 1 7 7 29 12 49 12 21 0 41 5 44 10 3 6
16 10 28 9 l22 0 -22 -11z m224 -20 c-3 -8 -6 -5 -6 6 -1 11 2 17 5 13 3 -3 4
-12 1 -19z m568 -132 c6 -7 18 -15 28 -19 9 -3 17 -13 17 -21 0 -7 7 -16 15
-20 8 -3 15 -12 15 -20 0 -19 -23 -33 -28 -18 -2 7 -9 12 -16 12 -29 0 -96 76
-96 108 0 9 55 -9 65 -22z m-968 -18 c-3 -10 -1 -20 3 -23 4 -3 6 -14 3 -25
-4 -13 1 -26 13 -35 25 -19 34 -19 34 0 0 8 -4 15 -10 15 -5 0 -10 4 -10 9 0
5 21 12 48 15 65 8 81 11 88 19 13 12 44 7 44 -7 0 -14 -85 -76 -104 -76 -6 0
-16 -10 -21 -22 -6 -13 -20 -27 -32 -33 -23 -10 -29 -25 -16 -38 3 -4 11 -3
17 2 10 8 106 22 106 15 0 -1 3 -9 6 -17 4 -12 -2 -14 -33 -10 -24 3 -45 -1
-57 -10 -30 -22 -11 -40 36 -34 38 5 39 5 25 -16 -11 -17 -23 -21 -49 -19 -24
2 -40 -4 -53 -18 -10 -11 -28 -20 -40 -20 -23 0 -40 -24 -30 -41 3 -4 -7 -11
-22 -15 -44 -11 -54 -22 -40 -45 15 -25 -6 -41 -43 -34 -36 8 -173 -23 -183
-40 -4 -8 -16 -15 -27 -15 -10 0 -26 -7 -35 -16 -9 -9 -25 -14 -35 -11 -11 3
-23 -1 -28 -8 -10 -18 -76 -31 -70 -14 3 8 13 16 24 17 29 6 104 55 104 70 0
15 -6 15 -31 2 -10 -6 -37 -13 -59 -16 -51 -7 -62 13 -28 55 24 32 40 39 37
19 -3 -27 1 -38 15 -38 22 0 28 17 14 39 -15 25 -3 39 22 24 14 -10 21 -9 30
2 7 8 23 15 36 15 13 0 24 5 24 10 0 6 7 10 15 10 8 0 15 5 15 10 0 6 -7 13
-15 16 -29 12 -17 34 18 32 28 -3 32 0 32 22 0 20 6 26 28 28 19 2 27 9 27 23
0 23 -24 25 -64 4 -16 -9 -37 -14 -47 -13 -17 3 -62 -37 -72 -64 -8 -22 -36
23 -37 60 0 37 2 38 25 16 21 -22 46 -1 43 35 -2 19 1 26 14 25 10 -1 35 13
55 32 20 19 45 34 54 34 10 0 23 15 33 40 9 22 18 40 20 40 18 0 36 -15 36
-31 0 -23 25 -26 34 -4 3 8 3 22 0 30 -4 9 0 15 9 15 8 0 17 -9 20 -21 3 -12
10 -18 16 -14 14 8 14 35 1 35 -5 0 -10 7 -10 15 0 11 11 14 41 13 34 -1 40
-4 36 -20z m-200 -24 c-9 -9 -28 6 -21 18 4 6 10 6 17 -1 6 -6 8 -13 4 -17z
m-263 -278 c-10 -8 -21 -12 -23 -10 -3 2 4 11 15 18 10 8 21 12 23 10 3 -2 -4
-11 -15 -18z m516 -86 c0 -5 -4 -10 -10 -10 -5 0 -10 5 -10 10 0 6 5 10 10 10
6 0 10 -4 10 -10z m675 -100 c-3 -5 -10 -10 -16 -10 -5 0 -9 5 -9 10 0 6 7 10
16 10 8 0 12 -4 9 -10z m-940 -10 c-4 -6 -2 -17 5 -25 9 -11 7 -12 -11 -8 -24
7 -51 -20 -43 -41 3 -9 -6 -12 -28 -12 -45 2 -62 13 -46 30 7 7 18 14 23 15 6
1 19 10 30 21 17 16 38 25 68 29 5 0 5 -4 2 -9z m123 -37 c2 -9 -9 -13 -37
-13 -39 0 -57 10 -44 24 12 11 76 2 81 -11z m56 -31 c-1 -7 -2 -21 -2 -32 -2
-26 -28 -26 -42 -1 -14 28 -13 39 8 44 24 6 37 2 36 -11z m-114 -33 c0 -5 -16
-9 -35 -9 -36 0 -48 16 -17 22 23 5 52 -2 52 -13z m-11 -50 c-24 -15 -45 -11
-24 5 11 8 24 12 28 9 5 -3 3 -9 -4 -14z m857 -27 c-15 -15 -16 -15 -16 5 0
12 6 23 13 26 19 6 21 -13 3 -31z m86 -14 c-7 -7 -12 -8 -12 -2 0 14 12 26 19
19 2 -3 -1 -11 -7 -17z m-59 -48 c-10 -22 -22 -40 -27 -40 -9 0 2 52 13 60 4
3 11 14 15 25 5 13 10 15 13 8 3 -7 -4 -31 -14 -53z m-173 -50 c0 -5 -4 -10
-10 -10 -5 0 -10 5 -10 10 0 6 5 10 10 10 6 0 10 -4 10 -10z m-46 -85 c3 -8 1
-15 -4 -15 -6 0 -10 7 -10 15 0 8 2 15 4 15 2 0 6 -7 10 -15z m36 -25 c0 -5
-4 -10 -10 -10 -5 0 -10 5 -10 10 0 6 5 10 10 10 6 0 10 -4 10 -10z m84 -102
c-10 -18 -19 -27 -22 -20 -4 14 26 67 35 59 2 -3 -3 -20 -13 -39z m-161 15
c-7 -2 -19 -2 -25 0 -7 3 -2 5 12 5 14 0 19 -2 13 -5z m-53 -43 c0 -5 -4 -10
-10 -10 -5 0 -10 5 -10 10 0 6 5 10 10 10 6 0 10 -4 10 -10z m160 -54 c0 -7
-7 -19 -15 -26 -8 -7 -15 -22 -15 -33 0 -20 0 -20 -14 -2 -12 17 -11 23 8 47
23 30 36 35 36 14z m-70 -57 c0 -24 -68 -36 -88 -16 -22 23 -6 36 43 34 34 -2
45 -6 45 -18z m-228 -11 c-7 -7 -12 -8 -12 -2 0 14 12 26 19 19 2 -3 -1 -11
-7 -17z m-3048 -143 c-4 -8 -11 -15 -16 -15 -6 0 -5 6 2 15 7 8 14 15 16 15 2
0 1 -7 -2 -15z m846 -61 c5 -21 7 -40 5 -42 -2 -2 -15 8 -29 23 -22 24 -24 34
-17 85 3 16 34 -34 41 -66z m-890 15 c-7 -11 -14 -18 -17 -15 -3 3 0 12 7 21
18 21 23 19 10 -6z m-25 -39 c-3 -5 -10 -10 -16 -10 -5 0 -9 5 -9 10 0 6 7 10
16 10 8 0 12 -4 9 -10z m222 -32 c-3 -8 -6 -5 -6 6 -1 11 2 17 5 13 3 -3 4
-12 1 -19z m-247 -8 c0 -6 -7 -13 -15 -16 -8 -4 -15 -12 -15 -19 0 -16 -41
-88 -52 -93 -4 -2 -8 -12 -8 -22 0 -10 -6 -31 -14 -47 -8 -15 -27 -55 -41 -88
-15 -33 -40 -87 -56 -120 -16 -33 -32 -73 -36 -90 -3 -16 -16 -52 -28 -80 -23
-52 -39 -145 -24 -145 4 0 15 21 23 48 15 47 15 46 11 -73 l-4 -120 20 85 c11
47 25 93 30 102 5 10 9 24 9 33 0 18 40 97 54 107 6 4 11 24 11 45 1 21 15 67
32 103 17 36 44 92 59 125 27 58 71 127 87 133 4 2 7 13 7 25 1 12 7 36 15 52
15 30 15 29 12 -26 -3 -41 -9 -61 -25 -77 -12 -12 -22 -30 -22 -39 0 -28 -25
-90 -43 -111 -22 -24 -21 -39 2 -47 24 -7 56 12 70 42 10 21 22 28 44 24 13
-2 20 29 8 42 -7 10 -4 26 14 62 14 27 25 56 25 66 0 35 17 28 31 -13 12 -38
12 -42 -9 -58 -12 -10 -22 -28 -22 -39 0 -12 -4 -21 -9 -21 -5 0 -7 -8 -4 -19
3 -10 -3 -34 -14 -52 -10 -19 -18 -38 -19 -44 0 -5 -7 -23 -14 -40 -7 -16 -25
-66 -41 -110 -16 -44 -45 -125 -65 -180 -20 -55 -41 -121 -47 -147 -7 -25 -15
-50 -20 -54 -4 -4 -7 -18 -7 -30 0 -13 -4 -26 -10 -29 -5 -3 -10 -14 -10 -23
0 -9 -7 -30 -15 -45 -8 -15 -17 -45 -21 -65 -4 -20 -17 -58 -30 -84 -13 -26
-23 -57 -21 -70 2 -20 -2 -23 -27 -21 -41 3 -46 11 -54 84 l-8 64 -22 -40
c-31 -57 -63 -90 -100 -103 -47 -16 -72 11 -72 76 0 68 56 399 80 478 6 17 10
52 10 77 0 41 -3 49 -25 59 -22 10 -29 8 -50 -12 -14 -13 -25 -29 -25 -36 0
-6 -13 -17 -29 -24 -30 -12 -46 -35 -35 -51 3 -5 -1 -9 -9 -9 -10 0 -14 -7
-10 -22 13 -65 27 -114 35 -125 6 -7 4 -14 -6 -20 -12 -6 -13 -16 -6 -47 5
-21 13 -42 18 -45 14 -8 22 -111 27 -321 5 -217 10 -283 25 -340 7 -25 20 -83
30 -129 13 -60 24 -89 39 -100 25 -19 41 -68 45 -134 l3 -48 -34 33 c-52 50
-213 281 -213 306 0 4 -15 16 -32 26 -72 42 -105 75 -111 111 -3 19 -17 50
-31 68 -51 66 -75 328 -59 635 5 100 5 151 -2 149 -5 -2 -13 -21 -17 -43 -13
-78 -28 -211 -28 -254 0 -32 -3 -41 -11 -33 -18 18 -7 269 13 313 9 19 22 62
29 95 13 68 67 195 82 195 6 0 7 -16 4 -40 -3 -22 -3 -40 -1 -40 12 0 45 86
41 107 -3 16 2 27 15 34 11 6 50 33 87 59 83 61 300 190 318 190 8 0 29 11 47
25 45 34 50 31 23 -12 -62 -99 -88 -146 -85 -155 2 -6 35 25 73 68 79 90 109
116 113 104 2 -5 -4 -20 -14 -34 -16 -25 -16 -26 5 -26 11 0 21 6 21 13 0 7
14 26 30 42 17 16 30 33 30 39 0 12 50 66 62 66 4 0 8 -5 8 -10z m211 -47 c1
-17 2 -17 6 0 5 19 23 23 23 5 0 -7 -7 -22 -15 -32 -12 -16 -17 -17 -30 -6 -8
7 -15 21 -15 31 0 24 30 25 31 2z m778 -38 c44 6 49 4 83 -29 20 -20 46 -36
58 -36 24 0 24 4 5 -92 -8 -43 -14 -100 -14 -127 1 -27 -1 -53 -5 -59 -3 -6
-2 -13 3 -17 6 -3 19 11 30 32 10 21 28 46 39 57 21 18 21 18 28 -8 3 -15 3
-39 0 -54 -4 -15 -11 -52 -15 -82 -5 -30 -22 -89 -38 -130 -38 -94 -48 -160
-28 -186 8 -10 15 -29 15 -41 0 -12 5 -25 10 -28 12 -7 14 -85 3 -85 -5 0 -9
-19 -11 -42 -3 -42 -22 -81 -22 -45 0 39 -17 12 -28 -45 -7 -35 -21 -90 -32
-123 -21 -67 -33 -135 -50 -275 -17 -138 -67 -340 -112 -455 -22 -55 -90 -197
-151 -315 -62 -118 -127 -249 -145 -290 -18 -41 -37 -84 -42 -95 -48 -103
-156 -428 -175 -525 -7 -36 -21 -139 -30 -230 -9 -91 -23 -206 -31 -256 -16
-106 -18 -341 -3 -433 11 -73 24 -104 75 -181 l37 -55 -32 30 c-34 31 -91 136
-91 166 0 10 -7 44 -15 76 -8 31 -15 72 -15 89 0 19 -6 34 -15 38 -8 3 -15 12
-15 20 0 9 -9 20 -20 26 -12 6 -20 21 -20 35 0 14 -4 24 -8 22 -5 -1 -21 13
-36 31 -15 17 -35 32 -44 32 -10 0 -29 12 -44 25 -23 19 -28 32 -28 69 0 25
-4 48 -10 51 -5 3 -10 17 -10 31 0 14 -7 32 -15 40 -8 9 -15 29 -15 45 0 22
-5 29 -19 29 -10 0 -22 7 -25 16 -4 9 -13 14 -21 10 -8 -3 -15 -1 -15 5 0 6
-9 8 -20 4 -17 -6 -20 -2 -20 29 0 20 -5 36 -11 36 -7 0 -9 -9 -6 -21 3 -11
-1 -45 -9 -76 -8 -30 -12 -58 -9 -63 3 -4 1 -19 -4 -32 -8 -21 -13 -14 -49 64
-52 110 -67 145 -102 240 -49 134 -92 171 -125 108 -9 -17 -20 -28 -25 -25
-11 7 -23 -31 -22 -70 1 -37 -28 -104 -45 -105 -7 0 -13 8 -13 18 -1 9 -7 28
-15 42 -29 53 -27 -40 5 -185 6 -27 11 -84 13 -125 l2 -75 -30 3 c-16 1 -37
12 -47 22 -19 24 -28 25 -28 6 0 -8 -4 -17 -8 -20 -21 -13 5 227 36 344 11 41
27 111 37 155 9 44 30 132 45 195 16 63 32 138 36 165 3 28 12 57 19 65 7 8
25 62 40 120 15 58 41 152 57 210 17 58 43 152 58 210 16 58 47 157 69 220 22
63 41 125 41 137 0 12 4 23 8 25 10 4 62 167 62 194 0 11 5 25 11 31 6 6 12
66 14 139 2 71 9 152 15 179 6 28 12 66 13 86 2 20 10 47 20 62 9 14 13 28 8
31 -5 4 -7 23 -4 44 4 27 0 43 -11 54 -19 20 -20 28 -3 28 17 0 36 68 30 107
-3 19 2 45 11 64 9 18 16 39 16 48 0 9 5 23 11 31 8 12 9 8 6 -15 -2 -16 -7
-39 -11 -50 -8 -20 -7 -20 8 -1 9 11 16 25 16 32 0 7 5 25 11 41 11 29 10 40
-3 36 -10 -4 -9 5 7 47 7 19 14 31 15 25 1 -5 7 8 14 30 12 43 29 49 34 14 2
-12 12 -24 23 -26 19 -5 27 -33 9 -33 -5 0 -10 -7 -10 -16 0 -8 -4 -12 -10 -9
-6 4 -10 -8 -10 -29 0 -19 5 -38 10 -41 7 -4 7 -12 0 -25 -16 -29 -12 -52 12
-78 13 -13 23 -31 23 -40 0 -11 7 -16 18 -14 26 4 23 -19 -17 -108 -6 -14 -21
-42 -33 -62 -23 -37 -30 -78 -15 -78 5 0 21 30 37 66 30 70 83 130 99 114 8
-8 -9 -66 -44 -155 -4 -11 -13 -40 -20 -65 -7 -25 -21 -71 -32 -103 -22 -63
-19 -80 11 -53 15 14 20 15 24 4 2 -7 2 -1 0 13 -2 15 2 31 12 39 8 7 15 18
15 25 0 7 7 19 17 26 15 13 16 7 10 -83 -5 -72 -3 -98 6 -101 18 -6 11 -93
-17 -210 -13 -56 -28 -122 -31 -147 -4 -24 -11 -51 -15 -60 -10 -20 -41 -255
-40 -300 2 -48 -18 -207 -28 -228 -11 -22 -14 -112 -4 -112 5 0 13 30 20 68
25 151 37 211 44 218 4 4 11 29 14 55 7 53 24 57 24 7 0 -17 3 -28 7 -25 7 8
25 231 23 297 -1 46 15 162 30 215 5 17 16 73 26 125 10 52 28 125 41 162 13
37 23 74 23 82 0 8 11 36 24 63 13 26 38 78 55 115 18 37 36 70 42 73 5 4 7
11 3 16 -10 16 26 60 61 75 19 7 40 23 47 33 10 14 21 18 36 14 12 -3 22 -9
22 -14 0 -4 11 -20 24 -34 14 -15 28 -40 31 -56 4 -16 11 -29 16 -29 5 0 9 -4
9 -10 0 -11 48 -82 61 -91 5 -3 18 -21 28 -39 10 -19 26 -39 37 -44 10 -6 23
-17 27 -24 7 -11 12 -10 23 5 13 17 15 17 28 1 16 -22 26 -23 26 -3 0 8 4 15
10 15 5 0 12 -23 16 -51 4 -27 10 -47 14 -42 4 4 15 73 25 153 14 115 16 181
10 320 -4 96 -11 182 -16 192 -5 9 -14 60 -19 115 -13 118 -63 339 -90 401
-27 61 -25 68 12 37 27 -23 37 -26 77 -20z m1764 -96 c7 0 3 -4 -8 -9 -27 -12
-85 -12 -85 -1 0 10 47 20 68 14 8 -1 19 -3 25 -4z m62 1 c-3 -5 -15 -10 -26
-10 -11 0 -17 5 -14 10 3 6 15 10 26 10 11 0 17 -4 14 -10z m-270 -20 c-3 -5
-18 -10 -33 -9 -24 0 -25 1 -7 9 28 12 47 12 40 0z m68 3 c-7 -2 -21 -2 -30 0
-10 3 -4 5 12 5 17 0 24 -2 18 -5z m-3533 -546 c-46 -104 -57 -129 -64 -154
-4 -11 -13 -27 -21 -33 -12 -10 -13 -43 -8 -191 4 -129 3 -179 -5 -179 -13 0
-26 47 -41 147 -17 110 3 230 55 334 13 26 24 53 24 62 0 20 83 113 88 98 2
-7 -10 -45 -28 -84z m-90 -16 c0 -4 -13 -22 -30 -39 -28 -30 -35 -44 -31 -65
1 -5 -7 -34 -18 -65 -11 -32 -23 -77 -26 -101 -10 -60 -8 -228 2 -243 9 -14
11 -148 3 -148 -29 1 -50 16 -55 41 -8 36 -25 38 -25 4 0 -14 -4 -25 -10 -25
-10 0 -17 22 -22 69 -2 14 -9 26 -15 29 -9 3 -13 -12 -13 -51 0 -62 -5 -70
-31 -54 -13 8 -22 8 -29 1 -7 -7 11 -53 60 -148 80 -160 118 -249 136 -326 7
-30 17 -72 22 -92 10 -39 9 -214 -2 -225 -3 -4 -13 2 -22 13 -15 18 -15 18 -9
-10 9 -41 46 -116 57 -116 6 0 3 11 -6 25 -18 27 -21 61 -7 70 5 3 12 -4 16
-15 3 -11 12 -21 18 -22 7 0 17 -2 23 -2 6 -1 18 -7 26 -14 9 -7 24 -11 34
-11 11 1 28 1 38 1 20 -2 20 -2 0 -17 -11 -8 -14 -15 -6 -15 6 0 12 -5 12 -11
0 -11 26 -34 105 -94 78 -59 84 -79 15 -51 -38 15 -39 15 -29 -2 6 -9 34 -33
62 -52 29 -19 75 -57 102 -85 28 -27 74 -70 102 -94 51 -44 77 -101 55 -123
-13 -13 -176 37 -267 83 -127 64 -236 154 -296 245 -92 140 -122 189 -163 272
-49 98 -53 107 -112 302 -41 138 -57 170 -85 170 -25 0 -34 -18 -17 -38 19
-23 45 -114 53 -187 3 -33 10 -76 15 -95 5 -19 19 -78 31 -130 11 -52 30 -124
40 -159 24 -78 25 -131 4 -131 -19 0 -87 104 -111 168 -10 26 -20 52 -24 57
-23 35 -57 216 -66 348 -7 109 15 279 52 395 18 56 24 98 23 157 l0 80 -18
-40 c-18 -40 -33 -112 -50 -240 -5 -38 -17 -122 -26 -185 -16 -105 -16 -249
-2 -430 4 -51 -19 -30 -48 43 -21 53 -37 79 -54 87 -42 19 -52 -17 -26 -90 8
-23 13 -45 10 -50 -2 -4 3 -34 11 -68 14 -55 14 -63 -1 -93 -21 -39 -13 -128
15 -174 10 -16 23 -48 30 -70 7 -22 30 -67 50 -100 56 -89 64 -173 13 -131
-31 26 -86 81 -126 125 -22 24 -54 49 -72 57 -40 17 -50 30 -36 48 8 10 8 22
1 40 -16 43 -17 290 -1 300 4 3 8 28 9 56 3 67 -20 64 -30 -4 -4 -27 -10 -55
-14 -65 -10 -25 -17 -62 -18 -102 0 -37 -28 -70 -41 -49 -7 12 -45 13 -45 2 0
-4 5 -13 11 -19 6 -6 9 -23 7 -39 l-3 -29 -22 25 c-13 13 -23 35 -23 48 0 30
-47 95 -61 86 -14 -8 -3 -51 23 -86 22 -31 17 -64 -7 -54 -55 22 -52 30 -24
-78 6 -22 29 -58 54 -85 24 -26 48 -58 53 -71 10 -30 9 -197 -2 -207 -4 -5
-23 10 -42 31 -35 41 -39 62 -5 32 10 -10 21 -13 24 -9 3 5 -24 38 -60 73 -97
95 -147 168 -189 276 -38 98 -73 144 -109 144 -70 0 -81 57 -64 340 13 230 13
261 -4 272 -9 5 -4 15 17 33 16 14 33 25 38 25 5 0 6 5 3 10 -3 6 3 10 14 10
12 0 21 5 21 10 0 6 -12 10 -27 10 -20 0 -41 -15 -80 -56 -56 -59 -64 -75 -35
-67 13 3 19 -1 20 -14 5 -46 2 -250 -3 -368 -8 -148 8 -403 31 -515 18 -84 55
-201 79 -246 19 -37 20 -104 2 -104 -21 0 -39 25 -97 130 -63 113 -143 235
-233 352 -36 47 -67 94 -70 104 -21 72 -42 173 -52 254 l-12 95 -2 -68 c-1
-81 -16 -85 -42 -11 -9 27 -24 69 -33 93 -16 42 -16 44 4 58 11 8 20 20 20 28
0 15 88 105 104 105 6 0 41 36 78 80 77 90 137 130 243 160 39 12 96 34 127
50 31 17 63 30 72 30 8 0 30 13 48 29 18 15 48 36 67 46 19 9 62 37 95 62 34
24 107 67 164 95 101 51 103 53 191 162 138 173 226 251 352 313 58 29 129 68
158 88 54 35 71 42 71 26z m60 -253 c7 -40 18 -98 26 -128 20 -78 19 -103 -5
-95 -16 5 -20 -1 -26 -34 -5 -33 -1 -52 24 -103 22 -46 32 -84 37 -142 7 -73
6 -78 -12 -75 -23 5 -69 95 -90 176 -13 51 -13 61 3 112 13 44 17 90 16 209 0
83 3 152 7 152 5 0 14 -33 20 -72z m875 -17 c3 -5 1 -12 -5 -16 -5 -3 -10 1
-10 9 0 18 6 21 15 7z m-15 -66 c0 -8 -4 -17 -10 -20 -6 -4 -10 5 -10 20 0 15
4 24 10 20 6 -3 10 -12 10 -20z m-24 -91 c-3 -8 -10 -14 -16 -14 -11 0 -14 43
-3 54 10 10 26 -23 19 -40z m-26 -64 c0 -5 -4 -10 -10 -10 -5 0 -10 5 -10 10
0 6 5 10 10 10 6 0 10 -4 10 -10z m-27 -57 c3 -16 2 -32 -3 -38 -11 -15 -34
-87 -35 -115 -1 -14 -3 -38 -3 -54 -2 -20 -6 -27 -16 -23 -8 3 -16 -2 -19 -14
-3 -10 -1 -19 4 -19 5 0 14 -12 19 -26 9 -21 7 -29 -7 -40 -16 -11 -19 -10
-30 14 -17 38 -15 61 7 107 11 22 19 52 20 67 0 15 4 37 9 50 5 13 15 44 21
71 14 53 25 60 33 20z m-160 -176 c3 -53 2 -99 -3 -102 -18 -11 -32 27 -28 74
3 31 0 55 -9 67 -18 24 -16 54 4 76 17 19 17 19 24 0 4 -10 9 -62 12 -115z
m-801 1 c-8 -8 -12 -9 -12 -1 0 6 -3 20 -6 30 -7 17 -6 17 12 1 14 -14 16 -20
6 -30z m118 -80 c0 -16 -3 -19 -11 -11 -6 6 -8 16 -5 22 11 17 16 13 16 -11z
m100 -128 c0 -11 5 -22 10 -25 6 -3 10 -20 10 -36 l0 -31 -30 30 c-16 17 -30
37 -30 46 0 18 -43 66 -59 66 -14 0 -14 15 2 41 12 20 14 19 55 -26 23 -26 42
-55 42 -65z m1101 -347 c-9 -15 -10 -13 -11 13 0 17 3 34 8 38 11 12 14 -32 3
-51z m-494 -55 c-3 -7 -5 -2 -5 12 0 14 2 19 5 13 2 -7 2 -19 0 -25z m-2447
-206 c11 -29 20 -61 20 -72 0 -20 34 -198 46 -239 10 -33 -14 -18 -27 17 -18
48 -150 251 -176 271 -14 12 -31 38 -39 58 -12 36 -13 36 -14 10 0 -35 12 -59
60 -117 20 -25 50 -67 66 -93 16 -26 44 -69 62 -95 17 -26 36 -57 42 -69 5
-13 13 -23 18 -23 10 0 112 -146 112 -160 0 -6 12 -29 26 -51 14 -23 23 -43
21 -45 -6 -6 -155 90 -255 163 -79 58 -231 210 -232 231 0 6 -4 12 -9 12 -17
0 -61 49 -55 63 3 8 -3 17 -13 21 -16 7 -16 9 7 26 34 27 47 25 65 -10 18 -36
75 -82 105 -87 20 -3 21 -1 9 14 -8 9 -33 36 -56 60 -51 50 -55 68 -13 60 35
-7 38 5 15 49 -26 50 -20 90 18 118 45 34 54 33 49 -8 -4 -36 21 -86 43 -86
15 0 5 50 -22 108 -12 26 -13 35 -3 47 11 13 20 6 62 -52 26 -38 57 -92 68
-121z m10740 -134 c0 -16 -3 -19 -11 -11 -6 6 -8 16 -5 22 11 17 16 13 16 -11z
m-693 -64 c-3 -3 -12 -4 -19 -1 -8 3 -5 6 6 6 11 1 17 -2 13 -5z m-9542 -84
c12 -25 37 -90 54 -145 18 -55 57 -150 87 -212 43 -87 53 -117 48 -139 -5 -20
-2 -30 11 -40 18 -13 13 -34 -9 -34 -7 0 -45 33 -84 74 -63 64 -73 80 -82 125
-5 28 -20 84 -34 124 -36 108 -72 298 -60 318 9 15 43 -19 69 -71z m385 -5 c0
-8 -4 -15 -10 -15 -5 0 -10 7 -10 15 0 8 5 15 10 15 6 0 10 -7 10 -15z m9320
-15 c0 -14 -40 -32 -57 -25 -14 5 -14 7 3 20 22 16 54 20 54 5z m-10289 -563
c-13 -13 -26 -3 -16 12 3 6 11 8 17 5 6 -4 6 -10 -1 -17z m59 -43 c0 -3 -12
-27 -26 -54 -20 -39 -29 -48 -39 -40 -7 6 -25 8 -40 4 -21 -5 -27 -4 -23 7 3
8 13 14 24 14 21 0 54 35 54 58 0 9 6 17 13 20 12 4 37 -2 37 -9z m757 -1 c3
-7 -3 -9 -17 -6 -29 8 -37 25 -9 21 12 -1 24 -8 26 -15z m-957 -33 c0 -5 -2
-10 -4 -10 -3 0 -8 5 -11 10 -3 6 -1 10 4 10 6 0 11 -4 11 -10z m250 -31 c0
-24 -23 -21 -28 4 -2 10 3 17 12 17 10 0 16 -9 16 -21z m2330 -40 c7 -16 13
-51 14 -77 1 -44 -1 -47 -26 -50 -33 -4 -38 -29 -6 -28 13 1 23 -3 23 -9 1
-19 38 -120 58 -158 15 -29 18 -48 12 -82 -6 -41 -9 -45 -34 -45 -16 0 -40 9
-54 20 -14 11 -30 20 -35 20 -6 0 -14 5 -18 11 -11 18 -14 163 -4 169 5 3 11
28 14 55 2 28 8 60 11 72 4 13 4 31 0 40 -8 18 -7 82 1 95 9 14 32 -4 44 -33z
m-2582 3 c-2 -10 -11 -16 -22 -14 -11 2 -20 -4 -23 -17 -6 -25 -23 -28 -23 -5
0 29 18 49 45 52 20 1 26 -2 23 -16z m208 -37 c8 -30 -1 -56 -18 -53 -22 5
-21 -33 1 -39 31 -8 26 -44 -10 -76 -17 -15 -29 -32 -27 -39 3 -7 -8 -24 -24
-39 -33 -29 -26 -42 27 -54 20 -4 26 -4 17 3 -23 16 -10 48 17 44 15 -2 21 0
17 7 -4 6 -2 11 4 11 6 0 8 -10 4 -24 -4 -17 -1 -25 12 -30 15 -6 12 -11 -19
-37 -43 -35 -46 -46 -14 -51 18 -2 23 -10 25 -40 2 -20 -1 -46 -7 -56 -8 -14
-5 -22 10 -35 11 -10 19 -29 19 -46 0 -32 -15 -50 -23 -29 -4 10 -8 9 -16 -2
-6 -9 -6 -19 -1 -24 12 -12 1 -36 -16 -36 -8 0 -19 11 -24 25 -14 37 -21 31
-18 -15 1 -22 -3 -45 -10 -52 -9 -9 -12 -9 -12 0 0 7 -4 12 -10 12 -5 0 -10
-9 -10 -21 0 -15 5 -19 15 -15 8 3 19 -3 25 -14 15 -29 12 -39 -14 -46 -31 -7
-61 -39 -47 -49 14 -8 14 -80 0 -106 -10 -20 -48 -41 -84 -45 -18 -2 -50 -11
-112 -29 -29 -9 -31 10 -3 27 11 7 20 21 20 31 0 10 7 20 15 23 8 4 15 12 15
19 0 11 -6 10 -30 -1 -16 -9 -30 -22 -30 -30 0 -8 -4 -12 -10 -9 -6 4 -5 13 3
25 9 16 9 24 -1 40 -10 17 -10 24 3 44 9 13 23 27 31 30 16 6 19 26 4 26 -6 0
-30 -18 -52 -40 -23 -22 -49 -40 -57 -40 -12 0 -12 3 -3 12 7 7 12 18 12 26 0
7 7 20 16 29 14 14 13 17 -6 35 -12 11 -19 27 -16 35 3 8 6 19 6 24 0 5 7 9
15 9 9 0 15 9 15 24 0 17 9 28 35 40 36 17 47 36 21 36 -8 0 -18 -4 -21 -10
-3 -5 -14 -10 -24 -10 -10 0 -24 -7 -31 -15 -7 -9 -15 -13 -18 -10 -3 3 5 16
18 30 20 21 21 27 9 41 -11 14 -10 18 11 34 16 12 21 23 16 36 -4 11 0 31 11
51 19 37 12 54 -14 31 -22 -18 -53 -30 -53 -20 0 5 19 26 43 49 39 37 42 45
42 88 -1 27 -7 50 -15 55 -7 4 -10 15 -6 25 5 13 9 15 19 6 17 -14 59 31 51
54 -4 8 -1 15 5 15 6 0 11 6 11 14 0 7 11 21 25 30 13 9 38 29 55 46 16 16 46
32 67 36 21 4 52 13 68 20 41 18 44 17 51 -11z m62 -44 c-7 -22 -17 -41 -21
-41 -11 0 2 60 16 78 17 21 19 7 5 -37z m2612 -101 c0 -5 -4 -10 -10 -10 -5 0
-10 5 -10 10 0 6 5 10 10 10 6 0 10 -4 10 -10z m70 -66 c0 -19 -4 -34 -10 -34
-5 0 -10 18 -10 41 0 24 4 38 10 34 6 -3 10 -22 10 -41z m7222 -66 c42 -60 64
-157 36 -159 -7 -1 -19 -2 -27 -3 -7 0 -20 -11 -28 -23 -14 -21 -14 -23 1 -23
41 0 45 -133 6 -210 -25 -49 -25 -65 -1 -89 33 -33 39 -53 41 -131 3 -105 2
-109 -15 -86 -8 11 -15 28 -15 38 0 9 -13 24 -30 33 -42 22 -64 58 -51 84 18
32 14 36 -36 36 -42 0 -49 3 -63 30 -8 16 -23 36 -33 45 -19 16 -25 60 -12 99
7 23 6 23 -28 17 -42 -8 -52 3 -49 54 2 19 -1 57 -7 84 -11 61 -7 72 31 85 17
6 48 28 68 49 79 80 107 98 167 101 14 1 30 -11 45 -31z m-9360 -22 c5 -8 8
-7 8 2 0 20 51 -11 78 -47 43 -59 63 -150 92 -436 30 -290 60 -497 74 -526 9
-18 15 -33 14 -35 -2 -1 -21 -7 -43 -13 -81 -22 -108 32 -131 264 -60 612 -73
690 -120 771 -13 22 -24 44 -24 48 0 9 43 -14 52 -28z m2232 -137 c-3 -5 -10
-7 -15 -3 -5 3 -7 10 -3 15 3 5 10 7 15 3 5 -3 7 -10 3 -15z m-2734 -47 c-5
-2 -10 -12 -10 -22 0 -10 -4 -22 -10 -25 -6 -4 -10 10 -10 34 0 39 1 40 20 29
11 -7 16 -14 10 -16z m60 -123 c0 -5 -7 -9 -15 -9 -9 0 -15 9 -15 21 0 18 2
19 15 9 8 -7 15 -16 15 -21z m-130 -66 c0 -7 -6 -13 -14 -13 -7 0 -18 6 -24
13 -8 9 -4 12 14 12 13 0 24 -6 24 -12z m1644 -12 c60 -26 70 -39 96 -120 23
-72 27 -239 10 -377 -5 -43 -16 -143 -25 -220 -8 -78 -20 -165 -25 -194 -13
-66 -13 -80 0 -80 6 0 10 5 10 11 0 6 16 29 35 50 19 22 35 44 35 51 0 6 11 1
24 -11 14 -13 30 -20 36 -16 6 4 18 1 26 -6 12 -10 19 -8 37 10 25 23 76 28
105 10 13 -8 27 -7 55 5 34 14 38 14 44 0 3 -8 1 -20 -6 -27 -13 -13 -15 -47
-3 -47 5 0 19 12 32 27 l23 26 14 -27 c9 -18 12 -41 8 -64 -5 -32 -3 -38 17
-47 18 -8 22 -17 20 -43 -3 -30 -1 -32 28 -32 20 0 32 6 36 18 6 17 21 51 39
84 12 22 34 23 49 3 8 -10 16 -12 26 -5 13 8 12 11 -5 24 -19 15 -19 15 8 16
15 0 27 -5 27 -13 0 -7 9 -18 20 -25 11 -7 20 -19 20 -27 0 -8 6 -15 13 -15 7
0 19 -15 27 -32 l14 -33 3 38 c3 29 9 37 24 37 14 0 19 -7 19 -25 0 -14 -6
-25 -12 -25 -8 0 -4 -7 6 -15 16 -12 17 -18 8 -27 -19 -19 -14 -40 18 -75 32
-36 50 -42 50 -18 0 22 32 55 52 55 10 0 26 9 35 20 10 11 23 20 30 20 6 0 15
9 18 21 9 29 30 18 32 -17 0 -16 2 -37 2 -47 1 -10 6 -15 12 -11 6 4 8 20 5
39 -5 25 -1 42 16 69 13 19 28 35 34 36 7 0 26 -13 43 -29 43 -40 42 -89 -1
-82 -15 2 -8 -22 9 -34 17 -13 17 -14 0 -32 -16 -19 -16 -21 1 -36 10 -10 23
-17 29 -17 9 0 26 27 36 60 4 11 6 11 6 -3 1 -11 7 -17 18 -15 15 2 17 -3 14
-32 -1 -19 -7 -43 -13 -53 -5 -10 -7 -25 -4 -33 9 -22 32 -16 45 12 8 19 16
24 29 19 9 -4 25 -10 35 -12 11 -4 17 -15 17 -33 0 -17 8 -33 22 -42 l22 -15
-22 -28 c-12 -15 -22 -32 -22 -37 0 -10 45 0 83 19 24 12 40 2 18 -11 -25 -16
-16 -86 13 -107 8 -7 6 -26 -8 -60 -5 -12 5 -18 44 -28 27 -7 50 -18 50 -25 0
-18 -43 -36 -62 -25 -9 5 -23 3 -36 -7 -25 -18 -29 -42 -7 -50 8 -4 15 -15 15
-26 0 -20 1 -20 26 -3 30 19 43 12 26 -15 -10 -16 -8 -20 9 -25 28 -9 19 -26
-22 -41 l-34 -11 38 -8 c69 -14 92 14 111 130 2 17 11 59 19 95 43 195 56 270
92 525 22 151 37 218 51 222 6 2 26 -27 44 -64 30 -62 33 -76 33 -153 -2 -102
-22 -266 -68 -535 -34 -205 -34 -243 0 -205 23 25 75 26 153 4 89 -26 125 -79
101 -151 -7 -21 -12 -52 -10 -68 1 -22 -9 -49 -37 -90 -34 -52 -40 -70 -46
-134 -4 -42 -13 -82 -21 -91 -21 -23 -33 -61 -44 -144 -6 -42 -18 -91 -27
-108 -9 -17 -20 -59 -25 -94 -5 -34 -20 -89 -35 -121 -14 -32 -34 -98 -45
-148 -26 -116 -36 -135 -84 -162 -47 -28 -84 -24 -126 11 -16 14 -37 27 -48
31 -24 7 -31 48 -23 140 3 44 12 79 23 95 11 15 23 60 30 115 6 50 17 101 24
115 7 14 16 63 20 110 4 47 10 90 14 95 10 12 28 82 41 155 6 30 19 72 29 95
10 22 24 67 31 100 7 33 20 68 28 78 14 16 14 19 -1 34 -14 15 -24 15 -89 4
-40 -7 -100 -21 -133 -31 -33 -10 -91 -22 -130 -25 -38 -3 -99 -13 -135 -20
-36 -8 -99 -20 -140 -26 -41 -6 -91 -17 -110 -23 -19 -7 -73 -13 -119 -15 -47
-1 -98 -8 -115 -15 -17 -8 -60 -18 -96 -21 -36 -4 -83 -15 -105 -24 -23 -10
-69 -19 -109 -20 -37 -1 -77 -6 -88 -12 -10 -6 -55 -12 -99 -14 -44 -3 -88 -9
-99 -15 -10 -6 -47 -13 -82 -16 -35 -4 -67 -10 -73 -13 -5 -4 -34 -8 -63 -10
-30 -1 -66 -7 -80 -13 -15 -5 -56 -14 -92 -19 -36 -6 -92 -14 -125 -20 -150
-25 -193 -31 -231 -33 -23 -1 -49 -8 -58 -15 -10 -9 -29 -12 -51 -8 -19 3 -37
1 -40 -4 -10 -15 -65 -11 -65 5 0 15 53 32 69 22 5 -3 23 1 40 10 18 9 42 13
56 10 31 -8 51 13 65 67 7 23 31 110 55 192 208 712 378 1605 362 1905 -6 119
-27 191 -64 220 -33 26 -53 25 -113 -5 -28 -14 -50 -23 -50 -20 0 3 19 19 43
36 39 29 47 31 107 26 36 -2 87 -14 114 -26z m-1674 -61 c0 -5 -4 -10 -9 -10
-6 0 -13 5 -16 10 -3 6 1 10 9 10 9 0 16 -4 16 -10z m-40 -68 c0 -13 -12 -22
-22 -16 -10 6 -1 24 13 24 5 0 9 -4 9 -8z m2280 -32 c6 -11 5 -21 -2 -28 -16
-16 -24 -15 -42 4 -12 11 -13 20 -6 34 12 22 36 17 50 -10z m-2600 -114 c0 -3
-4 -8 -10 -11 -5 -3 -10 -1 -10 4 0 6 5 11 10 11 6 0 10 -2 10 -4z m196 -31
c9 -8 14 -22 12 -31 -3 -17 -73 -49 -126 -57 -17 -3 -46 -12 -63 -21 -18 -9
-35 -14 -38 -10 -6 5 38 43 51 44 3 0 20 14 36 30 17 17 39 30 49 30 10 0 27
7 37 15 24 18 24 18 42 0z m-16 -105 c-20 -13 -53 -13 -45 0 3 6 18 10 33 10
21 0 24 -2 12 -10z m85 0 c3 -6 -1 -13 -10 -16 -19 -8 -30 0 -20 15 8 14 22
14 30 1z m-197 -32 c-7 -19 -38 -22 -38 -4 0 10 9 16 21 16 12 0 19 -5 17 -12z
m168 -20 c15 -15 15 -18 0 -39 -18 -26 -22 -69 -6 -69 6 0 10 12 10 26 0 42
23 22 27 -24 4 -42 -11 -59 -23 -27 -5 11 -10 13 -19 5 -6 -5 -15 -7 -18 -4
-4 4 -18 -1 -31 -10 -14 -9 -34 -16 -45 -16 -21 0 -51 -34 -51 -58 0 -7 9 -3
23 12 12 13 36 27 54 31 26 5 34 2 43 -14 7 -14 7 -21 0 -21 -5 0 -10 -5 -10
-12 0 -6 -11 -26 -25 -44 -14 -18 -25 -35 -25 -38 0 -13 24 -5 36 11 17 24 27
12 18 -21 -5 -21 -9 -24 -20 -15 -20 16 -31 2 -16 -21 10 -16 9 -21 -8 -30
-11 -6 -20 -16 -20 -22 0 -9 3 -9 12 0 22 22 36 12 52 -37 13 -39 14 -60 6
-103 -12 -62 -12 -66 36 -237 3 -11 7 -11 19 -1 14 12 19 7 16 -14 -1 -4 4
-14 10 -22 9 -11 8 -14 -6 -14 -13 0 -8 -9 19 -37 35 -36 33 -61 -2 -30 -24
21 -109 63 -157 76 -76 23 -215 30 -285 15 -87 -18 -116 -16 -58 4 27 9 48 20
48 25 0 4 0 12 0 17 0 6 -10 2 -22 -10 -35 -32 -53 -26 -28 10 12 17 25 30 30
30 11 0 36 51 45 92 4 18 13 37 20 43 18 15 24 64 12 98 -7 22 -7 35 3 51 9
14 10 21 1 24 -17 6 -13 22 7 22 9 0 28 16 41 35 13 19 31 35 41 35 21 0 98
65 88 76 -4 4 -20 -5 -34 -19 -15 -15 -36 -27 -48 -27 -20 1 -20 2 -3 14 23
18 22 30 -3 23 -28 -7 -35 10 -10 25 11 7 20 16 20 20 0 16 -21 7 -52 -22 -36
-35 -75 -42 -58 -11 5 11 24 30 41 42 20 14 27 24 20 29 -14 8 -3 40 14 40 7
0 34 20 61 45 26 25 54 45 62 45 7 0 12 8 10 18 -9 44 100 68 138 30z m-246
-82 c0 -3 -4 -8 -10 -11 -5 -3 -10 -1 -10 4 0 6 5 11 10 11 6 0 10 -2 10 -4z
m1310 -50 c0 -2 -8 -10 -17 -17 -16 -13 -17 -12 -4 4 13 16 21 21 21 13z
m-1080 -36 c0 -5 -4 -10 -10 -10 -5 0 -10 5 -10 10 0 6 5 10 10 10 6 0 10 -4
10 -10z m41 -33 c-8 -8 -11 -7 -11 4 0 9 3 19 7 23 4 4 9 2 11 -4 3 -7 -1 -17
-7 -23z m-31 -46 c0 -6 -4 -13 -10 -16 -5 -3 -10 1 -10 9 0 9 5 16 10 16 6 0
10 -4 10 -9z m-350 -191 c0 -5 -2 -10 -4 -10 -3 0 -8 5 -11 10 -3 6 -1 10 4
10 6 0 11 -4 11 -10z m2830 -40 c0 -5 -4 -10 -10 -10 -5 0 -10 5 -10 10 0 6 5
10 10 10 6 0 10 -4 10 -10z m-2832 -25 c0 -14 -4 -28 -9 -31 -10 -6 -12 17 -3
40 9 22 12 20 12 -9z m3295 -103 c-5 -22 -23 -29 -37 -15 -4 4 3 15 16 24 27
21 29 20 21 -9z m6927 -202 c0 -17 -26 -30 -38 -18 -20 20 -14 36 13 30 14 -2
25 -8 25 -12z m-10080 -144 c78 -16 147 -44 113 -45 -27 -1 -41 -21 -14 -21
10 0 40 -9 66 -20 56 -24 72 -26 55 -5 -7 8 -27 17 -46 21 -19 3 -34 10 -34
15 0 14 10 11 80 -18 67 -29 161 -96 217 -155 44 -47 75 -112 79 -166 6 -81
-17 -113 -33 -45 -15 66 -30 49 -37 -43 -6 -76 -12 -98 -52 -178 -51 -102 -74
-198 -74 -312 0 -41 -3 -74 -6 -74 -9 0 -76 42 -92 57 -42 40 -223 57 -230 21
-3 -16 6 -18 73 -18 96 0 139 -21 189 -90 40 -55 43 -71 20 -90 -13 -11 -26
-8 -82 19 -54 26 -75 31 -104 26 -22 -4 -38 -3 -42 4 -4 6 -23 11 -43 11 -28
0 -42 8 -67 35 -18 19 -38 35 -44 35 -19 0 -14 39 13 120 19 53 27 105 31 180
6 100 4 109 -25 188 -17 46 -31 99 -31 117 0 37 -17 55 -31 34 -9 -13 -7 -46
7 -118 5 -25 4 -32 -4 -27 -7 4 -12 18 -12 31 0 13 -5 27 -11 30 -15 10 -1
-78 22 -138 11 -26 19 -57 19 -69 0 -20 -3 -19 -34 11 l-35 34 -6 -37 c-8 -42
-32 -48 -37 -8 -2 22 -9 28 -38 32 -27 4 -36 10 -38 28 -2 15 -9 22 -17 18 -8
-3 -23 7 -33 21 -26 35 -42 23 -32 -24 7 -29 5 -41 -11 -61 -22 -28 -24 -64
-8 -111 9 -25 9 -38 -1 -56 -7 -13 -10 -28 -6 -33 3 -6 2 -13 -3 -16 -5 -3 0
-23 10 -44 11 -22 22 -62 26 -90 5 -45 3 -56 -21 -86 -31 -41 -35 -72 -8 -61
39 16 53 17 70 2 9 -8 44 -25 76 -36 58 -20 60 -20 72 -2 15 21 51 34 59 21 3
-5 -2 -13 -10 -17 -14 -8 -14 -13 0 -47 9 -21 15 -54 13 -74 -3 -35 -6 -38
-46 -46 -45 -9 -43 -10 -136 41 -16 8 -40 16 -53 16 -13 0 -26 3 -29 8 -3 5
-12 2 -21 -7 -9 -8 -25 -13 -37 -11 -12 2 -32 1 -46 -2 -53 -15 -135 64 -158
153 -6 26 -21 61 -32 76 -11 15 -20 42 -20 58 0 16 -6 32 -13 35 -20 8 -52
126 -38 140 19 19 12 41 -24 81 -19 21 -40 55 -46 75 -6 20 -17 45 -24 56 -7
11 -14 53 -17 93 -2 50 -8 76 -18 83 -12 8 -7 17 29 49 24 22 51 40 60 40 9 0
43 14 74 30 32 17 73 30 90 30 18 0 41 7 51 15 11 8 33 15 49 15 26 0 28 2 16
16 -11 14 -10 16 6 14 34 -4 46 0 40 10 -3 6 -15 10 -26 10 -10 0 -19 5 -19
10 0 6 20 10 44 10 31 0 46 5 50 16 5 12 13 14 32 10 19 -5 33 -1 48 12 11 11
37 22 56 25 85 13 162 43 178 70 9 15 25 27 35 27 10 0 20 6 23 14 3 8 17 17
30 20 15 4 22 11 18 18 -7 11 -92 6 -126 -7 -11 -4 -18 -3 -18 4 0 10 48 28
80 30 8 1 44 -5 80 -13z m-153 -42 c-3 -3 -12 -4 -19 -1 -8 3 -5 6 6 6 11 1
17 -2 13 -5z m-397 -214 c0 -5 -13 -10 -29 -10 -17 0 -33 -4 -36 -10 -3 -5
-14 -10 -23 -10 -26 0 38 38 66 39 12 1 22 -3 22 -9z m6874 -65 c3 -8 8 -37
12 -63 7 -55 2 -60 -72 -69 -34 -3 -47 1 -73 22 -17 15 -31 33 -31 41 0 19
-24 18 -40 -1 -10 -12 -16 -13 -26 -4 -27 22 -10 37 51 45 16 2 34 9 39 14 6
6 21 10 36 10 14 0 32 5 40 10 23 15 57 12 64 -5z m-673 -48 c36 -24 52 -68
37 -99 -21 -43 -103 -60 -161 -34 -18 8 -60 19 -94 26 -35 7 -71 18 -80 25
-16 12 -16 15 1 54 21 44 35 49 79 26 24 -12 34 -12 70 -1 92 31 106 31 148 3z
m-1976 3 c3 -5 1 -10 -4 -10 -6 0 -11 5 -11 10 0 6 2 10 4 10 3 0 8 -4 11 -10z
m1315 -52 c40 -21 45 -27 48 -62 3 -28 -2 -44 -18 -61 -23 -24 -20 -45 6 -45
23 0 16 -27 -13 -55 -30 -27 -65 -31 -125 -15 -50 14 -56 29 -24 57 29 25 27
43 -5 43 -10 0 -27 8 -38 19 -12 12 -24 16 -32 11 -7 -5 -20 -5 -28 -1 -9 5
-21 6 -28 4 -6 -2 -14 1 -18 6 -3 6 -15 11 -26 11 -10 0 -19 5 -19 10 0 6 5
10 10 10 6 0 10 17 10 38 0 24 3 32 9 23 6 -9 11 -10 15 -2 9 14 53 14 61 1 9
-15 41 -12 55 4 11 14 38 21 90 25 14 0 46 -9 70 -21z m-6030 -207 c0 -5 -8
-11 -17 -15 -10 -3 -25 -9 -33 -12 -8 -4 -4 3 10 14 27 23 40 27 40 13z m5624
-26 c10 -26 7 -29 -31 -32 -53 -5 -163 7 -163 17 0 4 33 12 73 18 105 14 114
14 121 -3z m-5621 -59 c-1 -17 2 -35 8 -42 5 -6 7 -18 3 -27 -3 -10 2 -20 15
-27 12 -6 21 -19 21 -30 0 -11 8 -24 19 -29 10 -6 21 -21 24 -33 3 -13 13 -43
22 -68 19 -52 55 -231 48 -242 -2 -5 -11 -8 -19 -8 -8 0 -14 -4 -14 -10 0 -5
9 -10 20 -10 25 0 26 -18 3 -36 -16 -12 -16 -13 8 -14 23 0 30 -8 47 -52 11
-29 28 -80 38 -113 18 -62 35 -95 66 -131 10 -11 23 -35 28 -53 9 -31 9 -32
-23 -27 -18 3 -58 8 -90 11 -37 4 -60 12 -64 21 -3 8 -12 14 -20 14 -8 0 -12
4 -8 10 3 5 2 17 -4 27 -5 10 -14 29 -20 43 -12 27 -27 51 -78 124 -39 55 -39
56 -12 56 11 0 17 5 14 10 -4 6 18 21 47 35 l53 25 -50 1 c-43 0 -141 26 -109
28 13 1 8 44 -8 78 -8 16 -8 47 0 109 8 62 9 92 1 106 -8 15 -8 27 2 44 8 16
9 30 3 44 -8 18 -11 19 -37 5 -27 -14 -29 -14 -34 6 -3 12 -11 18 -19 15 -9
-3 -16 4 -19 19 -3 14 -7 36 -10 50 -4 18 -1 25 9 25 14 0 36 28 36 46 0 3
-15 -5 -34 -20 -44 -33 -56 -33 -25 0 32 36 76 53 124 51 38 -2 40 -4 38 -31z
m6112 18 c-58 -16 -104 -18 -89 -5 11 12 47 18 99 19 l40 0 -50 -14z m-6255
-214 c0 -5 -4 -10 -10 -10 -5 0 -10 5 -10 10 0 6 5 10 10 10 6 0 10 -4 10 -10z
m4010 -10 c19 -10 40 -59 40 -92 0 -11 -30 -50 -67 -88 -54 -55 -83 -75 -143
-100 -101 -42 -140 -86 -140 -155 0 -27 -11 -82 -24 -121 -13 -38 -31 -110
-40 -158 -9 -48 -21 -98 -26 -112 -12 -31 -3 -74 16 -74 8 0 14 -4 14 -9 0 -5
8 -11 18 -13 9 -3 25 -27 35 -54 10 -27 23 -57 28 -67 6 -10 9 -57 8 -105 -1
-89 7 -142 21 -142 24 0 83 -73 92 -112 16 -66 12 -166 -7 -194 -19 -29 -47
-43 -53 -26 -6 19 -30 14 -37 -9 -7 -20 -8 -20 -26 -3 -14 12 -16 20 -8 25 7
4 10 20 6 42 -3 19 -2 39 3 43 4 5 -11 52 -35 104 -24 52 -44 105 -44 118 -1
12 -7 22 -14 22 -18 0 -43 46 -67 121 -22 71 -25 116 -9 121 16 5 1 34 -27 48
-13 7 -24 22 -24 32 0 10 -3 17 -7 16 -8 -2 -69 34 -154 90 -27 18 -60 37 -72
41 -12 5 -45 24 -74 44 -37 25 -67 36 -110 42 -32 3 -68 13 -80 21 -48 31 -72
15 -87 -58 -4 -16 -11 -28 -16 -28 -5 0 -30 -20 -54 -45 -25 -25 -52 -45 -61
-45 -8 0 -32 -16 -52 -35 -22 -21 -51 -37 -73 -41 -60 -10 -85 -20 -85 -35 0
-15 10 -15 180 -3 65 5 86 2 115 -12 53 -28 82 -52 102 -85 23 -37 75 -60 146
-64 56 -4 102 -32 102 -62 0 -30 -32 -73 -80 -108 l-51 -38 5 -52 c7 -66 -5
-79 -57 -63 -20 6 -37 15 -37 20 0 32 -37 85 -69 100 -147 65 -222 106 -261
141 -25 22 -59 46 -77 53 -17 7 -37 19 -45 27 -7 7 -44 21 -82 30 -110 27
-228 106 -242 163 -7 26 16 83 41 104 8 7 15 18 15 25 0 7 13 18 28 24 15 6
47 36 70 66 24 30 51 55 61 55 9 0 33 16 52 36 18 20 55 46 80 59 25 13 59 35
76 49 16 13 42 28 57 32 16 4 49 26 73 50 26 24 51 40 59 37 8 -3 35 12 60 32
25 21 65 45 88 53 52 19 229 28 281 13 47 -13 79 3 89 43 3 14 28 57 54 96 40
61 50 70 70 65 43 -11 152 40 152 71 0 22 27 16 33 -7 5 -19 10 -21 48 -15 23
4 61 20 83 36 36 27 47 30 119 30 43 0 87 -4 97 -10z m-1527 -115 c1 -5 -13
-11 -30 -13 -31 -3 -42 6 -26 22 10 10 53 3 56 -9z m-86 -12 c5 -14 -18 -22
-82 -28 -27 -3 -52 -10 -55 -16 -8 -12 -60 -1 -60 12 0 5 13 9 29 9 17 0 33 5
37 11 3 6 17 9 29 7 13 -3 34 1 46 8 27 16 51 14 56 -3z m-217 -43 c8 -5 12
-11 9 -14 -7 -8 -49 5 -49 15 0 12 21 11 40 -1z m-55 -20 c-3 -5 -10 -10 -16
-10 -5 0 -9 5 -9 10 0 6 7 10 16 10 8 0 12 -4 9 -10z m326 -87 c-16 -31 -20
-34 -21 -16 0 13 8 42 18 65 16 40 17 41 20 16 2 -15 -6 -44 -17 -65z m-71 22
c-7 -25 -17 -48 -21 -51 -5 -3 -9 -14 -9 -25 0 -10 -4 -19 -10 -19 -13 0 -2
54 21 109 24 55 36 47 19 -14z m-95 -51 c-15 -41 -32 -77 -38 -81 -6 -4 -8 0
-5 8 3 8 13 41 23 74 21 74 37 105 43 87 2 -8 -8 -47 -23 -88z m275 83 c0 -7
-7 -22 -15 -33 -12 -16 -14 -17 -15 -2 0 23 11 48 21 48 5 0 9 -6 9 -13z
m-331 -39 c-6 -18 -15 -47 -20 -63 -5 -17 -16 -40 -25 -50 -15 -19 -15 -19 -9
5 3 14 11 42 16 64 12 47 27 76 39 76 5 0 4 -14 -1 -32z m-85 -55 c-28 -75
-34 -85 -34 -56 0 17 10 52 35 121 3 7 9 11 15 7 6 -3 0 -32 -16 -72z m-65
-11 c-12 -31 -26 -61 -30 -66 -11 -13 9 70 27 112 26 59 28 17 3 -46z m-1539
-72 c0 -5 -4 -10 -10 -10 -5 0 -10 5 -10 10 0 6 5 10 10 10 6 0 10 -4 10 -10z
m1570 -15 c0 -8 -4 -15 -10 -15 -5 0 -7 7 -4 15 4 8 8 15 10 15 2 0 4 -7 4
-15z m8986 -49 c-2 -22 -4 -44 -5 -48 -2 -16 -17 -7 -33 22 -15 27 -15 32 -1
60 21 43 44 24 39 -34z m-11026 15 c0 -6 -5 -13 -11 -16 -6 -5 -4 -12 8 -20
25 -19 6 -34 -34 -28 -42 7 -44 36 -5 57 32 18 42 19 42 7z m2315 -28 c-6 -34
-25 -70 -25 -49 0 15 23 86 28 86 2 0 1 -17 -3 -37z m-81 0 c-9 -36 -24 -66
-31 -60 -7 8 19 87 29 87 5 0 5 -12 2 -27z m1506 7 c0 -5 -2 -10 -4 -10 -3 0
-8 5 -11 10 -3 6 -1 10 4 10 6 0 11 -4 11 -10z m-1601 -68 c-17 -50 -23 -25
-8 30 8 26 14 36 16 25 3 -9 -1 -34 -8 -55z m-78 -14 c-19 -38 -21 -39 -17
-13 7 46 28 94 33 73 2 -9 -5 -36 -16 -60z m-117 25 c-8 -33 -23 -63 -24 -47
0 27 13 74 21 74 5 0 6 -12 3 -27z m41 -63 c-9 -27 -18 -50 -20 -50 -6 0 7 73
18 100 17 45 19 2 2 -50z m-78 -42 c-3 -8 -6 -5 -6 6 -1 11 2 17 5 13 3 -3 4
-12 1 -19z m353 -52 c0 -3 -4 -8 -10 -11 -5 -3 -10 -1 -10 4 0 6 5 11 10 11 6
0 10 -2 10 -4z m3497 -8 c50 -21 63 -38 63 -83 0 -67 -21 -79 -143 -81 -140
-2 -201 28 -199 99 1 47 20 56 117 49 72 -4 85 -2 91 12 7 19 32 21 71 4z
m-3593 -25 c-8 -32 -24 -55 -24 -32 0 26 12 59 21 59 5 0 6 -12 3 -27z m-93
-46 c-13 -13 -15 21 -3 50 6 15 8 13 10 -11 2 -16 -1 -33 -7 -39z m-75 -17
c-15 -34 -15 -34 -16 -8 0 15 5 39 12 55 10 25 12 26 15 8 2 -12 -3 -36 -11
-55z m-67 -12 c-6 -24 -14 -37 -16 -30 -3 8 1 35 8 60 7 26 15 39 17 30 2 -9
-2 -36 -9 -60z m-54 30 c-7 -33 -25 -62 -25 -41 0 28 14 73 22 73 6 0 7 -14 3
-32z m4545 -13 c31 -16 39 -38 19 -51 -6 -3 -17 -22 -25 -40 -12 -30 -19 -34
-49 -34 -20 0 -52 -7 -73 -15 -40 -17 -65 -14 -129 16 -58 28 -68 42 -54 77
19 46 41 53 124 40 65 -10 77 -9 98 5 29 21 52 21 89 2z m-4939 -42 c-12 -20
-14 -14 -5 12 4 9 9 14 11 11 3 -2 0 -13 -6 -23z m-1460 -20 c6 -16 13 -41 16
-56 5 -26 3 -28 -18 -25 -18 2 -28 14 -40 48 -19 50 -17 60 12 60 12 0 23 -10
30 -27z m7066 -15 c7 -8 16 -35 19 -61 6 -41 4 -51 -16 -72 -18 -20 -34 -25
-70 -25 -52 0 -68 9 -103 63 -38 57 -26 76 73 111 23 8 82 -2 97 -16z m-5621
-24 c-4 -9 -9 -15 -11 -12 -3 3 -3 13 1 22 4 9 9 15 11 12 3 -3 3 -13 -1 -22z
m5394 -40 c0 -13 -3 -14 -13 -5 -8 6 -17 8 -20 4 -4 -3 -7 -1 -7 5 0 7 9 12
20 12 12 0 20 -7 20 -16z m-4759 -25 c-5 -13 -10 -19 -10 -12 -1 15 10 45 15
40 3 -2 0 -15 -5 -28z m-81 -19 c-8 -46 -20 -64 -20 -32 0 21 16 72 23 72 3 0
1 -18 -3 -40z m-66 3 c-4 -16 -13 -39 -21 -53 -13 -24 -14 -24 -8 10 10 54 16
70 26 70 5 0 6 -12 3 -27z m-79 -30 c-8 -27 -15 -52 -15 -57 0 -5 -2 -7 -5 -4
-8 8 15 108 25 108 5 0 3 -21 -5 -47z m-65 -4 c-11 -36 -20 -49 -20 -28 0 25
12 59 20 59 5 0 5 -14 0 -31z m-395 -66 c-9 -52 -27 -103 -37 -103 -10 0 -10
4 1 32 5 13 14 42 20 66 14 52 24 55 16 5z m655 -40 c0 -5 -5 -15 -10 -23 -8
-12 -10 -11 -10 8 0 12 5 22 10 22 6 0 10 -3 10 -7z m-101 -80 c-6 -32 -14
-52 -16 -46 -3 7 1 39 8 70 6 32 14 52 16 46 3 -7 -1 -39 -8 -70z m2926 48
c77 -48 123 -101 176 -206 44 -86 54 -116 57 -168 5 -85 -4 -94 -108 -111
-173 -29 -191 -30 -240 -3 -38 20 -51 35 -85 104 -36 70 -41 87 -39 141 2 33
7 70 13 81 6 11 11 42 11 68 0 74 5 77 155 107 11 2 22 4 25 5 3 0 19 -7 35
-18z m-3005 -75 c-6 -31 -14 -56 -17 -56 -6 0 5 84 14 107 12 31 14 1 3 -51z
m-526 -87 c-9 -46 -21 -88 -26 -93 -11 -13 -10 40 1 84 5 19 12 52 16 74 4 26
10 35 16 29 7 -7 5 -38 -7 -94z m451 42 c-4 -23 -11 -41 -17 -41 -5 0 -7 8 -4
18 3 9 8 30 12 45 10 42 17 24 9 -22z m-223 -75 c-9 -18 -11 -16 -11 19 0 33
1 37 10 21 8 -12 8 -25 1 -40z m-40 -8 c-7 -7 -12 -8 -12 -2 0 14 12 26 19 19
2 -3 -1 -11 -7 -17z m40 -81 c-2 -23 -7 -111 -12 -194 l-10 -153 -45 -69 c-56
-85 -126 -152 -152 -145 -15 4 -18 17 -20 78 -2 69 -1 72 20 72 16 -1 21 4 19
17 -2 10 3 16 10 15 8 -2 14 10 16 31 2 19 10 43 17 54 13 19 14 18 24 -2 7
-13 17 -18 27 -14 13 5 14 16 9 61 -4 35 -2 57 4 62 8 4 8 16 0 39 -10 29 -9
35 4 43 13 7 16 22 13 68 -1 33 1 60 5 60 4 0 14 3 23 6 11 4 16 0 17 -12 1
-19 1 -18 15 25 8 26 18 1 16 -42z m-265 -77 c-4 -45 -11 -88 -17 -98 -8 -13
-10 -8 -6 23 3 22 8 66 12 98 10 86 18 69 11 -23z m2398 -160 c3 -6 -4 -14
-17 -19 -15 -7 -18 -10 -7 -10 9 -1 19 -8 23 -16 4 -11 -2 -15 -24 -15 -33 0
-36 7 -18 45 11 26 32 33 43 15z m1463 -86 c16 -33 24 -71 27 -130 7 -122 -21
-124 -50 -3 -16 68 -20 179 -7 179 4 0 18 -21 30 -46z m-3328 -90 c0 -4 -5
-24 -12 -45 -14 -48 5 -154 27 -146 15 6 11 -10 -30 -148 -57 -189 -97 -344
-115 -435 -10 -52 -32 -151 -49 -218 -17 -68 -28 -128 -25 -133 3 -6 0 -17 -7
-25 -9 -11 -9 -18 -1 -26 9 -9 8 -16 -2 -27 -23 -28 -43 -93 -61 -196 -21
-128 -34 -173 -88 -325 -62 -172 -67 -184 -82 -164 -10 14 -12 14 -24 0 -8 -9
-17 -16 -21 -16 -4 0 -25 -16 -46 -35 -20 -19 -39 -34 -40 -32 -1 1 13 47 32
102 46 131 80 267 154 625 73 348 146 640 200 800 97 288 162 450 181 450 5 0
9 -3 9 -6z m8370 -131 c0 -5 -4 -14 -9 -22 -11 -17 -32 -5 -24 14 5 15 33 21
33 8z m30 -63 c0 -11 -7 -20 -15 -20 -8 0 -15 9 -15 20 0 11 7 20 15 20 8 0
15 -9 15 -20z m-4977 -398 c9 -27 27 -76 42 -108 15 -32 35 -77 46 -99 29 -63
35 -137 14 -169 -17 -26 -18 -26 -34 -9 -30 35 -58 78 -66 103 -4 14 -23 39
-41 57 -22 20 -32 37 -28 47 4 10 1 16 -9 16 -9 0 -19 9 -22 20 -3 11 -10 20
-15 20 -18 0 4 77 32 109 23 26 29 40 24 61 -13 66 36 25 57 -48z m-3486 -422
c11 0 9 -7 -9 -29 -23 -30 -48 -40 -48 -21 0 20 33 75 37 63 3 -7 11 -13 20
-13z m-67 -30 c0 -5 -4 -10 -10 -10 -5 0 -10 5 -10 10 0 6 5 10 10 10 6 0 10
-4 10 -10z m120 -19 c0 -19 -26 -48 -35 -39 -6 6 18 58 28 58 4 0 7 -8 7 -19z
m-65 -71 c-3 -5 -10 -10 -16 -10 -5 0 -9 5 -9 10 0 6 7 10 16 10 8 0 12 -4 9
-10z m-35 -40 c0 -5 -11 -10 -25 -10 -14 0 -25 5 -25 10 0 6 11 10 25 10 14 0
25 -4 25 -10z m1784 -612 c27 -13 27 -15 22 -67 -11 -96 -95 -402 -117 -425
-5 -6 -9 -19 -9 -30 0 -16 -3 -17 -12 -8 -10 10 -10 17 0 32 6 11 12 28 11 37
0 15 -2 14 -11 -4 -13 -27 -38 -30 -39 -5 -1 16 -2 16 -6 0 -4 -17 -23 -26
-23 -10 0 4 11 54 25 112 14 58 27 112 29 120 22 92 60 220 72 238 17 26 21
26 58 10z m7516 -888 c0 -11 -4 -20 -10 -20 -5 0 -10 9 -10 20 0 11 5 20 10
20 6 0 10 -9 10 -20z m-970 -100 c0 -5 -5 -10 -11 -10 -5 0 -7 5 -4 10 3 6 8
10 11 10 2 0 4 -4 4 -10z m1028 -127 c-5 -21 -9 -58 -10 -83 0 -25 -2 -35 -5
-22 -6 31 -19 27 -27 -9 -6 -34 0 -53 15 -44 19 12 8 -12 -15 -34 l-24 -23
-12 21 c-11 22 -5 61 12 72 7 4 7 9 0 13 -5 3 -15 -8 -22 -25 -7 -16 -17 -28
-23 -26 -21 7 -17 24 13 53 16 16 30 36 30 44 0 11 -3 11 -12 2 -17 -17 -28
-15 -28 7 0 42 19 60 90 84 27 9 28 7 18 -30z"/>
<path d="M10640 15715 c0 -14 5 -25 10 -25 6 0 10 11 10 25 0 14 -4 25 -10 25
-5 0 -10 -11 -10 -25z"/>
<path d="M10602 15598 c-17 -17 -15 -28 6 -28 24 0 32 8 25 26 -6 17 -15 18
-31 2z"/>
<path d="M8396 15121 c-4 -7 -5 -15 -2 -18 9 -9 19 4 14 18 -4 11 -6 11 -12 0z"/>
<path d="M8351 15048 c-5 -14 -5 -31 1 -41 12 -23 14 -21 22 26 8 41 -9 52
-23 15z"/>
<path d="M9986 14812 c-2 -4 -1 -14 5 -22 7 -12 9 -10 9 8 0 23 -5 28 -14 14z"/>
<path d="M10111 14774 c0 -11 3 -14 6 -6 3 7 2 16 -1 19 -3 4 -6 -2 -5 -13z"/>
<path d="M10020 14613 c0 -17 5 -35 10 -38 13 -8 13 35 0 55 -7 11 -10 7 -10
-17z"/>
<path d="M11960 15590 c0 -11 4 -20 9 -20 4 0 11 -17 15 -37 3 -21 12 -72 19
-113 10 -59 10 -91 1 -151 -12 -75 -52 -165 -82 -183 -8 -5 -31 -23 -51 -41
-38 -33 -99 -65 -166 -87 -42 -14 -56 -38 -35 -63 16 -19 101 -9 166 20 56 27
132 101 163 163 33 65 71 209 71 271 0 31 -3 93 -7 139 -5 76 -8 82 -28 82
-12 0 -30 9 -40 20 -10 11 -22 20 -27 20 -4 0 -8 -9 -8 -20z"/>
<path d="M11160 15246 c0 -14 5 -26 10 -26 6 0 10 9 10 19 0 11 -4 23 -10 26
-6 4 -10 -5 -10 -19z"/>
<path d="M9332 13889 c2 -7 10 -15 17 -17 8 -3 12 1 9 9 -2 7 -10 15 -17 17
-8 3 -12 -1 -9 -9z"/>
<path d="M9371 13848 c0 -10 -7 -18 -15 -18 -19 0 -31 -19 -19 -31 13 -13 46
25 40 48 -4 16 -5 16 -6 1z"/>
<path d="M9250 13821 c0 -12 5 -21 10 -21 6 0 10 6 10 14 0 8 -4 18 -10 21 -5
3 -10 -3 -10 -14z"/>
<path d="M11413 13687 c-3 -6 -1 -13 5 -15 7 -2 12 -12 12 -23 0 -10 6 -19 14
-19 16 0 31 34 22 49 -9 14 -45 20 -53 8z"/>
<path d="M11467 13499 c-26 -15 -13 -26 28 -21 21 3 34 9 32 16 -5 15 -38 18
-60 5z"/>
<path d="M11430 13440 c0 -5 8 -10 18 -10 10 0 23 -5 30 -12 9 -9 15 -9 24 0
9 9 7 12 -9 12 -12 0 -25 5 -28 10 -3 6 -13 10 -21 10 -8 0 -14 -4 -14 -10z"/>
<path d="M11370 13228 c-23 -25 -12 -35 19 -18 21 11 29 40 11 40 -5 0 -19
-10 -30 -22z"/>
<path d="M12816 11864 c-26 -59 -45 -111 -43 -118 4 -12 83 144 97 193 19 66
-10 26 -54 -75z"/>
<path d="M12646 11442 c-33 -97 -33 -116 0 -37 13 33 29 68 34 77 12 22 13 38
1 38 -4 0 -20 -35 -35 -78z"/>
<path d="M11460 10815 c0 -3 10 -10 23 -15 20 -8 20 -9 2 -9 -11 0 -29 4 -40
8 -11 5 -25 5 -31 0 -6 -5 -42 -11 -80 -13 -80 -4 -132 -15 -140 -28 -3 -5 11
-24 31 -43 21 -18 35 -37 32 -42 -4 -6 0 -18 7 -28 13 -18 15 -18 39 -2 23 15
36 16 101 6 79 -12 95 -23 133 -85 31 -52 56 -88 81 -114 27 -28 46 -69 56
-121 6 -34 40 -77 55 -71 3 1 9 -63 12 -143 3 -80 8 -147 11 -150 2 -3 16 12
29 32 15 24 35 40 54 44 17 4 44 12 60 18 17 5 57 18 90 27 33 9 70 23 82 30
28 17 159 284 140 284 -6 0 -58 -86 -74 -122 -13 -30 -45 -51 -65 -43 -7 3
-23 20 -34 38 -12 18 -70 93 -129 167 -117 148 -290 315 -366 355 -46 23 -79
32 -79 20z"/>
<path d="M14110 10602 c-36 -5 -54 -25 -89 -96 -27 -56 -36 -65 -65 -70 -88
-17 -123 -54 -184 -191 -22 -49 -60 -125 -86 -168 -25 -43 -46 -79 -46 -82 0
-2 -27 -59 -61 -127 -33 -68 -80 -175 -105 -238 -24 -63 -55 -139 -69 -168
-14 -29 -25 -58 -25 -65 0 -6 -6 -24 -14 -39 -8 -15 -17 -42 -21 -60 l-6 -33
16 30 c46 82 128 247 151 303 24 61 43 93 179 302 34 52 83 134 109 183 31 58
71 111 118 160 55 56 81 93 115 164 31 66 55 101 83 123 21 16 42 30 48 30 5
0 14 6 20 13 9 10 5 15 -16 23 -15 5 -38 8 -52 6z"/>
<path d="M12255 10519 c-4 -6 -5 -12 -2 -15 2 -3 7 2 10 11 7 17 1 20 -8 4z"/>
<path d="M15058 10242 c-16 -2 -28 -7 -28 -12 0 -6 12 -12 28 -15 15 -4 35
-10 44 -16 23 -12 51 -12 43 1 -13 22 -62 45 -87 42z"/>
<path d="M15180 10180 c20 -13 43 -13 35 0 -3 6 -16 10 -28 10 -18 0 -19 -2
-7 -10z"/>
<path d="M15024 10172 c-15 -10 -25 -40 -15 -47 14 -8 55 30 47 43 -8 14 -17
15 -32 4z"/>
<path d="M15249 10156 c16 -19 44 -21 39 -3 -3 6 -15 14 -28 15 -21 3 -22 2
-11 -12z"/>
<path d="M15310 10140 c0 -11 31 -26 95 -44 22 -6 80 -33 128 -60 48 -26 91
-46 94 -42 9 9 -12 29 -49 47 -110 55 -165 79 -179 79 -8 0 -19 4 -24 9 -16
14 -65 23 -65 11z"/>
<path d="M15664 9972 c9 -15 48 -23 43 -9 -2 7 -14 14 -26 15 -13 2 -21 -1
-17 -6z"/>
<path d="M15051 9774 c0 -11 3 -14 6 -6 3 7 2 16 -1 19 -3 4 -6 -2 -5 -13z"/>
<path d="M15955 9750 c3 -5 10 -10 16 -10 5 0 9 5 9 10 0 6 -7 10 -16 10 -8 0
-12 -4 -9 -10z"/>
<path d="M15112 9699 c-19 -7 -23 -15 -20 -41 3 -30 7 -33 38 -36 19 -2 39 -8
45 -13 12 -12 52 -12 60 0 3 5 1 12 -4 15 -5 3 -7 14 -5 24 3 11 -7 24 -31 40
-38 24 -48 25 -83 11z"/>
<path d="M16030 9646 c0 -8 15 -17 34 -20 19 -4 48 -13 65 -22 17 -8 41 -14
53 -12 19 2 13 9 -34 36 -60 34 -118 43 -118 18z"/>
<path d="M15056 9611 c-4 -7 -5 -15 -2 -18 9 -9 19 4 14 18 -4 11 -6 11 -12 0z"/>
<path d="M15054 9516 c3 -27 6 -66 6 -88 0 -28 5 -41 18 -45 9 -4 25 -17 35
-30 24 -30 43 -29 63 2 22 34 12 55 -28 55 -48 0 -55 8 -67 75 -14 76 -36 102
-27 31z"/>
<path d="M15955 9516 c-22 -7 -58 -24 -80 -37 -97 -59 -181 -83 -339 -94 -43
-3 -85 -10 -92 -15 -8 -8 -14 -8 -19 0 -9 15 -55 12 -55 -4 0 -7 -7 -19 -16
-27 -13 -10 -20 -10 -41 3 -23 14 -30 14 -69 -1 -52 -20 -59 -27 -68 -62 -5
-24 -2 -28 37 -42 23 -8 68 -18 101 -21 32 -4 67 -11 79 -18 16 -8 28 -7 51 5
35 18 213 41 238 32 20 -8 128 13 128 25 0 4 -12 11 -27 15 -15 3 -31 12 -36
18 -5 9 -10 7 -17 -4 -8 -14 -26 -17 -105 -16 -52 1 -95 4 -95 7 1 18 52 48
94 54 26 4 65 17 85 28 70 40 249 128 259 128 21 0 61 23 56 31 -7 12 -20 10
-69 -5z"/>
<path d="M15150 9470 c0 -5 5 -10 10 -10 6 0 10 5 10 10 0 6 -4 10 -10 10 -5
0 -10 -4 -10 -10z"/>
<path d="M15215 9380 c-3 -5 1 -10 10 -10 9 0 13 5 10 10 -3 6 -8 10 -10 10
-2 0 -7 -4 -10 -10z"/>
<path d="M14730 9299 c-14 -11 -35 -24 -46 -29 -12 -5 -24 -17 -26 -28 -5 -18
-2 -20 27 -15 38 6 51 -8 33 -37 -10 -16 -19 -19 -46 -14 -24 5 -38 2 -52 -11
-10 -9 -23 -14 -29 -10 -6 3 -25 -11 -43 -32 -48 -55 -110 -122 -132 -141 -10
-10 -24 -23 -30 -31 -6 -8 -46 -50 -88 -94 -43 -44 -78 -89 -78 -99 0 -11 -15
-34 -32 -52 -57 -57 -109 -126 -104 -135 3 -5 -1 -14 -9 -21 -8 -7 -15 -20
-15 -29 -1 -22 -41 -66 -78 -85 -17 -9 -36 -25 -42 -36 -6 -11 -35 -39 -66
-62 -30 -23 -61 -53 -69 -67 -7 -14 -46 -63 -86 -107 -73 -81 -104 -121 -139
-180 -11 -20 -40 -42 -81 -62 -35 -17 -79 -47 -98 -67 -18 -19 -46 -42 -62
-51 -33 -17 -38 -39 -10 -47 21 -5 151 14 221 33 25 6 61 21 80 33 38 23 180
160 180 173 0 5 17 28 39 51 21 24 44 56 51 72 6 16 29 41 51 55 21 15 39 34
39 44 0 21 26 46 85 84 72 46 152 131 191 203 49 91 74 125 156 211 47 49 66
77 63 90 -7 26 22 56 88 94 65 36 97 72 97 106 0 13 4 24 9 24 17 0 61 77 61
107 0 18 5 35 10 38 6 3 10 17 10 30 0 18 7 26 25 31 29 7 30 15 10 54 -18 35
-31 37 -65 9z"/>
<path d="M15066 9274 c-9 -24 -8 -25 13 -12 11 7 17 16 15 20 -8 13 -21 9 -28
-8z"/>
<path d="M13520 9155 c-47 -41 -120 -110 -163 -152 -62 -61 -80 -74 -88 -63
-5 8 -6 21 -4 29 3 8 8 42 10 75 l5 61 -21 -43 c-29 -61 -96 -342 -103 -432
l-6 -75 15 40 c9 22 22 59 30 81 31 97 57 129 186 236 83 69 197 185 212 216
16 32 29 102 19 102 -4 0 -46 -34 -92 -75z"/>
<path d="M15058 9189 c-3 -9 -7 -76 -7 -150 -1 -74 -3 -223 -5 -331 l-3 -198
29 0 c23 0 28 4 28 24 0 13 4 26 9 28 5 2 12 33 16 69 6 60 5 69 -14 88 -12
12 -21 32 -21 46 0 14 -5 25 -11 25 -7 0 -9 12 -6 33 21 120 24 144 15 167 -5
14 -7 54 -4 90 4 43 2 75 -7 95 -10 22 -15 25 -19 14z"/>
<path d="M11644 9131 c4 -5 1 -32 -6 -60 -8 -38 -9 -54 0 -63 8 -8 15 -1 26
27 13 31 14 44 4 71 -7 19 -16 34 -21 34 -4 0 -6 -4 -3 -9z"/>
<path d="M15115 9100 c-3 -5 1 -10 9 -10 9 0 16 5 16 10 0 6 -4 10 -9 10 -6 0
-13 -4 -16 -10z"/>
<path d="M13595 8420 c-70 -8 -159 -33 -231 -65 -56 -25 -121 -98 -131 -147
-8 -42 -32 -43 -73 -3 -66 65 -82 44 -100 -142 -6 -54 -17 -127 -24 -163 -25
-115 -44 -195 -51 -211 -16 -41 18 -21 107 64 53 51 127 115 166 142 44 32 83
70 106 105 20 30 49 70 64 89 42 53 151 161 162 161 6 0 10 13 10 29 0 33 34
63 97 85 90 31 19 70 -102 56z m-157 -202 c9 -9 5 -19 -20 -45 -18 -18 -38
-33 -46 -33 -8 0 -30 -9 -48 -21 -35 -22 -94 -23 -101 -2 -7 20 143 113 182
113 12 0 26 -5 33 -12z m-278 -133 c0 -14 -29 -35 -49 -35 -15 0 -14 23 1 38
17 17 48 15 48 -3z m190 -15 c-6 -11 -17 -20 -25 -20 -8 0 -15 -4 -15 -10 0
-5 -9 -10 -20 -10 -18 0 -19 3 -10 20 6 11 19 20 30 20 10 0 22 5 25 10 12 20
26 10 15 -10z"/>
<path d="M14319 7815 c-3 -2 -54 -7 -115 -10 -120 -6 -174 -15 -309 -50 -199
-52 -306 -69 -440 -70 -135 0 -229 -19 -255 -50 -7 -8 -18 -15 -24 -15 -26 0
-86 -22 -81 -30 19 -31 241 -70 403 -70 107 0 259 20 352 47 57 16 68 21 110
43 31 17 97 32 130 31 122 -6 131 -4 163 27 18 17 48 38 67 46 19 8 52 31 74
50 33 31 35 36 18 36 -12 0 -24 5 -27 10 -6 10 -58 14 -66 5z"/>
<path d="M15126 7802 c-2 -4 -1 -14 4 -22 7 -11 12 -12 21 -3 6 6 8 16 5 22
-8 13 -23 14 -30 3z"/>
<path d="M12959 7593 c-30 -76 -40 -111 -44 -150 -3 -39 -1 -44 26 -59 16 -8
35 -26 41 -40 10 -21 17 -25 40 -20 15 3 40 1 54 -5 15 -5 29 -7 33 -4 7 7
-36 90 -65 125 -12 14 -24 36 -27 50 -3 14 -11 49 -18 78 -13 58 -24 65 -40
25z"/>
<path d="M14095 7312 c-22 -2 -44 -8 -50 -13 -15 -15 22 -39 59 -39 29 -1 30
-2 13 -15 -18 -13 -18 -14 2 -24 30 -17 66 -13 111 10 25 13 40 28 40 40 0 16
-8 19 -56 19 -33 0 -61 5 -68 13 -6 7 -28 11 -51 9z"/>
<path d="M12760 7025 c0 -8 5 -15 10 -15 6 0 10 7 10 15 0 8 -4 15 -10 15 -5
0 -10 -7 -10 -15z"/>
<path d="M14523 6955 c-13 -12 -23 -30 -23 -40 0 -15 6 -17 41 -12 52 7 71 23
47 41 -10 7 -18 18 -18 25 0 17 -23 11 -47 -14z"/>
<path d="M12710 6807 c0 -32 -23 -45 -45 -27 -10 9 -15 9 -15 1 0 -6 5 -11 10
-11 6 0 10 -13 10 -29 0 -17 -5 -29 -12 -28 -40 1 -56 -6 -66 -28 -16 -35 -15
-41 6 -23 21 18 68 38 89 38 21 0 93 58 93 75 0 8 -7 21 -17 30 -12 13 -13 19
-4 25 8 4 0 7 -18 6 -27 -1 -31 -5 -31 -29z"/>
<path d="M13800 6820 c0 -5 10 -10 23 -10 18 0 19 2 7 10 -19 13 -30 13 -30 0z"/>
<path d="M15384 6783 c-6 -5 -13 -16 -17 -25 -5 -13 -1 -18 13 -18 11 0 20 5
20 10 0 6 7 10 15 10 8 0 15 -4 15 -10 0 -5 6 -10 13 -10 7 0 13 9 13 20 0 11
-5 20 -11 20 -5 0 -19 3 -30 5 -11 3 -25 2 -31 -2z"/>
<path d="M11955 6460 c-9 -14 6 -63 26 -82 9 -9 20 -31 24 -48 4 -18 12 -30
18 -27 7 2 29 10 50 18 34 12 50 29 27 29 -6 0 -24 12 -41 28 -17 15 -36 27
-42 27 -7 0 -13 9 -15 20 -3 24 -38 50 -47 35z"/>
<path d="M12080 6280 c0 -5 5 -10 10 -10 6 0 10 5 10 10 0 6 -4 10 -10 10 -5
0 -10 -4 -10 -10z"/>
<path d="M11830 6111 c0 -6 5 -13 10 -16 6 -3 10 1 10 9 0 9 -4 16 -10 16 -5
0 -10 -4 -10 -9z"/>
<path d="M13310 5650 c0 -21 27 -40 58 -40 11 0 22 -9 25 -20 4 -16 14 -20 54
-20 26 0 84 -7 128 -15 102 -18 106 -18 99 0 -4 9 -35 30 -71 47 -59 28 -70
30 -131 25 -58 -6 -69 -4 -82 12 -8 10 -30 21 -47 24 -28 6 -33 4 -33 -13z"/>
<path d="M13175 4738 c-9 -6 -27 -8 -40 -6 -13 3 -29 1 -37 -3 -7 -4 -18 -3
-25 3 -9 7 -13 7 -13 -1 0 -15 56 -49 105 -63 22 -6 69 -19 105 -30 46 -14
129 -23 283 -33 l217 -13 53 -39 c103 -76 320 -198 370 -208 l32 -6 -41 38
c-23 21 -53 56 -67 78 -51 82 -103 130 -188 172 -76 38 -100 44 -254 67 -369
54 -467 62 -500 44z"/>
<path d="M12796 4598 c-10 -56 -17 -188 -11 -188 2 0 11 13 19 28 8 16 35 54
60 85 25 30 46 58 46 60 0 7 -87 57 -98 57 -5 0 -13 -19 -16 -42z"/>
<path d="M13045 4151 c-8 -14 130 -50 245 -65 204 -26 263 -30 258 -15 -8 23
-490 100 -503 80z"/>
<path d="M12806 4085 c-3 -9 0 -15 9 -15 8 0 15 7 15 15 0 8 -4 15 -9 15 -5 0
-11 -7 -15 -15z"/>
<path d="M13350 3716 c0 -7 63 -43 90 -51 22 -7 23 -6 11 9 -7 9 -21 16 -31
16 -10 0 -23 7 -30 15 -11 13 -40 21 -40 11z"/>
<path d="M13201 3214 c0 -11 3 -14 6 -6 3 7 2 16 -1 19 -3 4 -6 -2 -5 -13z"/>
<path d="M11265 12960 c-3 -5 -18 -10 -33 -10 -18 0 -23 -3 -14 -9 15 -9 83
10 76 21 -7 11 -22 10 -29 -2z"/>
<path d="M11043 12709 c-31 -12 -29 -22 9 -38 27 -12 37 -12 72 0 46 16 63 49
25 49 -12 0 -31 -8 -41 -17 -17 -15 -19 -15 -31 -1 -9 12 -18 14 -34 7z"/>
<path d="M11217 12613 c-16 -15 -5 -23 33 -23 29 0 40 4 40 15 0 10 -10 15
-33 15 -19 0 -37 -3 -40 -7z"/>
<path d="M11003 12458 c-37 -12 -53 -38 -23 -38 29 0 70 21 70 37 0 15 -3 15
-47 1z"/>
<path d="M10892 12398 c7 -19 38 -22 38 -4 0 10 -9 16 -21 16 -12 0 -19 -5
-17 -12z"/>
<path d="M8011 11253 c-64 -66 -151 -172 -151 -183 0 -5 -14 -25 -31 -45 -17
-19 -26 -35 -21 -35 6 0 44 42 86 93 41 50 101 120 132 155 65 72 52 85 -15
15z"/>
<path d="M8170 11219 c-11 -19 -10 -20 9 -9 22 11 29 30 11 30 -5 0 -14 -9
-20 -21z"/>
<path d="M8115 11153 c-16 -21 -33 -42 -39 -48 -6 -5 -26 -29 -45 -53 -33 -42
-36 -62 -8 -45 19 11 97 109 97 123 0 5 3 10 8 10 4 0 12 11 19 25 17 37 -1
30 -32 -12z"/>
<path d="M8036 11155 c-3 -8 -1 -15 4 -15 6 0 10 7 10 15 0 8 -2 15 -4 15 -2
0 -6 -7 -10 -15z"/>
<path d="M8000 11111 c-16 -30 -12 -36 10 -16 21 19 26 35 10 35 -5 0 -14 -9
-20 -19z"/>
<path d="M7950 11039 c0 -5 5 -7 10 -4 6 3 10 8 10 11 0 2 -4 4 -10 4 -5 0
-10 -5 -10 -11z"/>
<path d="M8341 10963 c0 -10 4 -27 8 -38 7 -15 9 -11 9 18 0 20 -4 37 -9 37
-5 0 -9 -8 -8 -17z"/>
<path d="M7927 10933 c-4 -3 -7 -11 -7 -17 0 -6 5 -5 12 2 6 6 9 14 7 17 -3 3
-9 2 -12 -2z"/>
<path d="M8300 10916 c0 -8 5 -18 10 -21 6 -3 10 3 10 14 0 12 -4 21 -10 21
-5 0 -10 -6 -10 -14z"/>
<path d="M7812 10808 c-12 -23 -20 -43 -18 -45 5 -6 47 68 44 78 -2 5 -13 -10
-26 -33z"/>
<path d="M7644 10758 l-19 -23 23 19 c21 18 27 26 19 26 -2 0 -12 -10 -23 -22z"/>
<path d="M7760 10725 c0 -8 5 -15 10 -15 6 0 10 7 10 15 0 8 -4 15 -10 15 -5
0 -10 -7 -10 -15z"/>
<path d="M7725 10644 c-9 -30 -15 -57 -13 -59 7 -7 48 75 48 96 0 37 -17 18
-35 -37z"/>
<path d="M8090 10668 c0 -19 2 -20 10 -8 13 19 13 30 0 30 -5 0 -10 -10 -10
-22z"/>
<path d="M8107 10468 c-3 -18 -1 -37 4 -42 5 -6 9 7 9 32 0 50 -6 54 -13 10z"/>
<path d="M7682 10460 c0 -14 2 -19 5 -12 2 6 2 18 0 25 -3 6 -5 1 -5 -13z"/>
<path d="M7667 10248 c-13 -157 -9 -304 8 -318 21 -17 26 -9 17 26 -5 16 -9
106 -11 199 -2 94 -4 171 -5 173 -2 1 -6 -35 -9 -80z"/>
<path d="M8365 10591 c-3 -5 -1 -12 5 -16 5 -3 10 1 10 9 0 18 -6 21 -15 7z"/>
<path d="M8366 10493 c-12 -12 -6 -33 9 -33 8 0 15 6 15 14 0 17 -14 28 -24
19z"/>
<path d="M8535 9990 c3 -5 8 -10 11 -10 2 0 4 5 4 10 0 6 -5 10 -11 10 -5 0
-7 -4 -4 -10z"/>
<path d="M8443 8815 c-15 -48 -17 -165 -3 -165 15 0 21 39 18 125 l-3 80 -12
-40z"/>
<path d="M8620 8632 c0 -21 28 -44 50 -40 29 4 39 28 11 28 -11 0 -23 5 -26
10 -7 12 -35 13 -35 2z"/>
<path d="M8530 8243 c0 -84 7 -101 35 -95 13 2 34 15 46 28 29 31 54 30 85 -1
14 -14 26 -25 28 -25 2 0 6 14 10 30 7 37 -18 70 -54 70 -14 1 -36 7 -50 15
-36 20 -47 18 -54 -10 -9 -36 -28 -31 -24 7 2 18 -2 33 -9 35 -10 3 -13 -11
-13 -54z"/>
<path d="M8271 8094 c0 -11 3 -14 6 -6 3 7 2 16 -1 19 -3 4 -6 -2 -5 -13z"/>
<path d="M8380 8033 c0 -5 5 -15 10 -23 8 -12 10 -11 10 8 0 12 -4 22 -10 22
-5 0 -10 -3 -10 -7z"/>
<path d="M8484 7907 c-3 -8 -4 -47 -2 -88 3 -68 5 -74 27 -79 13 -3 27 -13 30
-22 4 -12 10 -15 21 -8 12 8 11 14 -6 47 -12 21 -26 64 -33 95 -13 59 -27 80
-37 55z"/>
<path d="M8580 7701 c0 -29 22 -72 34 -68 6 2 23 0 38 -4 37 -10 48 22 21 60
-26 35 -93 43 -93 12z"/>
<path d="M7160 10538 c-18 -19 -26 -38 -17 -38 2 0 13 14 25 30 26 35 22 40
-8 8z"/>
<path d="M7236 10487 c-14 -19 -26 -37 -26 -40 0 -4 -27 -63 -61 -131 -37 -77
-59 -134 -57 -148 4 -22 5 -22 16 5 6 15 17 27 23 27 7 0 9 3 6 7 -4 3 2 20
12 37 10 17 28 61 41 98 12 37 26 70 31 73 5 4 9 13 9 21 0 8 10 28 22 44 12
16 19 32 16 36 -3 3 -18 -10 -32 -29z"/>
<path d="M7110 10459 c0 -5 5 -7 10 -4 6 3 10 8 10 11 0 2 -4 4 -10 4 -5 0
-10 -5 -10 -11z"/>
<path d="M6966 10243 c-6 -14 -5 -15 5 -6 7 7 10 15 7 18 -3 3 -9 -2 -12 -12z"/>
<path d="M6928 10198 c-23 -37 -38 -78 -29 -78 10 0 56 88 49 95 -3 3 -12 -5
-20 -17z"/>
<path d="M6646 10094 c-19 -11 -25 -19 -18 -26 12 -12 28 -4 42 23 13 23 13
22 -24 3z"/>
<path d="M6540 9953 c-99 -89 -115 -104 -125 -115 -5 -6 -31 -31 -57 -57 -42
-41 -48 -51 -48 -89 0 -23 5 -42 10 -42 6 0 10 10 10 23 0 27 11 44 30 49 19
4 40 24 40 37 0 5 6 16 13 23 7 7 18 22 25 33 11 19 11 19 11 -5 1 -14 -8 -36
-19 -50 -11 -14 -20 -28 -20 -32 0 -5 -9 -17 -20 -28 -11 -11 -20 -31 -20 -44
0 -14 -4 -28 -10 -31 -5 -3 -10 -11 -10 -17 0 -6 9 -3 20 7 11 10 20 22 20 27
0 14 43 103 52 106 4 2 8 8 8 14 0 6 11 26 25 44 14 18 25 36 25 40 0 4 6 15
14 23 18 21 88 131 83 131 -2 0 -28 -21 -57 -47z"/>
<path d="M6169 9793 c-13 -16 -12 -17 4 -4 9 7 17 15 17 17 0 8 -8 3 -21 -13z"/>
<path d="M6726 9685 c-9 -26 -7 -32 5 -12 6 10 9 21 6 23 -2 3 -7 -2 -11 -11z"/>
<path d="M6282 9640 c0 -14 2 -19 5 -12 2 6 2 18 0 25 -3 6 -5 1 -5 -13z"/>
<path d="M6702 9600 c0 -14 2 -19 5 -12 2 6 2 18 0 25 -3 6 -5 1 -5 -13z"/>
<path d="M6327 9583 c-11 -10 -8 -43 3 -43 6 0 10 4 10 9 0 5 3 16 6 25 6 16
-7 22 -19 9z"/>
<path d="M6676 9504 c-17 -67 -16 -92 2 -57 11 20 27 123 19 123 -2 0 -12 -30
-21 -66z"/>
<path d="M6296 9501 c-4 -7 -5 -15 -2 -18 9 -9 19 4 14 18 -4 11 -6 11 -12 0z"/>
<path d="M6260 9429 c-7 -24 -15 -48 -18 -53 -3 -5 0 -6 7 -2 19 12 43 78 32
89 -6 6 -14 -7 -21 -34z"/>
<path d="M6650 9394 c0 -8 5 -12 10 -9 6 3 10 10 10 16 0 5 -4 9 -10 9 -5 0
-10 -7 -10 -16z"/>
<path d="M6636 9354 c-9 -24 -7 -54 4 -54 6 0 10 16 10 35 0 38 -4 44 -14 19z"/>
<path d="M6177 9243 c-30 -62 -52 -113 -48 -113 9 0 41 34 41 43 0 4 16 41 36
82 20 41 34 80 31 87 -2 7 -29 -38 -60 -99z"/>
<path d="M5821 9283 c-1 -6 -4 -20 -7 -30 -5 -17 -5 -17 6 0 6 10 9 23 6 30
-3 9 -5 9 -5 0z"/>
<path d="M6518 9172 c-22 -4 -21 -1 -3 -45 24 -57 38 -57 29 -1 -3 27 -7 49
-8 50 0 0 -9 -1 -18 -4z"/>
<path d="M5520 8070 c0 -5 5 -10 10 -10 6 0 10 5 10 10 0 6 -4 10 -10 10 -5 0
-10 -4 -10 -10z"/>
<path d="M5415 7970 c3 -5 8 -10 11 -10 2 0 4 5 4 10 0 6 -5 10 -11 10 -5 0
-7 -4 -4 -10z"/>
<path d="M5510 7960 c-14 -11 -20 -20 -15 -19 13 0 50 28 44 33 -2 3 -15 -4
-29 -14z"/>
<path d="M5336 7857 c-16 -12 -16 -14 -3 -26 13 -10 17 -9 26 8 19 34 9 42
-23 18z"/>
<path d="M5310 7625 c-6 -8 -10 -19 -8 -24 1 -6 8 1 15 14 13 28 11 31 -7 10z"/>
<path d="M5508 7544 c-31 -16 -36 -32 -14 -40 22 -8 56 14 56 36 0 24 -6 24
-42 4z"/>
<path d="M5454 7455 c-10 -8 -14 -15 -6 -15 22 0 13 -38 -15 -59 -19 -14 -23
-20 -12 -21 19 0 39 -41 39 -80 0 -17 5 -30 10 -30 10 0 14 14 11 38 -1 7 9
22 23 33 31 24 33 39 6 39 -11 0 -20 -4 -20 -10 0 -5 -9 -10 -20 -10 -11 0
-20 6 -20 14 0 8 9 18 20 21 21 7 23 14 20 55 -3 35 -13 42 -36 25z"/>
<path d="M5520 7454 c0 -8 5 -12 10 -9 6 3 10 10 10 16 0 5 -4 9 -10 9 -5 0
-10 -7 -10 -16z"/>
<path d="M5380 7430 c0 -5 9 -10 21 -10 11 0 17 5 14 10 -3 6 -13 10 -21 10
-8 0 -14 -4 -14 -10z"/>
<path d="M5347 7403 c-4 -3 -7 -11 -7 -17 0 -6 5 -5 12 2 6 6 9 14 7 17 -3 3
-9 2 -12 -2z"/>
<path d="M5381 7335 c-32 -11 -33 -12 -10 -18 15 -4 29 -1 38 8 20 20 12 23
-28 10z"/>
<path d="M5457 7213 c-4 -3 -7 -17 -7 -31 0 -21 2 -22 15 -12 8 7 15 21 15 31
0 19 -11 25 -23 12z"/>
<path d="M7781 6354 c-6 -21 -8 -40 -5 -43 8 -9 33 24 36 48 5 40 -20 35 -31
-5z"/>
<path d="M7730 6360 c0 -11 2 -20 4 -20 2 0 6 9 9 20 3 11 1 20 -4 20 -5 0 -9
-9 -9 -20z"/>
<path d="M8003 6344 c-7 -18 11 -39 26 -30 17 11 13 46 -4 46 -9 0 -18 -7 -22
-16z"/>
<path d="M8116 6314 c-7 -18 0 -34 15 -34 5 0 9 11 9 25 0 28 -15 34 -24 9z"/>
<path d="M8557 6303 c-10 -9 -8 -33 2 -33 5 0 11 9 14 20 5 20 -3 26 -16 13z"/>
<path d="M7735 6290 c-8 -12 20 -24 35 -15 5 3 10 10 10 16 0 12 -37 12 -45
-1z"/>
<path d="M7652 6271 c-20 -12 -10 -46 13 -46 14 0 21 8 23 28 3 28 -10 35 -36
18z"/>
<path d="M8144 6249 c-3 -6 -1 -16 5 -22 8 -8 11 -5 11 11 0 24 -5 28 -16 11z"/>
<path d="M7577 6203 c-12 -11 -8 -23 8 -23 8 0 15 7 15 15 0 16 -12 20 -23 8z"/>
<path d="M7790 6184 c0 -8 5 -12 10 -9 6 3 10 10 10 16 0 5 -4 9 -10 9 -5 0
-10 -7 -10 -16z"/>
<path d="M7402 6170 c13 -20 28 -27 28 -12 0 10 -22 32 -32 32 -5 0 -3 -9 4
-20z"/>
<path d="M7685 6128 c-11 -36 -9 -68 5 -68 16 0 28 34 23 68 -3 17 -8 32 -12
32 -3 0 -11 -15 -16 -32z"/>
<path d="M7386 6098 c-2 -7 -9 -32 -15 -55 -7 -24 -16 -43 -21 -43 -6 0 -10
-9 -10 -20 0 -13 7 -20 19 -20 21 0 51 25 51 42 0 6 16 28 35 50 20 21 33 43
30 48 -9 15 -85 12 -89 -2z"/>
<path d="M7745 6089 c-4 -6 -5 -13 -2 -16 7 -7 27 6 27 18 0 12 -17 12 -25 -2z"/>
<path d="M7330 6071 c0 -6 5 -13 10 -16 6 -3 10 1 10 9 0 9 -4 16 -10 16 -5 0
-10 -4 -10 -9z"/>
<path d="M7707 6035 c-34 -31 -44 -31 -53 -3 l-6 21 -19 -24 c-10 -13 -19 -30
-19 -37 0 -8 -9 -12 -22 -10 -20 3 -23 -1 -22 -29 2 -32 -17 -46 -31 -23 -10
16 -23 3 -44 -45 -11 -25 -25 -45 -32 -45 -6 0 -8 -7 -5 -16 3 -9 4 -20 1 -25
-8 -12 -43 26 -47 52 -2 14 -13 26 -31 32 -24 8 -33 5 -53 -14 -14 -13 -24
-34 -24 -51 0 -33 -20 -37 -38 -8 -14 23 -37 26 -45 6 -11 -28 -19 -111 -9
-97 5 7 14 11 20 7 6 -3 15 2 21 11 14 25 13 5 -2 -37 -23 -66 -43 -79 -49
-32 l-4 27 -12 -28 c-6 -15 -23 -69 -36 -120 -13 -50 -49 -179 -80 -286 -55
-190 -60 -233 -22 -202 8 6 36 16 63 21 26 4 89 16 138 25 50 10 117 20 150
24 33 4 70 12 83 19 12 7 50 15 85 17 34 2 80 11 102 19 22 8 54 15 70 16 17
0 52 7 79 15 27 8 75 17 108 20 33 3 73 12 88 20 16 8 61 18 102 21 40 3 91
14 113 24 22 10 66 21 97 25 32 3 82 15 113 26 30 10 65 19 78 19 31 0 57 29
57 63 0 29 -26 37 -48 15 -19 -19 -35 5 -33 54 3 173 1 189 -24 155 -8 -11
-14 -14 -17 -7 -2 7 -15 0 -30 -15 -30 -29 -53 -25 -44 9 4 18 -1 23 -29 32
-19 6 -40 7 -47 3 -18 -12 -29 11 -22 49 4 19 1 38 -6 47 -18 22 -32 7 -25
-26 9 -39 -20 -103 -42 -95 -8 3 -32 9 -53 12 -31 5 -40 3 -49 -12 -26 -47
-28 -48 -46 -30 -16 15 -19 15 -41 1 -36 -23 -49 -18 -69 25 -14 30 -15 43 -6
53 9 11 8 17 -3 26 -11 9 -18 5 -36 -24 -22 -36 -60 -48 -60 -20 0 8 7 15 15
15 8 0 15 5 15 10 0 15 -31 12 -50 -5 -21 -19 -50 -9 -50 17 0 26 -22 18 -38
-15 -16 -33 -51 -46 -64 -23 -5 9 -15 16 -23 16 -15 0 -65 42 -65 55 0 4 13
33 29 64 24 48 27 63 21 108 -6 51 -6 51 24 57 22 5 34 2 43 -10 10 -14 14
-11 32 25 34 66 26 78 -22 36z m-129 -248 c2 -10 -4 -20 -13 -23 -21 -9 -28 0
-20 26 8 24 28 22 33 -3z m-305 -151 c8 -20 -6 -69 -21 -74 -13 -4 -15 11 -6
57 7 33 18 40 27 17z m822 -46 c3 -5 1 -10 -4 -10 -6 0 -11 5 -11 10 0 6 2 10
4 10 3 0 8 -4 11 -10z m-608 -72 c-6 -22 -42 -48 -67 -48 -18 0 -10 33 16 67
24 31 28 33 42 20 9 -10 12 -24 9 -39z m928 -8 c0 -7 -6 -15 -12 -17 -8 -3
-13 4 -13 17 0 13 5 20 13 18 6 -3 12 -11 12 -18z"/>
<path d="M7482 6020 c-12 -16 -22 -41 -22 -55 0 -28 15 -34 24 -9 5 13 9 14
20 5 11 -10 14 -3 14 39 0 27 -3 50 -7 50 -4 0 -17 -13 -29 -30z"/>
<path d="M7261 5954 c0 -11 3 -14 6 -6 3 7 2 16 -1 19 -3 4 -6 -2 -5 -13z"/>
<path d="M7692 5864 c-26 -18 -30 -65 -7 -84 21 -17 32 -5 40 41 9 50 -3 64
-33 43z"/>
<path d="M7866 5855 c-4 -11 -11 -27 -16 -36 -4 -9 -4 -22 1 -30 14 -24 31 5
27 47 -3 31 -5 35 -12 19z"/>
<path d="M8745 5860 c-3 -5 -1 -10 4 -10 6 0 11 5 11 10 0 6 -2 10 -4 10 -3 0
-8 -4 -11 -10z"/>
<path d="M8820 5825 c0 -9 6 -12 15 -9 8 4 15 10 15 15 0 5 -7 9 -15 9 -8 0
-15 -7 -15 -15z"/>
<path d="M8314 5755 c-3 -8 -3 -19 1 -25 11 -18 25 -11 25 15 0 27 -17 34 -26
10z"/>
<path d="M8588 5744 c-5 -4 -8 -19 -8 -33 0 -18 3 -22 11 -14 6 6 9 21 7 33
-1 12 -6 18 -10 14z"/>
<path d="M8384 5715 c-3 -14 -3 -33 0 -42 6 -15 9 -15 27 4 17 17 19 24 10 42
-15 28 -29 27 -37 -4z"/>
<path d="M8518 5668 c-3 -7 -2 -24 0 -37 5 -23 6 -24 13 -6 11 28 11 55 0 55
-5 0 -11 -5 -13 -12z"/>
<path d="M8910 5554 c0 -8 5 -12 10 -9 6 3 10 10 10 16 0 5 -4 9 -10 9 -5 0
-10 -7 -10 -16z"/>
<path d="M8842 5513 c2 -10 13 -19 26 -21 24 -4 29 7 10 26 -18 18 -40 15 -36
-5z"/>
<path d="M5432 7078 c6 -18 28 -21 28 -4 0 9 -7 16 -16 16 -9 0 -14 -5 -12
-12z"/>
<path d="M5430 6935 c-10 -13 -9 -15 9 -15 11 0 21 4 21 9 0 18 -18 21 -30 6z"/>
<path d="M5330 6860 c0 -5 7 -7 15 -4 8 4 15 8 15 10 0 2 -7 4 -15 4 -8 0 -15
-4 -15 -10z"/>
<path d="M5385 6838 c-22 -13 -42 -24 -44 -25 -2 -2 -2 -5 1 -8 9 -9 118 29
115 40 -6 18 -31 15 -72 -7z"/>
<path d="M5290 6773 c-13 -15 -12 -16 4 -10 10 4 20 7 22 7 2 0 4 5 4 10 0 15
-13 12 -30 -7z"/>
<path d="M5295 6720 c-3 -5 1 -10 9 -10 9 0 16 5 16 10 0 6 -4 10 -9 10 -6 0
-13 -4 -16 -10z"/>
<path d="M5378 6706 c-26 -19 -22 -26 7 -13 14 7 25 15 25 20 0 11 -13 8 -32
-7z"/>
<path d="M5168 6183 c7 -3 16 -2 19 1 4 3 -2 6 -13 5 -11 0 -14 -3 -6 -6z"/>
<path d="M5230 5860 c0 -5 5 -10 10 -10 6 0 10 5 10 10 0 6 -4 10 -10 10 -5 0
-10 -4 -10 -10z"/>
<path d="M5297 5844 c-15 -15 -6 -24 24 -24 20 0 29 4 27 13 -5 14 -40 21 -51
11z"/>
<path d="M4300 4750 c-8 -5 -12 -11 -9 -14 3 -3 14 1 25 9 21 16 8 20 -16 5z"/>
<path d="M5723 3450 c0 -25 2 -35 4 -22 2 12 2 32 0 45 -2 12 -4 2 -4 -23z"/>
<path d="M5670 3289 c0 -16 4 -28 9 -25 8 5 3 56 -5 56 -2 0 -4 -14 -4 -31z"/>
<path d="M5617 3303 c-4 -3 -7 -13 -7 -21 0 -12 3 -12 15 -2 8 7 15 16 15 21
0 11 -14 12 -23 2z"/>
<path d="M5642 3230 c0 -14 2 -19 5 -12 2 6 2 18 0 25 -3 6 -5 1 -5 -13z"/>
<path d="M5565 3210 c3 -5 8 -10 11 -10 2 0 4 5 4 10 0 6 -5 10 -11 10 -5 0
-7 -4 -4 -10z"/>
<path d="M5560 3181 c0 -5 7 -11 14 -14 10 -4 13 -1 9 9 -6 15 -23 19 -23 5z"/>
<path d="M9430 2480 c-13 -8 -13 -10 2 -10 9 0 20 5 23 10 8 13 -5 13 -25 0z"/>
<path d="M14950 470 c0 -5 7 -10 15 -10 8 0 15 5 15 10 0 6 -7 10 -15 10 -8 0
-15 -4 -15 -10z"/>
<path d="M13567 253 c-16 -16 -5 -57 23 -83 17 -15 30 -34 30 -40 0 -7 20 -35
45 -61 25 -26 45 -53 45 -59 0 -5 9 -10 20 -10 21 0 17 9 -86 200 -26 47 -60
71 -77 53z"/>
<path d="M12936 114 c-4 -12 -13 -14 -32 -10 -36 9 -56 -15 -52 -61 l3 -38
148 -3 c165 -3 168 -1 114 60 -30 34 -56 43 -73 25 -13 -13 -32 -7 -55 18 -28
29 -44 32 -53 9z"/>
</g>
</svg>
