<?xml version="1.0" standalone="no"?>
<!DOCTYPE svg PUBLIC "-//W3C//DTD SVG 20010904//EN"
 "http://www.w3.org/TR/2001/REC-SVG-20010904/DTD/svg10.dtd">
<svg version="1.0" xmlns="http://www.w3.org/2000/svg"
 width="1344.000000pt" height="1344.000000pt" viewBox="0 0 1344.000000 1344.000000"
 preserveAspectRatio="xMidYMid meet">
<metadata>
Created by potrace 1.14, written by Peter Selinger 2001-2017
</metadata>
<g transform="translate(0.000000,1344.000000) scale(0.100000,-0.100000)"
fill="#000000" stroke="none">
<path d="M0 6720 l0 -6720 4666 0 4665 0 -6 23 c-4 12 -24 51 -45 87 -69 119
-79 139 -110 212 -17 40 -46 105 -65 143 -18 39 -48 102 -65 140 -18 39 -57
124 -87 190 -63 139 -58 127 -111 270 -49 131 -63 201 -40 192 27 -10 30 6 6
24 -28 21 -25 25 30 34 38 6 42 5 42 -14 0 -12 -6 -21 -15 -21 -20 0 -19 -16
1 -24 30 -11 193 -8 228 5 31 11 38 11 55 -5 17 -15 22 -16 43 -4 13 7 34 14
48 16 152 17 226 10 305 -29 l41 -20 89 45 c50 25 102 46 117 46 25 0 27 2 18
25 -16 43 5 29 92 -61 93 -96 115 -111 131 -95 6 6 19 11 28 11 9 0 41 19 71
43 29 24 61 46 71 50 15 6 17 13 11 39 -8 36 -8 61 0 94 4 16 16 23 48 27 76
11 140 27 171 42 17 8 38 15 48 15 10 0 29 5 41 11 35 15 78 -4 78 -35 0 -35
27 -94 49 -106 26 -13 31 -13 31 5 0 8 -3 15 -8 15 -12 0 -33 40 -27 50 4 6
16 3 30 -7 33 -24 36 -102 5 -110 -21 -6 -27 -28 -10 -38 5 -3 9 -23 9 -43 -2
-74 3 -123 14 -119 12 4 15 9 51 90 17 37 34 61 50 66 13 5 49 39 81 75 32 36
93 101 135 145 73 73 78 82 85 132 10 83 52 204 87 254 18 25 35 45 40 45 4 0
15 9 25 19 10 11 31 21 48 23 24 2 31 9 35 33 5 26 7 23 14 -25 10 -67 10 -49
2 -355 -4 -137 -11 -279 -16 -313 -5 -35 -6 -70 -4 -77 3 -7 -3 -87 -13 -176
-20 -184 -20 -205 -10 -374 10 -154 14 -184 28 -201 6 -7 7 -19 3 -26 -8 -12
-12 -55 -17 -169 -1 -31 -8 -63 -15 -71 -7 -9 -10 -22 -7 -30 4 -9 -3 -31 -14
-51 -11 -19 -21 -50 -23 -69 -2 -21 -8 -33 -18 -33 -14 0 -40 -18 -40 -28 0
-2 25 -5 55 -6 43 -1 55 2 55 14 0 9 9 15 25 15 26 0 34 -15 13 -23 -7 -3 -3
-6 9 -6 12 -1 24 5 26 12 4 9 6 9 6 0 1 -8 17 -13 44 -13 46 0 40 -6 83 95 10
22 21 66 25 99 4 32 11 61 17 65 13 9 25 81 13 81 -5 0 -12 -10 -15 -22 -2
-13 -4 5 -2 40 2 41 7 67 16 72 15 9 14 12 -20 151 -6 26 -20 56 -31 67 -20
22 -26 67 -10 77 5 3 11 -5 13 -17 3 -13 5 10 5 50 1 40 -3 87 -8 104 -5 21
-5 36 2 44 6 7 8 18 4 24 -9 15 -18 97 -10 88 10 -9 42 -139 66 -262 26 -141
82 -324 120 -395 16 -31 29 -60 29 -65 0 -5 13 -30 28 -55 39 -63 54 -109 39
-118 -6 -3 -13 -1 -15 5 -2 7 -11 12 -19 12 -10 0 -13 -6 -9 -16 3 -9 6 -18 6
-20 0 -3 5 -2 10 1 15 9 11 -6 -10 -40 -11 -16 -24 -38 -30 -47 -10 -17 33
-18 850 -18 l860 0 0 6720 0 6720 -6720 0 -6720 0 0 -6720z m7411 5140 c10 0
25 -10 33 -22 9 -12 16 -17 16 -11 0 13 37 12 98 -2 59 -14 30 -30 -56 -31
-52 -1 -93 -7 -115 -18 -20 -9 -42 -13 -51 -10 -11 4 -16 1 -16 -11 0 -11 -6
-15 -17 -12 -54 15 -75 16 -93 7 -14 -7 -20 -7 -20 0 0 5 -7 10 -15 10 -8 0
-15 -4 -15 -10 0 -5 -4 -10 -10 -10 -18 0 -10 32 9 37 13 3 22 17 26 44 4 21
11 42 17 45 25 16 124 20 157 7 18 -7 42 -13 52 -13z m284 -80 c3 -5 1 -10 -4
-10 -6 0 -11 5 -11 10 0 6 2 10 4 10 3 0 8 -4 11 -10z m89 -21 c22 -6 50 -15
61 -20 22 -9 163 -49 265 -74 36 -9 85 -18 110 -19 25 -2 59 -3 76 -4 27 -2
34 -8 48 -42 9 -22 16 -49 16 -60 0 -11 5 -20 10 -20 6 0 10 -8 10 -17 0 -10
7 -51 17 -91 12 -51 14 -78 7 -90 -5 -9 -7 -30 -4 -47 l7 -30 10 24 c6 15 12
20 17 13 7 -12 -13 -52 -27 -52 -5 0 -6 -13 -2 -28 7 -33 -10 -52 -49 -56 -14
-2 -35 -15 -47 -29 -16 -22 -23 -24 -33 -14 -10 9 -11 14 -2 19 7 5 5 8 -6 8
-10 0 -18 -6 -18 -14 0 -8 -4 -16 -10 -18 -24 -8 -9 -135 20 -166 10 -11 20
-37 22 -58 l4 -39 13 30 c11 23 15 26 18 12 3 -9 -1 -32 -7 -51 -6 -19 -8 -46
-4 -61 5 -21 4 -27 -7 -23 -8 3 -16 15 -17 29 -2 13 -11 32 -20 42 -10 12 -16
35 -16 60 l1 42 -12 -35 -12 -35 -11 30 c-12 30 -12 30 -8 -9 3 -25 0 -43 -9
-52 -20 -20 -21 -18 -18 24 2 32 1 33 -6 12 -9 -25 -9 -25 -11 5 -2 20 -6 9
-12 -30 -5 -33 -7 -70 -5 -82 5 -26 5 -25 -17 -17 -9 3 -16 13 -16 20 0 8 -7
17 -15 20 -8 4 -15 19 -15 34 0 42 -14 44 -33 6 -17 -37 -12 -56 9 -28 12 16
13 15 14 -5 0 -12 -5 -25 -10 -28 -7 -4 -7 -12 0 -25 13 -24 13 -70 0 -70 -5
0 -10 14 -10 30 0 17 -5 30 -11 30 -7 0 -9 -10 -7 -25 3 -14 1 -28 -3 -31 -8
-5 -13 10 -10 30 1 4 -3 14 -10 22 -6 8 -8 25 -5 39 6 23 5 24 -12 10 -15 -13
-17 -30 -16 -97 1 -72 0 -80 -12 -63 -14 18 -14 18 -15 -1 0 -18 -1 -18 -12
-1 -30 46 -47 61 -59 49 -8 -8 -8 -15 2 -27 11 -13 9 -15 -14 -15 -14 0 -26 4
-26 10 0 11 -32 1 -42 -14 -5 -8 -17 -7 -38 1 -17 7 -38 9 -46 6 -9 -3 -14 2
-14 14 0 11 -6 33 -14 49 -21 42 -30 84 -18 84 6 0 8 9 5 20 -3 11 -10 20 -15
20 -6 0 -8 12 -5 27 4 21 -1 34 -21 52 -15 14 -30 25 -34 23 -4 -1 -5 4 -3 11
5 13 -7 21 -87 58 -27 12 -48 26 -48 30 0 5 -9 9 -19 9 -11 0 -22 4 -26 9 -3
5 -30 17 -60 26 -46 13 -63 14 -98 4 -26 -8 -35 -14 -24 -16 9 -3 17 -9 17
-14 0 -5 6 -9 14 -9 15 0 66 -55 66 -72 0 -5 -13 -27 -30 -48 -26 -33 -37 -38
-97 -48 -37 -6 -85 -10 -105 -8 -24 3 -38 0 -38 -7 0 -6 -7 -2 -15 10 -13 18
-22 21 -48 16 -39 -7 -104 -39 -109 -53 -2 -6 -18 0 -38 13 -30 21 -34 30 -36
70 -2 35 1 47 12 47 8 0 14 10 14 26 0 14 -4 23 -10 19 -5 -3 -10 -3 -10 0 0
8 60 95 77 113 8 8 20 27 28 43 11 20 20 26 32 22 12 -5 15 -2 10 10 -4 12 5
25 30 44 19 16 43 37 52 47 34 41 78 86 84 86 3 0 16 -11 29 -24 15 -17 36
-26 63 -28 30 -2 42 -9 50 -25 5 -13 16 -23 23 -23 7 0 16 -10 21 -23 24 -61
138 -67 242 -11 14 7 29 11 31 8 3 -3 14 6 25 19 10 13 43 38 73 55 44 25 51
32 36 38 -16 6 -17 8 -2 16 21 12 20 38 -1 40 -10 1 -25 2 -33 4 -8 1 -25 2
-37 3 -15 1 -23 7 -23 20 0 15 6 18 33 14 78 -10 100 -10 142 0 26 6 45 16 45
24 0 7 6 22 12 33 10 15 10 22 0 32 -6 6 -12 20 -12 29 0 10 -6 19 -12 22 -23
8 2 21 42 22 22 0 40 1 40 1 0 5 -164 165 -182 177 -28 19 -11 21 46 6z m-504
-23 c0 -2 -11 -6 -25 -8 -14 -3 -25 -1 -25 3 0 5 11 9 25 9 14 0 25 -2 25 -4z
m570 -136 c0 -5 -2 -10 -4 -10 -3 0 -8 5 -11 10 -3 6 -1 10 4 10 6 0 11 -4 11
-10z m1463 -41 c77 -40 107 -95 113 -205 4 -86 -16 -178 -56 -260 -17 -34 -30
-67 -30 -73 0 -6 -4 -11 -10 -11 -6 0 -9 -3 -9 -7 3 -15 -23 -73 -32 -73 -5 0
-9 -7 -9 -15 0 -8 -4 -15 -10 -15 -5 0 -10 -4 -10 -10 0 -12 -92 -112 -98
-106 -2 3 -39 -17 -83 -44 -93 -58 -168 -78 -222 -61 -20 7 -39 16 -41 20 -3
3 -8 33 -11 65 -7 58 -7 59 16 52 85 -26 111 -25 182 3 30 12 37 41 10 41 -10
0 -36 -9 -58 -19 -22 -10 -50 -17 -62 -16 -26 2 -53 23 -53 42 0 7 -8 17 -17
20 -28 10 -33 24 -33 91 0 61 -12 82 -25 42 -3 -11 -13 -20 -21 -20 -9 0 -15
-12 -16 -32 l-1 -33 -4 33 c-3 20 -10 32 -20 32 -9 0 -13 6 -10 14 3 8 3 17
-1 20 -3 4 -7 37 -9 74 -2 37 -4 87 -6 111 -2 40 1 45 29 60 17 9 41 30 52 47
15 23 30 33 59 37 21 3 53 9 71 13 l34 7 -49 -54 c-76 -84 -91 -99 -103 -99
-5 0 -10 -6 -10 -14 0 -8 -5 -16 -12 -18 -6 -2 -12 -23 -12 -46 -1 -45 8 -56
17 -21 3 12 10 18 15 15 6 -3 24 2 40 11 24 14 35 15 55 6 22 -10 25 -17 23
-65 -1 -29 -10 -70 -19 -91 -30 -68 -31 -103 -7 -127 27 -27 38 -18 42 35 2
22 7 46 11 52 8 13 57 8 89 -8 23 -12 31 15 15 49 -25 51 1 92 58 92 48 0 88
-41 83 -85 -5 -41 0 -43 28 -12 29 31 43 60 46 94 2 34 -20 94 -39 106 -7 4
-13 15 -13 22 0 8 -9 15 -19 15 -11 0 -23 5 -26 10 -3 6 -29 10 -56 10 -35 0
-51 4 -55 15 -8 20 13 45 37 45 10 0 35 21 55 46 48 59 74 69 119 47 32 -15
36 -15 69 2 29 16 37 17 50 6 21 -17 20 -35 -1 -68 -17 -26 -17 -27 0 -20 11
4 20 1 23 -8 4 -8 11 -15 16 -15 7 0 9 22 5 63 -8 86 -10 93 -35 127 -32 42
-87 41 -206 -5 -141 -55 -176 -76 -176 -106 0 -19 -13 -1 -17 23 -4 25 22 55
90 105 87 64 185 80 260 42z m-1658 -24 c39 -18 22 -18 -40 -1 -41 12 -44 14
-20 15 17 0 44 -6 60 -14z m-22 -37 c15 -6 26 -13 23 -15 -6 -6 -89 18 -101
29 -11 11 35 2 78 -14z m807 -294 c0 -8 -4 -12 -10 -9 -5 3 -10 10 -10 16 0 5
5 9 10 9 6 0 10 -7 10 -16z m-187 -129 c-3 -9 -8 -14 -10 -11 -3 3 -2 9 2 15
9 16 15 13 8 -4z m54 -47 c-3 -7 -5 -2 -5 12 0 14 2 19 5 13 2 -7 2 -19 0 -25z
m33 -80 c-4 -49 -5 -50 -8 -14 -3 34 2 66 10 66 2 0 1 -24 -2 -52z m47 -15
c-3 -10 -5 -4 -5 12 0 17 2 24 5 18 2 -7 2 -21 0 -30z m-79 7 c10 -17 10 -20
-3 -20 -8 0 -19 9 -25 20 -8 15 -8 20 2 20 7 0 19 -9 26 -20z m66 -72 c-12
-18 -20 3 -15 39 l4 38 8 -35 c4 -19 5 -38 3 -42z m-42 -40 c-7 -7 -12 -8 -12
-2 0 14 12 26 19 19 2 -3 -1 -11 -7 -17z m-947 -75 c5 -23 10 -31 12 -20 6 24
20 21 27 -5 10 -40 8 -52 -8 -39 -12 10 -15 8 -19 -11 l-4 -23 -8 23 c-9 26
-25 30 -25 5 0 -13 -3 -14 -12 -5 -10 10 -15 7 -25 -10 -12 -23 -12 -23 -13 6
0 25 -3 27 -25 22 -35 -9 -31 4 17 62 49 58 71 57 83 -5z m808 12 c-7 -21 -13
-19 -13 6 0 11 4 18 10 14 5 -3 7 -12 3 -20z m557 -155 c0 -5 -4 -10 -10 -10
-5 0 -10 5 -10 10 0 6 5 10 10 10 6 0 10 -4 10 -10z m-1409 -19 c7 11 11 12
18 1 4 -8 10 -12 12 -11 2 2 14 -4 27 -13 22 -15 15 -37 -7 -24 -5 3 -39 7
-75 8 -36 1 -66 5 -66 9 0 16 55 36 68 25 10 -7 16 -5 23 5z m94 -166 c32 -31
31 -38 -7 -80 -36 -40 -51 -43 -72 -14 l-14 21 -35 -26 c-18 -14 -39 -26 -45
-26 -7 0 -24 -14 -39 -30 -14 -17 -44 -35 -65 -40 -21 -6 -38 -15 -38 -20 0
-21 -38 -9 -44 13 -15 55 0 102 29 91 7 -3 15 6 19 21 4 14 15 34 26 45 17 17
24 18 41 10 17 -9 23 -7 39 13 27 33 57 40 80 17 18 -18 19 -18 35 6 20 31 59
31 90 -1z m85 -30 c0 -13 -8 -29 -17 -35 -15 -9 -14 -11 10 -7 19 3 30 0 34
-10 3 -8 12 -12 20 -9 8 3 11 2 8 -3 -3 -6 2 -14 10 -18 14 -8 18 -27 24 -121
1 -7 5 -11 9 -8 5 3 7 18 4 34 -2 16 1 33 7 36 6 4 11 0 12 -11 0 -14 3 -12
12 7 l11 25 4 -28 c3 -27 6 -29 38 -22 33 6 34 5 32 -25 -3 -34 -6 -37 -23
-13 -17 22 -35 8 -35 -28 0 -18 -4 -28 -10 -24 -5 3 -10 22 -10 41 0 19 -5 34
-11 34 -8 0 -10 -16 -6 -50 4 -35 3 -49 -5 -44 -6 4 -8 -1 -3 -15 8 -26 -2
-27 -28 -4 -18 17 -19 17 -33 -1 -22 -30 -27 -17 -33 77 -1 9 -5 17 -9 17 -5
0 -5 -21 -1 -47 6 -37 4 -51 -8 -60 -11 -9 -13 -23 -8 -67 6 -47 5 -56 -8 -56
-12 0 -15 10 -14 43 1 29 -2 41 -10 40 -18 -4 -16 14 2 21 8 3 15 17 15 31 0
14 5 25 10 25 6 0 10 5 10 10 0 7 -6 7 -20 0 -11 -6 -20 -20 -20 -30 0 -11 -6
-20 -14 -20 -19 0 -28 -30 -25 -78 2 -28 -3 -44 -19 -60 -12 -12 -22 -29 -22
-38 0 -13 -3 -14 -14 -5 -8 7 -12 21 -9 31 3 11 0 20 -6 20 -6 0 -11 -7 -11
-15 0 -8 -4 -15 -10 -15 -5 0 -10 -10 -10 -21 0 -18 -2 -19 -15 -9 -13 10 -19
9 -36 -6 -19 -17 -20 -17 -26 4 -4 18 -8 20 -25 11 -11 -6 -22 -8 -25 -5 -8 8
7 26 23 26 8 0 13 5 12 11 -2 6 14 20 34 31 20 11 40 28 43 39 7 20 25 27 25
9 0 -5 5 -10 10 -10 6 0 10 11 10 24 0 14 5 28 10 31 6 3 10 -3 10 -14 0 -12
5 -21 10 -21 6 0 10 7 10 15 0 8 5 15 10 15 12 0 1 53 -12 58 -4 2 -8 13 -8
24 0 26 -24 18 -28 -10 -3 -21 -3 -21 -30 3 -15 14 -35 25 -44 25 -10 0 -18 5
-18 10 0 6 -6 10 -14 10 -9 0 -13 10 -12 25 0 15 6 23 13 21 7 -3 10 1 7 8 -3
8 6 18 23 25 15 6 62 30 103 53 71 41 75 45 72 75 -3 26 0 32 12 27 9 -3 16
-1 16 5 0 6 5 11 10 11 6 0 10 -11 10 -25z m-270 -159 c0 -3 -4 -8 -10 -11 -5
-3 -10 -1 -10 4 0 6 5 11 10 11 6 0 10 -2 10 -4z m1636 -22 c17 7 18 -6 2 -22
-9 -9 -6 -12 15 -12 17 0 27 5 27 15 0 8 7 15 16 15 14 0 14 -3 4 -15 -9 -11
-10 -15 -1 -15 8 0 11 -11 9 -27 -2 -23 1 -29 20 -31 17 -3 22 2 22 17 0 12 7
21 15 21 9 0 12 -6 9 -15 -3 -8 1 -22 10 -30 10 -11 16 -34 16 -64 0 -46 -1
-48 -26 -43 -21 4 -24 9 -20 28 7 27 -1 30 -26 10 -19 -14 -24 -46 -8 -46 6 0
10 -7 10 -15 0 -18 -17 -20 -22 -4 -2 7 -13 9 -25 5 -20 -6 -20 -9 -8 -34 13
-23 12 -28 -2 -44 -15 -17 -14 -18 11 -18 19 0 26 5 24 16 -2 10 3 19 10 21
17 7 -4 -48 -25 -64 -16 -12 -16 -13 0 -13 9 0 17 -4 17 -10 0 -5 -4 -10 -10
-10 -5 0 -9 -6 -7 -12 1 -7 -8 -13 -20 -13 -37 0 -35 -12 4 -20 32 -6 35 -9
22 -18 -9 -7 -14 -18 -12 -24 3 -7 0 -13 -6 -13 -6 0 -8 -6 -5 -13 3 -8 -2
-20 -10 -27 -13 -10 -17 -9 -22 4 -3 9 -10 13 -15 10 -14 -8 -10 -24 6 -24 8
0 15 -4 15 -10 0 -9 49 7 60 21 10 11 40 18 40 9 0 -6 -16 -18 -35 -27 -19 -9
-32 -19 -30 -23 6 -10 -46 -32 -54 -24 -3 4 0 9 7 12 10 3 8 7 -6 16 -11 6
-29 17 -40 23 -17 11 -23 10 -36 -3 -9 -8 -16 -21 -16 -27 0 -7 4 -6 10 3 7
12 12 12 22 2 6 -6 20 -12 30 -12 27 0 22 -18 -12 -35 -36 -19 -41 -19 -33 0
3 9 2 15 -3 14 -20 -3 -54 14 -54 27 0 8 4 14 9 14 6 0 22 11 37 25 15 14 23
25 19 25 -4 0 4 11 20 26 38 35 23 42 -25 10 -38 -25 -60 -32 -60 -20 0 9 23
30 48 43 18 9 21 16 13 25 -8 10 -7 17 3 25 11 10 15 8 18 -6 4 -14 7 -12 19
12 7 17 18 33 24 37 5 4 -2 8 -17 8 -18 0 -28 -5 -28 -15 0 -8 -4 -15 -10 -15
-5 0 -10 9 -10 20 0 11 5 20 10 20 17 0 11 18 -7 23 -17 4 -16 5 1 12 13 6 23
3 31 -8 13 -19 35 -23 35 -7 0 6 -5 10 -12 10 -7 0 -6 5 4 13 19 15 31 47 18
47 -6 0 -10 -6 -10 -14 0 -17 -22 -26 -58 -26 -26 1 -26 1 6 15 33 15 36 35 4
35 -16 1 -16 2 1 14 20 15 23 46 5 46 -9 0 -9 3 1 9 8 5 11 16 8 25 -4 10 2
25 13 36 20 20 20 20 20 -10 0 -26 4 -30 26 -30 14 0 23 4 19 10 -3 6 -13 10
-22 10 -13 0 -13 3 -3 15 7 9 8 15 2 15 -5 0 -13 11 -16 25 -4 14 -11 25 -16
25 -6 0 -9 17 -9 38 1 20 3 29 6 19 3 -11 11 -16 19 -13z m-1179 -96 c-3 -8
-6 -5 -6 6 -1 11 2 17 5 13 3 -3 4 -12 1 -19z m1333 -153 c0 -9 -6 -12 -16 -8
-13 5 -13 7 -2 14 17 11 18 11 18 -6z m-11 -77 c-6 -23 -7 -48 -4 -56 4 -12 2
-12 -8 -4 -8 7 -17 9 -20 5 -4 -3 -7 4 -7 16 0 12 4 20 9 17 10 -7 21 17 21
45 0 10 4 19 9 19 5 0 5 -18 0 -42z m11 -109 c0 -16 -4 -28 -9 -25 -5 4 -8 14
-6 24 2 9 4 20 4 25 1 4 3 7 6 7 3 0 5 -14 5 -31z m435 -77 c45 -28 67 -51
101 -103 12 -20 50 -69 83 -109 70 -83 118 -164 142 -234 8 -28 22 -53 30 -57
8 -4 43 -22 78 -39 35 -17 100 -60 145 -94 44 -34 97 -68 116 -76 19 -8 74
-44 122 -80 87 -66 214 -149 278 -184 64 -33 388 -256 480 -330 36 -28 83 -65
105 -81 22 -16 85 -75 140 -131 55 -56 159 -153 230 -216 72 -63 154 -142 184
-174 30 -33 88 -96 130 -142 42 -46 119 -127 172 -180 116 -116 125 -130 150
-224 44 -161 48 -206 16 -180 -14 12 -105 10 -143 -3 -12 -3 -38 -32 -58 -64
-34 -52 -40 -57 -67 -53 -20 3 -28 9 -25 18 8 20 -9 22 -149 17 -110 -4 -197
-16 -277 -39 -26 -8 -31 -35 -8 -51 11 -8 20 -25 20 -38 0 -16 13 -35 40 -56
22 -18 40 -41 40 -52 0 -10 8 -21 18 -24 10 -2 26 -17 37 -34 11 -16 26 -29
33 -29 7 0 17 -10 22 -22 13 -31 50 -73 78 -87 12 -6 22 -17 22 -24 0 -12 68
-77 82 -77 4 0 8 -6 8 -14 0 -8 16 -20 35 -27 40 -15 42 -25 18 -67 -17 -30
-18 -30 -88 -26 -38 3 -97 4 -130 4 -69 -1 -78 -8 -145 -124 -27 -47 -40 -80
-40 -107 0 -62 -5 -68 -61 -63 -43 4 -54 1 -81 -21 -19 -16 -40 -25 -55 -23
-16 2 -30 -6 -46 -25 -24 -30 -141 -83 -262 -118 -112 -33 -117 -37 -45 -38
36 0 86 -4 113 -9 29 -6 65 -6 93 0 25 6 48 7 52 4 3 -4 2 -28 -4 -54 -5 -26
-8 -57 -6 -69 3 -22 4 -22 35 -6 38 19 129 27 183 15 l39 -9 -30 -12 c-16 -7
-66 -28 -110 -47 -44 -19 -90 -39 -102 -44 -16 -7 -23 -19 -24 -40 -1 -16 -2
-36 -3 -42 -1 -7 9 -14 22 -16 17 -3 20 -6 10 -16 -7 -7 -21 -15 -30 -19 -12
-4 -18 -17 -18 -36 0 -28 1 -29 38 -21 65 15 224 40 316 51 49 5 93 12 98 15
12 7 58 -4 58 -14 0 -4 -13 -16 -29 -26 -22 -15 -27 -24 -22 -43 3 -12 10 -22
15 -22 5 0 12 -4 15 -9 3 -6 24 -12 46 -13 37 -4 40 -2 46 29 9 46 24 59 45
41 28 -23 43 -69 32 -100 -8 -24 -58 -59 -85 -59 -4 0 -21 -7 -38 -16 -16 -9
-68 -34 -114 -55 -107 -48 -114 -63 -103 -225 7 -95 12 -118 36 -159 16 -26
41 -55 57 -64 32 -17 48 -56 31 -73 -18 -18 -68 44 -116 143 -24 49 -46 86
-50 82 -3 -3 -6 1 -6 9 0 11 -16 17 -59 22 -64 7 -96 -4 -107 -36 -7 -23 -25
-32 -109 -53 -38 -9 -91 -29 -117 -44 -48 -27 -48 -28 -28 -46 11 -10 20 -15
20 -10 0 4 11 0 25 -9 21 -14 31 -14 76 -4 41 10 53 10 57 0 2 -7 18 -12 37
-12 36 0 62 -23 57 -52 -2 -12 5 -21 23 -28 21 -8 26 -16 23 -37 -2 -21 -10
-29 -35 -35 -43 -11 -50 -25 -19 -40 31 -14 33 -33 6 -48 -11 -6 -20 -15 -20
-21 0 -6 4 -8 9 -5 16 10 19 -18 4 -40 -11 -18 -11 -25 2 -51 24 -48 40 -58
67 -39 29 21 68 21 68 1 0 -9 -10 -29 -22 -46 l-22 -29 27 -56 c16 -31 26 -58
23 -61 -2 -3 -21 15 -42 39 -51 58 -167 168 -178 168 -8 0 -37 23 -123 99 -24
20 -61 47 -83 60 l-40 22 0 -35 c0 -57 -29 -72 -160 -80 -138 -8 -310 -46
-310 -67 0 -4 -14 -10 -31 -14 -17 -4 -33 -13 -36 -22 -3 -8 -11 -12 -18 -10
-6 3 -17 -4 -23 -14 -7 -10 -17 -19 -22 -19 -5 0 -32 -14 -60 -31 -27 -17 -54
-28 -59 -24 -6 3 -15 -4 -21 -15 -8 -16 -8 -22 3 -26 14 -5 166 25 282 57 84
23 109 24 129 4 8 -8 25 -19 38 -24 42 -16 151 -23 180 -12 23 8 30 7 40 -8 9
-13 31 -20 78 -24 36 -3 93 -17 127 -32 81 -33 163 -48 196 -36 50 19 43 -17
-9 -49 -20 -11 -50 -20 -68 -20 -66 0 -156 -46 -156 -80 0 -5 14 -10 30 -10
23 0 30 -5 30 -19 0 -11 9 -21 23 -25 38 -10 172 -7 207 5 25 9 34 9 40 -2 7
-10 12 -10 23 -1 35 29 28 -50 -13 -161 -30 -81 -32 -82 -151 -62 -140 24
-196 6 -214 -67 -6 -23 -4 -28 11 -28 23 0 87 -58 134 -120 18 -25 58 -75 87
-111 29 -36 53 -69 53 -73 0 -18 -31 1 -85 50 -33 31 -97 82 -142 114 -68 49
-91 60 -135 65 -55 6 -118 22 -223 56 -33 10 -79 21 -101 23 -22 1 -49 7 -59
13 -29 14 -172 46 -186 41 -7 -2 17 -15 52 -27 35 -13 86 -35 113 -48 33 -17
51 -21 56 -14 8 14 77 -8 118 -37 15 -11 51 -27 80 -36 67 -22 96 -46 215
-175 41 -45 57 -70 57 -90 0 -16 12 -59 26 -97 23 -63 24 -70 10 -98 -8 -17
-18 -44 -21 -60 -5 -23 -8 -27 -16 -15 -5 7 -9 28 -9 44 -1 68 -62 181 -142
266 -10 11 -18 21 -18 24 0 17 -84 90 -149 129 -17 11 -9 -4 29 -54 24 -31
150 -246 150 -256 0 -4 84 -131 98 -149 12 -15 32 -75 32 -97 0 -27 -26 -33
-58 -12 -15 11 -40 21 -57 24 -21 3 -30 11 -30 23 0 10 -9 23 -20 30 -35 19
-46 36 -43 64 2 19 -2 28 -14 31 -24 5 -31 -29 -12 -73 26 -62 1 -64 -34 -2
-17 30 -38 57 -46 60 -14 6 -15 0 -9 -35 3 -23 12 -53 20 -67 22 -44 15 -55
-18 -27 -17 14 -34 26 -39 26 -5 0 -15 3 -24 6 -13 5 -16 -1 -16 -27 -1 -31
-4 -28 -43 47 -55 104 -144 228 -212 293 -56 54 -99 72 -50 21 22 -23 26 -33
17 -42 -7 -7 -12 -22 -12 -35 0 -13 -6 -23 -14 -23 -15 0 -31 17 -31 34 0 5
-5 11 -11 13 -7 2 -10 -14 -8 -46 2 -42 -1 -51 -17 -56 -11 -4 -26 -1 -34 5
-13 11 -15 4 -15 -45 l0 -57 -29 5 c-25 5 -31 2 -41 -24 -9 -21 -15 -27 -21
-17 -13 20 -21 3 -24 -49 -3 -48 -3 -48 -41 -51 -21 -2 -49 -12 -62 -23 -14
-10 -33 -19 -43 -19 -10 0 -20 -4 -24 -9 -8 -13 -118 -67 -129 -63 -5 2 -19
-7 -32 -19 -12 -11 -27 -18 -33 -15 -6 4 -23 0 -39 -8 -16 -8 -39 -12 -51 -9
-17 4 -24 1 -28 -16 -3 -12 -16 -24 -32 -27 -14 -3 -33 -8 -41 -12 -8 -3 -35
-7 -60 -9 -115 -8 -269 -35 -336 -60 -37 -13 -45 -13 -72 1 -16 8 -32 13 -35
10 -3 -3 -27 -8 -54 -11 -26 -3 -57 -10 -68 -16 -27 -15 -192 -14 -207 1 -7 7
-16 8 -22 3 -20 -15 -74 -21 -79 -8 -6 18 -90 -7 -132 -39 -18 -14 -50 -28
-72 -31 -21 -3 -56 -14 -77 -24 -22 -11 -62 -19 -90 -19 -76 -1 -254 -26 -269
-39 -16 -12 -26 5 -48 79 -7 25 -26 72 -41 105 -21 45 -28 75 -28 120 0 55 -3
63 -30 87 -34 30 -41 74 -12 81 9 3 51 13 92 22 41 10 116 29 165 42 50 14
130 33 180 42 l89 17 11 79 c6 44 9 115 7 157 -6 95 10 143 42 133 12 -4 42
-10 69 -14 60 -9 72 -21 70 -72 -3 -55 -32 -86 -90 -95 -39 -6 -47 -11 -59
-40 -19 -45 -8 -150 18 -176 35 -35 101 -56 166 -54 72 2 94 18 127 91 l22 50
-49 53 c-53 60 -61 98 -33 164 22 54 50 61 180 44 133 -18 137 -19 158 -55 38
-64 16 -101 -75 -125 -109 -28 -123 -44 -109 -120 9 -47 18 -63 53 -96 73 -68
200 -96 278 -62 39 17 47 26 64 71 22 63 17 88 -30 138 -47 50 -58 79 -43 114
19 48 47 58 133 52 65 -5 79 -3 96 12 29 26 64 85 65 110 2 35 71 251 94 295
5 9 14 43 21 75 6 33 16 80 21 105 5 25 20 70 33 100 37 84 48 131 51 206 1
38 8 87 14 109 7 22 13 49 13 60 -1 25 17 94 29 117 5 9 12 36 15 60 8 49 30
98 44 98 25 0 42 -52 45 -134 1 -46 5 -88 9 -94 4 -7 20 3 40 26 68 76 70 101
20 207 -58 122 -68 183 -66 398 2 188 8 227 38 227 8 0 20 14 25 30 6 17 16
30 21 30 6 0 8 12 5 26 -3 20 1 27 20 35 37 14 38 34 3 83 -27 37 -31 51 -26
79 3 19 15 42 26 52 11 10 20 24 20 31 0 40 178 78 343 72 75 -2 107 0 107 8
0 34 -101 69 -239 84 l-113 12 -48 -26 c-42 -23 -52 -25 -74 -15 -28 13 -34
34 -13 43 6 3 -6 3 -28 0 -44 -6 -68 -21 -59 -36 4 -6 0 -14 -7 -19 -12 -7
-12 -12 -1 -26 7 -10 15 -26 18 -35 7 -21 24 -24 24 -5 0 7 7 22 16 33 14 18
15 13 10 -58 -3 -43 -15 -105 -26 -138 -11 -32 -20 -77 -20 -99 0 -80 -38
-122 -132 -146 -12 -4 -37 -25 -54 -47 -27 -35 -30 -45 -22 -64 6 -13 8 -31 4
-41 -7 -17 -8 -17 -24 3 -23 29 -44 34 -59 15 -11 -14 -12 -14 -13 2 0 9 8 25
19 36 18 18 18 18 -8 17 -14 -1 -36 -7 -48 -14 -26 -15 -73 -106 -73 -145 0
-43 -16 -64 -54 -71 -21 -4 -36 -13 -39 -25 -7 -29 -63 -38 -89 -14 -26 23
-38 55 -27 69 7 8 -1 14 -26 18 -35 7 -55 29 -55 63 0 21 -42 43 -82 43 -15 0
-48 -10 -73 -22 -37 -18 -50 -32 -75 -83 -16 -33 -30 -66 -30 -72 0 -21 -33
-82 -47 -87 -14 -6 -36 30 -47 76 -8 34 -61 91 -105 113 -19 9 -60 20 -92 22
-48 5 -62 2 -85 -16 -15 -11 -39 -21 -54 -21 -24 0 -28 -5 -34 -40 -6 -40 6
-80 24 -80 20 0 30 -38 18 -65 -10 -22 -17 -26 -47 -23 l-36 3 1 50 c2 72 22
334 33 445 15 135 38 362 61 605 45 453 107 779 223 1170 48 160 115 345 126
345 3 0 12 -14 20 -32 8 -17 34 -52 58 -77 24 -25 46 -56 49 -68 4 -13 10 -23
15 -23 5 0 9 -7 9 -15 0 -9 11 -20 24 -24 13 -5 26 -19 29 -30 7 -28 27 -27
29 2 9 113 -5 312 -28 370 -7 20 -14 54 -14 73 0 26 -12 55 -44 103 -24 36
-51 80 -60 98 -9 18 -36 44 -61 58 -64 38 -183 187 -191 240 -8 54 15 109 53
128 15 8 80 31 143 52 170 55 158 45 196 165 39 123 41 145 17 135 -49 -20
-203 -57 -222 -53 -9 2 7 15 39 30 30 15 47 27 37 28 -10 0 -22 11 -27 25 -8
22 -5 29 28 59 39 36 59 33 23 -3 -26 -26 -28 -46 -3 -36 9 4 33 9 52 11 19 2
41 4 48 5 6 1 13 16 13 33 1 24 3 26 6 9 5 -26 23 -31 23 -8 0 8 5 15 10 15 6
0 10 -6 10 -12 0 -7 11 7 23 32 13 25 22 49 19 53 -2 5 -9 -2 -16 -14 -14 -28
-59 -33 -64 -6 -2 11 3 17 16 17 11 0 25 7 32 15 7 9 18 14 25 11 18 -6 55 58
179 309 124 252 196 449 196 542 0 53 -1 54 -74 140 -12 14 -31 23 -48 23 -15
0 -28 2 -28 4 0 2 -3 12 -7 21 -5 15 -1 16 38 10 24 -4 61 -19 84 -33z m-748
4 c-4 -9 2 -18 15 -22 21 -6 21 -7 -3 -25 -23 -17 -24 -17 -35 3 -9 16 -8 25
5 39 20 22 25 23 18 5z m258 -56 c3 -5 -1 -10 -9 -10 -9 0 -16 -5 -16 -12 0
-6 -2 -9 -5 -6 -7 7 5 38 15 38 5 0 12 -4 15 -10z m-227 -36 c32 -9 27 -27
-15 -46 -48 -22 -56 -13 -18 19 l30 25 -30 -6 c-22 -5 -26 -4 -15 4 18 11 18
12 48 4z m142 -21 c-8 -3 -23 -14 -34 -25 -11 -10 -25 -19 -30 -19 -6 -1 -20
-3 -32 -4 -11 -1 -29 -7 -39 -13 -18 -10 25 -9 103 2 29 4 28 0 -5 -18 l-28
-15 24 -7 c23 -7 22 -7 -9 -20 -18 -8 -36 -14 -41 -14 -17 0 -9 28 9 33 9 3
-9 5 -41 6 -32 0 -66 -3 -76 -8 -9 -5 -23 -6 -30 -1 -10 6 -9 9 7 14 12 4 35
20 53 37 17 16 34 29 38 30 3 1 26 3 50 5 25 2 49 8 55 14 5 5 17 10 26 9 12
0 13 -2 0 -6z m542 -112 c10 -9 18 -21 18 -27 0 -7 6 -14 13 -17 6 -2 9 -7 5
-11 -10 -11 -63 20 -81 47 -26 40 3 44 45 8z m-666 -9 c-4 -11 2 -28 14 -42
17 -20 20 -20 26 -6 3 9 14 16 24 16 11 0 22 5 25 10 6 10 55 14 55 5 0 -8
-39 -45 -48 -45 -5 0 -18 -11 -30 -25 -12 -14 -26 -25 -32 -25 -5 0 -10 -4
-10 -9 0 -5 20 -6 45 -3 39 4 45 2 45 -14 0 -14 -3 -16 -9 -6 -11 17 -61 5
-61 -15 0 -11 7 -13 30 -8 17 4 30 2 30 -3 0 -18 -26 -31 -48 -25 -15 3 -24 0
-28 -11 -3 -9 -15 -16 -25 -16 -10 0 -19 -7 -19 -15 0 -9 -10 -19 -22 -24 -13
-5 -23 -17 -23 -27 0 -15 -8 -19 -40 -20 -58 -2 -106 -15 -112 -30 -3 -8 -11
-14 -19 -14 -8 0 -19 -9 -26 -20 -15 -23 -30 -27 -22 -5 4 8 1 15 -5 15 -6 0
-11 -4 -11 -9 0 -5 -11 -11 -25 -13 -14 -3 -25 -1 -25 3 0 5 11 11 25 15 14 3
25 10 25 15 0 5 7 9 15 9 7 0 18 7 23 17 6 9 16 14 25 10 8 -3 18 0 21 8 4 10
-2 11 -23 5 -16 -4 -38 -13 -49 -19 -20 -11 -72 -15 -72 -6 0 11 24 55 31 55
4 0 9 -7 13 -15 9 -26 27 -17 20 10 -4 15 -2 25 5 25 6 0 11 -4 11 -10 0 -5 5
-10 11 -10 5 0 7 5 4 10 -3 6 4 10 18 10 14 0 30 7 37 15 9 10 9 15 1 15 -6 0
-11 5 -11 10 0 6 11 10 25 10 18 0 25 5 25 20 0 11 7 20 15 20 8 0 15 5 15 10
0 6 -11 10 -24 10 -14 0 -28 -4 -31 -10 -10 -16 -25 -12 -26 8 0 13 -2 12 -9
-5 -5 -13 -14 -23 -20 -23 -5 0 -10 -9 -10 -20 0 -21 -16 -28 -18 -7 0 6 -4
22 -7 35 -6 19 -4 22 16 20 18 -2 24 2 24 16 0 11 7 22 15 24 20 7 83 54 93
69 12 19 40 16 33 -2 -3 -9 0 -15 9 -15 14 0 19 12 16 33 -3 16 25 36 52 37
23 0 27 -3 23 -18z m-296 -192 c0 -5 -5 -10 -11 -10 -5 0 -7 5 -4 10 3 6 8 10
11 10 2 0 4 -4 4 -10z m205 -152 c22 2 35 -1 35 -8 0 -9 -16 -11 -55 -7 -45 4
-55 2 -60 -12 -5 -17 -37 -23 -43 -8 -6 13 3 22 38 39 25 12 36 14 42 5 4 -6
23 -10 43 -9z m75 -42 c0 -21 -21 -31 -31 -15 -14 22 -11 29 11 29 11 0 20 -6
20 -14z m-85 -16 c3 -5 -3 -10 -14 -10 -11 0 -23 5 -26 10 -3 6 3 10 14 10 11
0 23 -4 26 -10z m0 -30 c-3 -5 -11 -10 -16 -10 -6 0 -7 5 -4 10 3 6 11 10 16
10 6 0 7 -4 4 -10z m575 -15 c-7 -9 -15 -13 -17 -11 -7 7 7 26 19 26 6 0 6 -6
-2 -15z m64 -9 c-3 -9 -10 -16 -15 -16 -6 0 -5 9 1 21 13 24 24 20 14 -5z
m-49 -42 c-8 -16 -15 -24 -15 -18 0 15 25 65 28 55 1 -4 -4 -21 -13 -37z m-61
-168 c-3 -9 -10 -16 -15 -16 -6 0 -5 9 1 21 13 24 24 20 14 -5z m-104 10 c0
-2 -7 -6 -15 -10 -8 -3 -15 -1 -15 4 0 6 7 10 15 10 8 0 15 -2 15 -4z m-45
-26 c3 -5 1 -10 -4 -10 -6 0 -11 5 -11 10 0 6 2 10 4 10 3 0 8 -4 11 -10z
m100 -57 c-5 -10 -7 -21 -7 -25 1 -5 -2 -8 -8 -8 -13 0 -13 16 2 40 15 23 24
18 13 -7z m-35 -23 c0 -10 -27 -15 -62 -12 -10 1 -18 -3 -18 -10 0 -6 -3 -8
-6 -5 -4 4 -1 13 6 22 14 17 80 21 80 5z m-1642 -132 c5 -18 7 -35 5 -38 -7
-8 -33 32 -33 52 0 30 19 20 28 -14z m1562 2 c0 -23 -25 -27 -33 -6 -7 16 1
26 20 26 7 0 13 -9 13 -20z m-2160 -9 c-10 -20 -30 -37 -30 -27 0 6 33 46 38
46 1 0 -2 -9 -8 -19z m-36 -59 c-11 -8 -49 -84 -46 -94 1 -3 -5 -12 -13 -18
-8 -7 -15 -17 -15 -22 0 -11 -24 -68 -45 -109 -8 -14 -25 -54 -38 -90 -13 -35
-27 -71 -31 -81 -5 -11 -1 -18 14 -23 17 -5 20 -12 16 -33 -14 -70 -18 -106
-12 -100 4 3 13 35 21 70 16 76 45 148 61 148 7 0 9 10 7 25 -3 13 5 46 17 72
41 91 74 153 81 153 9 0 29 48 29 73 0 18 2 19 10 7 11 -17 4 -48 -15 -66 -7
-7 -15 -32 -19 -55 -4 -23 -14 -48 -23 -54 -18 -13 -10 -35 12 -35 8 0 20 8
27 18 7 10 21 21 30 25 11 4 17 16 17 34 -1 32 22 103 33 103 5 0 8 -7 8 -16
0 -8 4 -13 9 -10 5 4 7 -3 4 -15 -3 -11 -12 -23 -19 -26 -8 -3 -14 -19 -14
-37 -1 -33 -22 -71 -34 -59 -4 4 -5 1 -2 -7 3 -8 -10 -58 -29 -110 -20 -52
-51 -142 -70 -200 -45 -141 -65 -199 -81 -238 -8 -18 -14 -42 -14 -52 0 -11
-6 -20 -12 -20 -28 0 -41 20 -46 70 l-5 52 -12 -34 c-22 -64 -79 -104 -105
-73 -16 19 -7 136 21 267 33 152 34 174 12 186 -16 9 -25 4 -56 -29 -20 -21
-37 -43 -37 -49 0 -5 -4 -10 -9 -10 -5 0 -4 -19 2 -42 5 -24 9 -60 8 -82 -1
-21 3 -44 10 -52 11 -13 15 -66 23 -289 5 -133 36 -285 66 -315 11 -11 20 -28
21 -37 1 -10 2 -32 4 -49 l2 -31 -26 26 c-31 30 -86 106 -121 168 -13 24 -42
54 -66 69 -30 19 -45 37 -50 58 -4 17 -15 42 -25 56 -28 39 -42 181 -37 370 6
183 -4 189 -26 15 l-13 -110 -2 95 c-1 58 4 113 13 140 8 25 22 71 32 103 10
32 24 66 32 75 12 15 13 12 8 -23 l-5 -40 20 39 c10 22 19 47 19 57 0 24 218
172 272 184 15 3 32 13 39 21 6 8 15 14 20 14 9 0 -61 -123 -73 -128 -5 -2 -8
-9 -8 -15 0 -11 129 123 130 136 0 14 17 7 17 -8 0 -8 -4 -15 -9 -15 -4 0 -8
-4 -8 -10 0 -20 16 -8 50 38 38 51 52 64 59 56 3 -3 1 -8 -5 -12z m146 -27 c0
-8 -4 -15 -10 -15 -5 0 -10 7 -10 15 0 8 5 15 10 15 6 0 10 -7 10 -15z m17 -7
c-3 -8 -6 -5 -6 6 -1 11 2 17 5 13 3 -3 4 -12 1 -19z m503 -15 c16 4 40 -4 68
-21 l43 -27 -7 -50 c-18 -135 -12 -167 20 -104 6 12 17 24 25 27 21 7 4 -109
-26 -187 -20 -51 -24 -74 -19 -115 3 -28 10 -52 16 -54 14 -5 12 -38 -4 -92
-9 -32 -15 -39 -17 -25 -6 30 -48 -142 -70 -283 -35 -232 -62 -312 -193 -565
-115 -221 -207 -459 -235 -607 -6 -30 -13 -93 -16 -140 -4 -47 -11 -110 -16
-140 -29 -180 -18 -332 32 -414 30 -49 30 -50 6 -27 -27 24 -46 74 -67 171 -7
30 -20 67 -31 82 -10 15 -19 30 -19 33 0 12 -46 57 -72 69 -25 13 -27 12 -31
-8 -3 -13 -5 -8 -6 14 -4 75 -11 114 -21 124 -5 5 -10 17 -10 26 0 19 -37 53
-50 45 -6 -4 -10 -1 -10 5 0 6 -4 8 -10 5 -6 -4 -10 5 -10 19 0 14 -4 26 -10
26 -5 0 -9 -12 -8 -27 0 -16 -4 -48 -9 -73 l-9 -45 -28 60 c-15 33 -43 99 -63
147 -39 98 -55 117 -78 98 -8 -7 -15 -19 -15 -27 0 -8 -4 -11 -10 -8 -12 7
-24 -39 -16 -60 3 -8 1 -15 -4 -15 -6 0 -10 -9 -10 -20 0 -30 -14 -24 -33 13
l-16 32 0 -30 c0 -16 3 -48 8 -70 5 -22 12 -73 16 -112 6 -63 5 -73 -9 -73 -9
0 -25 9 -36 20 -15 15 -20 16 -20 6 0 -8 -4 -17 -8 -20 -25 -15 12 207 79 465
19 77 26 145 11 122 -21 -33 -222 53 -308 130 -87 79 -206 279 -238 402 -20
77 -53 166 -66 179 -21 21 -31 -9 -15 -41 9 -18 22 -72 30 -121 18 -110 43
-220 56 -244 13 -23 18 -88 8 -94 -13 -8 -57 59 -87 132 -58 141 -68 357 -23
509 12 38 21 92 20 120 l-1 50 -15 -35 c-8 -19 -22 -82 -30 -140 -7 -58 -15
-116 -17 -130 -12 -88 -15 -175 -8 -242 4 -43 5 -78 2 -78 -7 0 -40 72 -40 88
0 18 -35 33 -48 20 -7 -7 -7 -21 2 -47 6 -20 11 -45 11 -56 -1 -11 2 -25 6
-30 4 -6 5 -24 2 -40 -15 -82 10 -185 67 -265 21 -30 36 -90 22 -90 -13 0
-102 88 -102 100 0 5 -18 16 -39 26 -34 15 -39 22 -39 48 0 17 0 65 -1 106 -2
86 12 200 35 282 9 31 14 62 12 70 -3 7 -12 -23 -22 -67 -9 -44 -21 -89 -26
-100 -4 -11 -14 -56 -22 -100 -14 -80 -15 -80 -44 -77 -23 3 -27 1 -16 -9 13
-14 17 -49 4 -49 -15 0 -32 24 -32 45 -1 26 -26 59 -39 51 -7 -4 -3 -19 9 -42
26 -45 25 -47 -6 -40 -23 6 -25 4 -19 -16 4 -13 9 -32 12 -43 3 -11 19 -35 36
-53 26 -27 32 -43 38 -95 3 -34 3 -70 0 -80 -6 -16 -10 -14 -34 13 -26 28 -25
44 1 18 9 -9 12 -9 12 -1 0 7 -9 19 -21 27 -46 32 -117 129 -143 195 -29 74
-46 95 -88 105 -23 5 -27 12 -33 59 -4 28 -2 113 3 187 6 85 6 142 0 153 -5
10 -8 20 -6 21 2 1 18 14 36 29 28 23 30 27 13 27 -20 0 -28 -7 -68 -54 -24
-27 -30 -41 -14 -31 19 11 23 -42 16 -209 -10 -246 12 -424 65 -541 11 -24 20
-53 20 -64 0 -32 -26 -25 -47 12 -11 17 -39 66 -63 107 -24 41 -71 110 -103
154 -64 84 -80 125 -102 256 -9 57 -13 69 -12 37 1 -26 -2 -46 -7 -44 -13 4
-58 127 -46 127 5 0 17 16 26 35 9 19 20 35 26 35 12 0 25 11 111 95 62 61 81
74 137 90 89 26 191 79 282 147 28 20 80 51 117 69 51 25 76 45 110 89 78 104
170 186 256 229 44 22 95 50 113 62 39 25 41 17 6 -24 -15 -17 -22 -33 -16
-35 6 -2 4 -15 -6 -34 -17 -34 -36 -214 -24 -232 3 -6 7 -34 7 -62 1 -44 -1
-50 -17 -46 -10 2 -18 13 -18 23 0 11 -4 19 -10 19 -5 0 -10 -7 -10 -16 0 -8
-4 -12 -10 -9 -5 3 -10 17 -10 30 0 13 -4 27 -10 30 -6 4 -10 -10 -10 -34 0
-33 -3 -40 -17 -38 -10 1 -19 -2 -19 -8 -1 -5 23 -61 53 -123 54 -113 108
-286 96 -306 -4 -5 -6 -29 -4 -53 1 -26 -2 -43 -8 -43 -6 0 -11 6 -12 13 0 7
-2 8 -5 1 -7 -16 24 -84 38 -84 9 0 9 3 0 12 -7 7 -12 21 -12 32 0 18 1 18 19
2 10 -9 34 -19 54 -23 21 -3 34 -10 31 -17 -2 -6 12 -24 32 -41 21 -16 49 -41
63 -54 l26 -24 -30 7 -30 6 30 -25 c155 -134 195 -172 195 -186 0 -17 17 -9
28 14 6 12 34 108 62 212 29 105 65 228 82 275 16 47 30 103 30 125 0 27 2 34
7 21 5 -14 12 -2 26 45 11 35 19 70 17 77 -2 6 1 12 6 12 6 0 10 37 11 83 1
84 18 214 32 232 4 6 5 36 3 68 -4 55 -3 58 16 52 24 -8 25 -2 4 30 -11 16
-14 34 -9 52 4 19 9 23 14 14 6 -9 14 3 25 35 18 53 21 77 6 54 -6 -9 -10 -10
-10 -3 0 6 5 15 10 18 6 4 8 11 5 16 -4 5 1 16 9 25 9 8 16 23 16 32 1 14 3
14 12 -3 6 -11 16 -23 22 -27 8 -5 8 -13 -1 -27 -6 -10 -12 -37 -11 -60 0 -46
32 -120 42 -99 3 7 4 -3 1 -22 -3 -19 -17 -57 -31 -83 -14 -27 -23 -54 -21
-60 2 -6 14 11 28 38 27 56 56 92 65 82 4 -3 -3 -34 -14 -69 -12 -35 -28 -85
-37 -113 -9 -27 -19 -58 -22 -67 -4 -13 0 -17 16 -15 14 1 19 6 16 17 -3 8 7
29 21 45 l25 30 -7 -50 c-9 -64 -8 -87 5 -95 11 -6 5 -59 -24 -185 -25 -112
-43 -223 -53 -330 -6 -55 -14 -110 -17 -122 -4 -14 -3 -23 3 -23 5 0 13 15 16
33 4 17 11 55 17 82 6 28 13 76 16 108 2 31 9 55 14 52 4 -3 6 -19 3 -34 -4
-16 -1 -37 5 -48 8 -14 11 -1 13 62 1 44 3 103 4 130 3 102 60 345 103 440 55
121 73 152 101 168 16 10 30 22 30 28 0 16 24 9 46 -14 12 -12 29 -38 39 -57
10 -19 31 -51 46 -70 16 -19 29 -38 29 -43 0 -5 10 -17 22 -27 17 -13 25 -15
31 -7 6 9 10 9 14 0 7 -19 23 -16 24 5 1 9 6 -3 13 -28 11 -42 13 -43 20 -20
12 41 20 418 9 432 -6 7 -14 45 -18 83 -8 81 -39 217 -60 269 -20 47 -19 51 8
26 14 -14 30 -20 47 -17z m1240 -57 c0 -2 -7 -6 -15 -10 -8 -3 -15 -1 -15 4 0
6 7 10 15 10 8 0 15 -2 15 -4z m-40 -10 c0 -2 -16 -6 -35 -8 -19 -2 -35 0 -35
4 0 4 16 8 35 8 19 0 35 -2 35 -4z m-153 -12 c-3 -3 -12 -4 -19 -1 -8 3 -5 6
6 6 11 1 17 -2 13 -5z m-2337 -387 c-16 -37 -30 -73 -30 -81 0 -8 -5 -16 -11
-18 -7 -2 -11 -46 -10 -128 2 -135 -10 -152 -28 -40 -13 77 0 173 29 228 11
20 20 42 20 49 0 17 54 77 57 66 2 -5 -10 -39 -27 -76z m635 13 c-4 -12 -9
-19 -12 -17 -3 3 -2 15 2 27 4 12 9 19 12 17 3 -3 2 -15 -2 -27z m-637 -192
c7 -40 15 -86 19 -102 5 -24 3 -28 -9 -23 -26 10 -27 -36 -2 -95 23 -54 32
-148 14 -148 -12 0 -38 49 -55 107 -12 38 -11 55 1 114 10 46 12 96 8 145 -3
41 -2 74 3 74 5 0 14 -33 21 -72z m576 -16 c-4 -18 -11 -32 -16 -32 -6 0 -7 8
-3 18 4 9 10 25 12 35 9 29 14 13 7 -21z m-21 -67 c4 -8 2 -17 -3 -20 -6 -4
-10 3 -10 14 0 25 6 27 13 6z m-47 -144 c-9 -26 -16 -52 -15 -57 1 -5 1 -20 0
-34 -1 -20 -3 -22 -12 -10 -7 11 -8 4 -4 -26 7 -44 -9 -70 -19 -31 -9 35 -7
55 8 70 8 7 14 25 14 38 0 45 25 120 36 109 7 -7 4 -25 -8 -59z m-97 -68 c1
-36 -3 -63 -9 -63 -5 0 -10 22 -10 49 0 28 -4 52 -10 56 -6 3 -5 15 2 31 11
23 13 24 19 7 4 -10 8 -46 8 -80z m-535 12 c3 -8 1 -15 -4 -15 -6 0 -10 7 -10
15 0 8 2 15 4 15 2 0 6 -7 10 -15z m73 -67 c-3 -8 -6 -5 -6 6 -1 11 2 17 5 13
3 -3 4 -12 1 -19z m67 -72 c9 -19 16 -41 16 -50 0 -14 -2 -14 -20 1 -11 10
-20 22 -20 27 0 5 -9 20 -21 32 -25 26 -18 49 10 34 10 -5 26 -25 35 -44z
m-1278 -339 c33 -46 58 -113 70 -192 4 -27 9 -57 11 -65 2 -8 5 -25 7 -38 1
-12 17 -43 33 -70 17 -26 31 -51 32 -55 0 -4 9 -19 21 -34 11 -14 18 -28 16
-31 -10 -10 -211 129 -249 173 -10 11 -43 46 -74 78 -31 31 -53 57 -48 57 4 0
2 6 -4 14 -10 12 -8 17 9 26 24 13 28 11 44 -22 6 -12 26 -31 45 -42 33 -19
33 -19 23 0 -6 10 -22 30 -36 43 -31 29 -34 45 -6 36 24 -8 25 2 4 44 -16 31
-15 34 3 59 28 37 43 39 43 4 0 -17 9 -37 21 -48 20 -18 20 -18 13 11 -4 17
-11 40 -15 53 -21 56 -4 55 37 -1z m7261 -129 c-3 -8 -6 -5 -6 6 -1 11 2 17 5
13 3 -3 4 -12 1 -19z m-289 -13 c-8 -5 -12 -18 -10 -27 2 -12 -3 -18 -13 -18
-11 0 -15 -5 -12 -14 7 -18 -22 -31 -37 -16 -7 7 -5 10 7 10 22 0 22 16 1 24
-15 6 -14 9 6 31 14 15 33 24 47 23 19 -2 21 -5 11 -13z m-6604 -97 c8 -13 29
-63 46 -113 17 -49 47 -122 66 -160 19 -39 34 -79 34 -91 0 -11 5 -25 11 -31
7 -7 6 -12 -5 -16 -20 -8 -116 91 -116 119 0 11 -9 47 -20 80 -19 54 -50 192
-50 222 0 19 18 14 34 -10z m6536 -48 c0 -5 -7 -10 -16 -10 -8 0 -12 5 -9 10
3 6 10 10 16 10 5 0 9 -4 9 -10z m-6365 -400 c3 -5 -1 -10 -9 -10 -8 0 -18 5
-21 10 -3 6 1 10 9 10 8 0 18 -4 21 -10z m-643 -32 c-9 -9 -12 -7 -12 12 0 19
3 21 12 12 9 -9 9 -15 0 -24z m128 22 c0 -30 -23 -57 -51 -57 -16 0 -29 4 -29
9 0 4 10 8 23 8 18 0 19 2 7 10 -13 8 -13 10 1 10 9 0 19 7 23 15 6 16 26 21
26 5z m36 -47 c-10 -10 -19 5 -10 18 6 11 8 11 12 0 2 -7 1 -15 -2 -18z m-167
-20 c0 -16 -3 -22 -6 -15 -4 10 -10 9 -26 -5 -20 -17 -20 -17 -14 0 4 10 7 23
7 29 0 6 7 8 15 4 8 -3 15 -1 15 4 0 6 2 10 5 10 3 0 5 -12 4 -27z m1750 -72
c-2 -63 0 -72 24 -120 20 -39 23 -111 5 -111 -37 0 -78 26 -87 54 -10 35 -10
81 2 92 4 4 7 23 7 43 0 28 3 33 11 21 8 -12 9 -11 6 5 -16 64 -17 79 -11 98
7 21 7 21 26 -2 14 -18 18 -38 17 -80z m-1609 38 c0 -17 -4 -28 -10 -24 -5 3
-10 -1 -10 -9 0 -9 7 -16 15 -16 22 0 18 -28 -5 -42 -11 -7 -20 -20 -20 -30 0
-9 -10 -24 -22 -32 -28 -20 -20 -27 31 -30 35 -2 73 -16 43 -16 -7 0 -21 -9
-32 -20 -20 -20 -20 -20 -1 -20 27 0 32 -12 22 -48 -7 -23 -6 -34 5 -43 19
-15 18 -49 -1 -49 -9 0 -15 -7 -13 -17 4 -24 -29 -29 -35 -6 -3 10 -5 3 -6
-16 -1 -25 -5 -32 -16 -27 -22 8 -18 -7 5 -22 27 -16 25 -26 -5 -40 -22 -10
-25 -17 -21 -50 4 -26 0 -46 -14 -66 -10 -16 -16 -35 -13 -42 10 -28 -6 -64
-30 -64 -22 1 -22 1 3 16 l25 15 -30 -5 c-16 -2 -48 -8 -69 -12 -28 -5 -37 -4
-32 5 4 6 14 11 22 11 8 0 14 5 14 10 0 6 15 18 33 26 l32 15 -30 -5 c-16 -3
-43 -8 -60 -11 -24 -5 -27 -4 -15 5 12 10 11 11 -7 7 -13 -3 -23 -1 -23 4 0 9
13 12 41 10 17 -2 34 27 23 38 -4 3 -9 0 -11 -6 -3 -7 -9 -13 -14 -13 -6 0 -5
9 2 22 10 18 9 20 -5 15 -14 -5 -15 -3 -6 13 11 20 -3 39 -15 20 -11 -17 -20
-11 -20 14 0 13 3 22 8 19 10 -6 9 5 -3 27 -7 14 -6 23 5 34 8 8 15 21 15 29
0 7 12 20 28 27 18 8 22 14 13 18 -7 2 -16 1 -20 -4 -3 -5 -17 -15 -31 -23
l-24 -14 17 26 c12 19 14 28 5 33 -7 5 -6 11 7 20 10 7 15 19 12 27 -3 8 1 24
9 36 12 17 13 21 2 21 -8 0 -19 -5 -26 -12 -6 -6 -14 -9 -18 -6 -6 7 31 48 44
48 9 0 9 76 0 86 -11 10 1 24 15 18 8 -3 20 12 31 36 9 22 24 40 32 40 8 0 12
5 9 10 -3 6 -1 10 6 10 6 0 17 7 24 16 6 9 22 18 36 19 13 2 35 8 49 13 14 6
26 11 28 11 1 1 2 -13 2 -30z m49 -1 c0 -7 -4 -22 -9 -33 -7 -17 -9 -15 -9 13
-1 17 4 32 9 32 6 0 10 -6 9 -12z m1751 -88 c0 -5 -2 -10 -4 -10 -3 0 -8 5
-11 10 -3 6 -1 10 4 10 6 0 11 -4 11 -10z m50 -29 c0 -11 -4 -23 -10 -26 -6
-4 -10 5 -10 19 0 14 5 26 10 26 6 0 10 -9 10 -19z m-1845 -40 c-7 -24 -35
-29 -35 -6 0 8 7 15 15 15 8 0 15 5 15 12 0 6 3 9 6 5 3 -3 3 -15 -1 -26z
m6691 -6 c18 -18 42 -86 37 -102 -3 -7 -11 -13 -19 -13 -20 0 -30 -30 -14 -40
20 -12 16 -93 -5 -141 -19 -41 -19 -41 2 -57 18 -14 22 -29 25 -84 3 -74 -6
-98 -16 -43 -4 19 -11 33 -15 31 -4 -3 -18 5 -30 18 -19 21 -21 27 -11 46 11
21 10 22 -13 16 -29 -7 -57 1 -57 17 0 6 -8 19 -17 29 -10 11 -17 34 -16 53 1
29 -2 34 -20 32 -19 -2 -22 5 -29 62 -7 63 0 91 24 91 6 0 23 12 38 28 59 56
74 65 113 71 5 0 15 -6 23 -14z m-6271 -21 c57 -11 78 -86 110 -379 14 -132
32 -259 39 -283 13 -41 13 -42 -10 -48 -66 -17 -76 10 -104 281 -30 295 -38
345 -64 398 -19 39 -21 47 -7 42 9 -4 25 -9 36 -11z m-362 -136 c-8 -46 -13
-48 -13 -5 0 21 4 37 10 37 5 0 7 -14 3 -32z m47 -76 c0 -7 -4 -10 -10 -7 -5
3 -10 16 -10 28 0 18 2 19 10 7 5 -8 10 -21 10 -28z m-80 -42 c0 -5 -4 -10
-10 -10 -5 0 -10 5 -10 10 0 6 5 10 10 10 6 0 10 -4 10 -10z m1112 -10 c39
-18 68 -100 68 -193 0 -73 -33 -389 -46 -442 l-7 -30 32 32 c17 18 31 38 31
44 0 8 5 7 16 -2 21 -17 54 -22 68 -10 7 6 35 8 64 6 30 -3 54 0 58 6 4 8 9 7
15 -2 4 -7 3 -19 -3 -26 -5 -7 -8 -18 -5 -25 4 -8 8 -5 12 10 5 16 15 22 34
21 14 0 21 -3 16 -5 -15 -6 -6 -71 11 -85 8 -6 14 -20 14 -31 0 -13 6 -18 18
-16 9 2 16 10 14 17 -2 8 4 22 13 31 12 14 14 23 6 37 -6 12 -6 25 0 34 7 11
9 9 9 -7 0 -12 12 -29 26 -39 25 -16 26 -16 20 3 -5 14 -1 21 12 24 16 4 18 1
14 -15 -3 -13 -1 -18 6 -13 6 3 14 -4 18 -16 7 -22 7 -22 15 -3 7 19 8 19 8
-2 1 -25 21 -43 21 -19 0 9 7 16 15 16 12 0 14 -10 11 -45 -6 -63 11 -79 57
-56 51 26 89 58 77 66 -5 3 -10 13 -10 21 0 8 4 13 9 9 5 -3 12 3 14 12 3 10
5 3 6 -14 1 -37 13 -42 33 -14 10 14 18 16 36 10 24 -9 44 -47 34 -64 -10 -16
-12 -74 -2 -80 10 -6 32 29 24 38 -3 3 -1 8 5 12 6 3 11 -1 11 -10 0 -9 5 -13
10 -10 7 5 9 -11 5 -47 -5 -48 -4 -51 9 -34 18 22 66 15 66 -11 0 -9 8 -22 17
-28 17 -13 17 -14 0 -32 -25 -29 -21 -35 13 -18 41 21 53 19 38 -5 -11 -18
-10 -23 11 -39 16 -12 20 -21 12 -25 -18 -11 -13 -26 9 -26 13 0 20 -7 20 -20
0 -11 7 -23 16 -27 12 -4 13 -7 3 -14 -8 -4 -14 -28 -14 -53 -1 -42 1 -45 22
-44 13 1 23 3 23 5 0 1 -5 14 -10 30 -10 27 -9 27 6 8 16 -20 16 -20 9 4 -4
13 -2 33 3 45 19 38 47 184 72 371 6 44 16 98 22 120 l10 39 18 -24 c38 -51
44 -93 32 -217 -7 -64 -24 -179 -37 -257 -31 -172 -31 -174 -7 -153 46 42 179
-8 188 -70 1 -7 -2 -13 -7 -13 -6 0 -8 -4 -4 -9 3 -5 1 -12 -4 -15 -5 -3 -7
-15 -4 -26 3 -11 -7 -40 -23 -67 -18 -31 -29 -66 -31 -97 -1 -27 -10 -57 -19
-67 -8 -9 -19 -41 -24 -71 -9 -66 -34 -161 -64 -253 -13 -38 -29 -92 -35 -120
-14 -60 -27 -74 -72 -81 -46 -8 -104 28 -114 71 -4 17 -6 35 -5 40 2 6 4 23 6
38 1 15 9 42 17 60 8 18 18 57 22 87 4 30 11 62 15 70 4 8 10 40 13 71 3 31 9
65 15 75 5 11 13 39 17 64 4 25 13 59 20 75 8 17 17 46 20 65 4 19 13 45 21
57 9 14 10 24 4 28 -15 9 -119 -5 -159 -21 -18 -8 -46 -14 -62 -14 -28 0 -124
-17 -249 -45 -36 -8 -90 -15 -120 -16 -30 -2 -62 -6 -70 -10 -21 -11 -99 -25
-320 -59 -140 -21 -197 -30 -245 -40 -27 -6 -95 -17 -150 -26 -55 -8 -113 -18
-130 -20 -57 -10 -90 -15 -118 -18 -15 -2 -30 -6 -34 -9 -12 -12 -45 -7 -41 6
3 6 33 17 68 22 53 8 66 14 77 35 32 65 154 547 212 835 89 448 101 665 38
733 -25 27 -42 28 -87 2 l-35 -21 29 27 c27 24 36 26 85 21 31 -3 68 -11 83
-17z m-1171 -97 c-8 -15 -10 -15 -11 -2 0 17 10 32 18 25 2 -3 -1 -13 -7 -23z
m1537 -17 c3 -13 -1 -17 -14 -14 -11 2 -20 11 -22 22 -3 13 1 17 14 14 11 -2
20 -11 22 -22z m-1703 -186 c3 -5 -1 -10 -9 -10 -9 0 -16 5 -16 10 0 6 4 10 9
10 6 0 13 -4 16 -10z m124 -6 c9 -9 17 -144 9 -144 -5 0 -8 11 -8 25 0 38 -13
30 -39 -28 -35 -74 -35 -76 -2 -37 22 25 31 29 31 17 0 -9 -4 -17 -9 -17 -13
0 -31 -82 -21 -95 5 -6 9 -48 7 -92 -1 -56 2 -85 12 -96 7 -10 10 -17 6 -17
-4 0 -2 -6 4 -14 9 -11 9 -15 -1 -20 -7 -3 -3 -4 9 -2 13 2 26 0 29 -5 3 -5 0
-9 -7 -9 -8 0 -8 -4 1 -15 10 -12 10 -15 0 -15 -7 0 -2 -9 11 -19 13 -11 21
-23 17 -27 -5 -4 -16 0 -27 10 -49 44 -195 69 -316 53 -48 -6 -48 -6 -12 4 20
6 37 15 37 20 0 6 -8 5 -19 -1 -39 -20 -45 -9 -13 21 18 17 30 34 27 39 -3 5
-1 11 5 15 5 3 10 13 10 21 0 9 7 22 15 30 8 9 15 25 15 36 0 21 -1 21 -26 -3
-25 -23 -26 -23 -15 -2 6 12 11 33 11 47 0 14 5 26 11 26 5 0 7 -5 3 -12 -4
-7 -3 -8 5 -4 7 4 10 13 9 18 -5 14 43 68 59 68 7 0 13 4 13 9 0 5 9 11 20 14
11 3 20 11 20 19 0 9 -3 9 -8 2 -4 -6 -18 -15 -32 -19 -23 -7 -24 -7 -10 10
14 17 13 17 -10 10 -25 -8 -25 -8 -6 14 11 11 14 21 8 21 -6 0 -17 -8 -24 -18
-14 -19 -48 -37 -48 -24 1 13 27 42 39 42 8 0 10 8 6 20 -4 14 -1 22 12 27 10
4 32 20 48 35 17 15 33 28 38 28 4 0 7 6 7 13 0 24 22 36 58 31 20 -2 38 -7
41 -10z m711 -87 c0 -2 -10 -12 -22 -23 l-23 -19 19 23 c18 21 26 27 26 19z
m5910 -467 c0 -5 -4 -10 -9 -10 -6 0 -13 5 -16 10 -3 6 1 10 9 10 9 0 16 -4
16 -10z m-6739 -96 c30 -9 48 -19 41 -22 -8 -2 4 -13 29 -23 23 -11 44 -17 47
-14 3 3 -9 10 -27 16 -18 6 -30 13 -28 16 8 8 92 -31 132 -61 76 -59 108 -103
118 -166 6 -38 -7 -87 -16 -60 -19 54 -20 54 -29 -8 -5 -35 -21 -89 -37 -120
-33 -66 -51 -141 -51 -214 l0 -50 -27 18 c-71 46 -172 71 -187 45 -5 -7 9 -11
43 -11 56 0 116 -29 126 -61 4 -10 10 -19 15 -19 4 0 10 -9 13 -20 3 -11 1
-20 -5 -20 -5 0 -6 -4 -3 -10 7 -11 -27 0 -76 26 -31 16 -56 11 -29 -6 13 -8
12 -10 -3 -10 -10 0 -25 7 -33 15 -9 8 -27 15 -40 15 -14 0 -36 11 -49 24 -13
13 -26 21 -29 19 -17 -17 -15 34 4 93 28 93 29 174 2 252 -12 34 -22 69 -22
77 0 8 -5 15 -11 15 -7 0 -9 -18 -5 -52 3 -29 3 -44 0 -33 -3 11 -9 24 -14 28
-10 11 4 -59 19 -96 6 -16 11 -36 11 -44 0 -13 -5 -12 -24 6 l-24 22 -6 -26
c-7 -29 -26 -25 -26 6 0 11 -6 19 -12 18 -27 -3 -38 2 -38 17 0 8 -4 13 -9 9
-6 -3 -15 4 -21 15 -16 30 -30 24 -24 -10 4 -16 2 -36 -4 -43 -15 -18 -12
-128 5 -204 11 -51 11 -67 1 -83 -7 -11 -16 -20 -20 -20 -5 0 -8 -6 -8 -14 0
-9 7 -12 21 -9 11 3 30 1 42 -4 12 -6 34 -16 49 -23 24 -11 30 -11 46 3 25 22
45 22 38 -1 -3 -9 -2 -31 2 -47 12 -46 4 -64 -32 -70 -23 -5 -42 -1 -68 15
-30 17 -50 21 -112 19 -72 -3 -76 -2 -101 27 -14 16 -28 40 -32 54 -3 14 -9
27 -12 30 -10 8 -35 63 -36 80 -1 8 -9 32 -19 54 -10 23 -15 49 -11 66 5 21 1
33 -14 47 -25 24 -61 119 -61 163 0 20 -5 41 -11 47 -9 9 -4 19 22 40 18 15
37 27 41 26 4 -2 22 6 40 17 18 11 42 20 53 20 11 1 36 10 55 21 l35 20 -40
-5 -40 -5 28 15 c16 9 35 13 43 10 8 -3 12 -2 9 3 -3 5 20 15 52 21 31 7 64
16 72 20 9 4 42 15 74 25 32 9 63 25 70 36 6 10 20 19 29 19 10 0 18 5 18 10
0 6 7 10 16 10 8 0 12 5 9 10 -4 7 -26 9 -53 5 -34 -4 -41 -2 -27 4 31 15 76
13 136 -5z m-140 -22 c-7 -2 -18 1 -23 6 -8 8 -4 9 13 5 13 -4 18 -8 10 -11z
m4359 -192 c6 -12 10 -33 8 -47 -4 -37 -56 -51 -98 -26 -17 9 -30 24 -30 31 0
12 -3 12 -15 2 -18 -15 -42 -3 -26 13 9 9 96 36 143 46 4 0 12 -8 18 -19z
m-446 -31 c50 -40 18 -99 -53 -99 -22 0 -42 4 -45 8 -3 5 -30 15 -61 22 -31 7
-58 17 -61 22 -3 5 2 20 11 34 14 22 22 25 53 20 20 -3 53 -2 72 3 52 13 55
13 84 -10z m-426 -42 c17 -13 15 -52 -3 -71 -19 -19 -19 -26 0 -26 11 0 15 -9
13 -30 -1 -16 -7 -30 -12 -30 -5 0 -7 -2 -5 -4 2 -2 28 0 57 3 74 10 51 -6
-28 -18 -83 -14 -102 -13 -66 3 l29 13 -47 5 c-25 3 -53 12 -62 19 -15 12 -14
15 6 31 16 13 18 18 7 18 -9 0 -22 7 -31 15 -9 9 -17 11 -21 5 -3 -6 -19 -3
-39 6 -26 13 -33 22 -33 45 0 29 2 30 46 29 25 -1 64 3 86 7 39 9 72 2 103
-20z m-4075 -131 c4 -10 0 -12 -14 -9 -10 3 -19 0 -19 -6 0 -6 7 -11 15 -11 8
0 15 -3 16 -7 4 -44 11 -78 17 -82 26 -20 60 -102 78 -190 15 -71 15 -76 -2
-88 -16 -12 -16 -13 -1 -13 19 0 24 -20 5 -21 -7 0 -3 -4 9 -9 16 -6 28 -29
44 -82 13 -40 34 -89 48 -108 14 -19 32 -45 38 -58 12 -22 11 -23 -15 -18 -15
3 -46 8 -69 11 -24 4 -45 11 -49 16 -3 5 -9 7 -13 4 -5 -2 -11 13 -15 34 -4
25 -18 53 -40 75 -18 20 -31 36 -27 36 3 0 0 4 -7 8 -16 11 9 41 53 66 22 12
24 15 7 11 -12 -4 -36 -4 -52 0 -25 5 -30 12 -30 36 0 16 -5 29 -10 29 -12 0
-8 100 5 120 4 6 0 19 -9 29 -9 10 -16 26 -16 35 0 12 -5 16 -15 12 -9 -3 -15
0 -15 9 0 8 -4 15 -10 15 -5 0 -10 14 -10 30 0 18 -6 33 -15 36 -20 8 -4 29
39 51 17 9 37 24 44 34 16 23 28 24 35 5z m3640 -3 c-7 -2 -19 -2 -25 0 -7 3
-2 5 12 5 14 0 19 -2 13 -5z m145 -20 c4 -15 -105 -17 -148 -3 -22 7 -21 8 13
9 21 1 36 4 33 9 -2 4 19 5 47 2 28 -3 52 -11 55 -17z m-210 -50 c-10 -2 -26
-2 -35 0 -10 3 -2 5 17 5 19 0 27 -2 18 -5z m-3671 -127 c0 -19 -5 -33 -9 -30
-11 7 -10 64 1 64 5 0 9 -15 8 -34z m2695 7 c34 -39 31 -59 -14 -111 -29 -34
-63 -59 -105 -78 -69 -32 -93 -63 -93 -119 0 -20 -4 -44 -9 -53 -5 -10 -17
-53 -26 -97 -30 -136 -30 -133 -4 -145 38 -18 63 -84 65 -169 1 -69 3 -77 31
-101 40 -36 53 -78 52 -164 -1 -106 -8 -120 -52 -124 -27 -2 -39 1 -43 12 -3
9 -12 16 -19 16 -6 0 -19 8 -28 18 -14 16 -14 19 3 42 24 31 25 59 3 102 -29
58 -33 68 -33 78 0 6 -11 27 -24 48 -21 34 -40 88 -41 119 0 6 -4 15 -8 19 -4
4 -7 17 -7 29 0 24 -45 75 -65 75 -6 0 -25 11 -41 25 -16 14 -37 28 -48 31
-10 3 -34 17 -53 30 -20 13 -48 24 -62 24 -14 0 -39 7 -55 15 -32 17 -56 6
-56 -24 0 -19 -57 -74 -100 -96 -17 -9 -30 -20 -30 -25 0 -5 -19 -15 -42 -21
-66 -19 -71 -32 -9 -24 122 16 155 7 211 -56 31 -35 41 -41 89 -44 30 -3 60
-10 67 -16 27 -22 16 -60 -28 -100 -38 -35 -41 -41 -30 -59 17 -27 15 -44 -6
-64 -17 -14 -22 -15 -46 -3 -14 8 -39 32 -56 55 -20 29 -47 49 -92 69 -35 15
-82 43 -106 60 -23 18 -46 33 -51 33 -4 0 -18 9 -31 20 -13 11 -31 20 -41 20
-60 0 -179 86 -179 129 0 23 51 101 66 101 7 0 27 18 44 40 17 22 37 40 43 40
6 0 21 10 34 22 26 24 76 56 141 89 23 12 51 32 61 45 10 13 21 20 25 17 3 -4
25 7 49 24 55 39 115 52 202 43 75 -7 95 -4 95 14 0 6 17 37 38 69 28 44 42
57 56 53 27 -7 63 10 97 46 17 18 29 29 28 23 -7 -40 35 -48 80 -16 15 11 49
21 77 24 27 2 52 4 55 5 3 1 13 -6 21 -15z m-1028 -72 c3 -5 -5 -11 -19 -13
-17 -4 -25 -1 -25 8 0 15 36 19 44 5z m-54 -11 c0 -5 -17 -12 -37 -15 -21 -4
-45 -9 -53 -12 -8 -4 -27 -7 -42 -8 -15 -2 -40 -6 -55 -9 l-28 -7 23 16 c12 9
27 13 32 10 6 -4 17 -1 25 5 8 7 31 13 51 15 20 2 39 6 42 9 9 10 42 7 42 -4z
m38 -86 c-9 -31 -13 -34 -16 -17 -3 21 15 69 24 61 2 -2 -2 -22 -8 -44z m-67
-30 c-14 -34 -20 -42 -20 -26 -1 28 30 101 35 86 3 -6 -4 -33 -15 -60z m118
22 c-9 -8 -10 -7 -5 7 3 10 7 24 7 30 1 7 3 4 6 -7 3 -10 -1 -23 -8 -30z
m-149 29 c0 -14 -43 -116 -47 -111 -8 8 27 116 37 116 6 0 10 -2 10 -5z m-66
-47 c-8 -24 -17 -49 -19 -57 -3 -8 -8 -11 -11 -8 -8 8 26 107 36 107 5 0 2
-19 -6 -42z m-92 -23 c-9 -24 -18 -42 -20 -40 -8 8 20 95 29 90 4 -3 0 -25 -9
-50z m52 33 c-12 -41 -43 -113 -43 -104 -2 22 32 126 41 126 5 0 6 -10 2 -22z
m-1089 -86 c-8 -8 -25 10 -25 26 0 13 2 13 14 -4 8 -10 13 -21 11 -22z m7099
-9 c3 -10 4 -27 1 -38 -2 -11 -4 -23 -4 -27 -2 -17 -19 -6 -25 15 -11 44 15
91 28 50z m-7414 -22 c0 -5 -6 -12 -12 -14 -8 -3 -6 -6 5 -6 30 -2 18 -21 -13
-21 -34 0 -41 23 -12 39 22 13 32 14 32 2z m1555 -31 c-4 -17 -9 -29 -12 -26
-3 2 -2 19 2 36 4 17 9 29 12 26 3 -2 2 -19 -2 -36z m75 36 c0 -3 -4 -8 -10
-11 -5 -3 -10 -1 -10 4 0 6 5 11 10 11 6 0 10 -2 10 -4z m-132 -37 c-6 -16
-13 -28 -15 -25 -8 8 6 56 17 56 5 0 5 -13 -2 -31z m1022 21 c0 -5 -4 -10 -9
-10 -6 0 -13 5 -16 10 -3 6 1 10 9 10 9 0 16 -4 16 -10z m-1131 -57 c-7 -21
-14 -32 -16 -26 -3 7 1 30 8 50 7 21 14 32 16 26 3 -7 -1 -30 -8 -50z m46 1
l-15 -39 6 40 c6 44 16 65 21 49 2 -6 -4 -28 -12 -50z m-88 19 c-6 -35 -26
-83 -26 -64 -1 17 21 91 26 91 2 0 2 -12 0 -27z m-53 -42 c-8 -29 -18 -51 -20
-48 -3 3 2 28 12 56 22 67 29 60 8 -8z m226 -65 c0 -3 -4 -8 -10 -11 -5 -3
-10 -1 -10 4 0 6 5 11 10 11 6 0 10 -2 10 -4z m2392 -19 c15 -23 8 -67 -13
-88 -19 -19 -28 -20 -92 -14 -81 8 -92 12 -126 49 -23 25 -24 26 -6 46 15 17
26 19 75 13 40 -4 60 -2 65 7 9 15 86 5 97 -13z m-3792 -9 c0 -19 -2 -20 -10
-8 -13 19 -13 30 0 30 6 0 10 -10 10 -22z m1276 -26 c-11 -10 -15 4 -8 28 l7
25 3 -23 c2 -13 1 -26 -2 -30z m63 41 c0 -5 -4 -17 -9 -28 -8 -18 -9 -17 -9 8
-1 15 4 27 9 27 6 0 10 -3 9 -7z m-109 -34 c-11 -36 -20 -49 -20 -28 0 25 12
59 20 59 5 0 5 -14 0 -31z m-54 -30 c-9 -27 -14 -36 -15 -22 -1 24 17 78 24
71 3 -2 -1 -24 -9 -49z m-39 6 c-6 -19 -12 -33 -15 -31 -7 7 9 66 18 66 4 0 3
-16 -3 -35z m3082 1 c8 -9 7 -22 -4 -44 -18 -35 -24 -38 -98 -47 -80 -10 -156
27 -157 76 0 20 44 29 115 22 38 -4 54 -1 63 10 10 12 19 13 42 5 16 -5 34
-15 39 -22z m-4313 -64 c5 -25 3 -32 -9 -32 -19 0 -32 18 -41 52 -4 17 -2 28
7 31 18 7 36 -14 43 -51z m964 13 c-7 -20 -14 -34 -17 -31 -3 2 1 20 8 40 17
46 25 38 9 -9z m3775 11 c22 -16 26 -76 6 -100 -23 -28 -83 -20 -116 14 -15
16 -31 27 -36 25 -15 -10 -39 8 -39 27 0 17 5 20 30 15 17 -4 30 -2 30 3 0 10
52 28 86 29 11 1 29 -5 39 -13z m-3354 -77 l-9 -34 -1 31 c-1 17 2 34 6 37 12
13 14 -1 4 -34z m-55 -15 c-4 -20 -10 -34 -13 -30 -3 3 -2 21 1 42 4 20 10 34
13 30 3 -3 2 -21 -1 -42z m-96 -13 c-6 -23 -13 -41 -16 -41 -7 0 5 70 13 83
12 19 14 -4 3 -42z m55 32 c-3 -10 -9 -30 -12 -45 -3 -15 -9 -26 -13 -23 -11
7 10 85 22 85 6 0 7 -8 3 -17z m-102 -46 c-3 -20 -9 -37 -14 -37 -5 0 -7 6 -5
13 3 6 7 25 11 41 9 40 16 27 8 -17z m-264 -37 c-6 -25 -15 -49 -21 -55 -11
-11 -3 40 14 84 14 37 18 20 7 -29z m432 -51 c-9 -23 -10 -23 -10 -2 -1 12 2
30 6 40 6 15 8 15 11 2 1 -8 -2 -26 -7 -40z m-56 -14 c-7 -31 -16 -59 -20 -63
-4 -4 -5 4 -2 18 3 14 9 42 12 63 4 20 11 37 15 37 5 0 2 -25 -5 -55z m-97
-17 c-5 -32 -14 -58 -18 -58 -5 0 -5 15 0 33 4 17 11 45 15 61 11 50 13 23 3
-36z m47 15 c-4 -27 -11 -55 -17 -63 -7 -11 -8 -9 -4 10 2 14 8 42 11 63 10
54 19 46 10 -10z m155 10 c-11 -17 -11 -17 -6 0 3 10 6 24 7 30 0 9 2 9 5 0 3
-7 0 -20 -6 -30z m1899 1 c43 -38 92 -118 115 -185 17 -49 11 -145 -8 -130 -7
6 -34 4 -71 -5 -125 -29 -179 -10 -224 82 -22 43 -23 55 -17 142 4 53 11 101
17 108 6 7 32 15 57 17 26 2 57 4 69 5 14 1 39 -12 62 -34z m-2145 -36 c-4
-24 -11 -50 -16 -58 -7 -12 -8 -10 -4 5 2 11 7 37 11 58 3 20 8 37 11 37 2 0
1 -19 -2 -42z m-257 -10 c-4 -13 -9 -42 -13 -65 -4 -24 -11 -43 -16 -43 -5 0
-7 12 -5 28 13 76 20 102 29 102 6 0 8 -10 5 -22z m440 -10 c-3 -8 -6 -5 -6 6
-1 11 2 17 5 13 3 -3 4 -12 1 -19z m-301 -193 c-12 -176 -20 -198 -99 -274
-54 -51 -65 -40 -66 68 -1 87 0 91 20 91 17 0 20 5 17 23 -2 13 5 31 19 46 20
21 23 22 23 6 0 -10 3 -15 8 -11 4 4 7 22 8 39 1 93 4 105 27 112 12 4 25 7
30 6 4 -1 7 6 7 14 0 9 -6 12 -17 8 -13 -5 -15 -2 -10 11 4 10 7 23 8 29 0 7
4 3 9 -8 8 -18 9 -18 10 5 0 19 3 21 9 10 4 -8 3 -87 -3 -175z m139 115 c-4
-17 -9 -29 -12 -26 -3 2 -2 19 2 36 4 17 9 29 12 26 3 -2 2 -19 -2 -36z m49
15 c-4 -8 -8 -15 -10 -15 -2 0 -4 7 -4 15 0 8 4 15 10 15 5 0 7 -7 4 -15z
m-97 -37 c-3 -7 -5 -2 -5 12 0 14 2 19 5 13 2 -7 2 -19 0 -25z m-266 -105
c-17 -138 -20 -145 -15 -36 4 97 11 139 21 129 3 -2 0 -44 -6 -93z m6049 -83
c10 -23 10 -34 2 -41 -7 -5 -10 -6 -7 -3 2 4 -2 16 -10 28 -16 22 -21 61 -6
52 4 -3 14 -19 21 -36z m-3441 -49 c28 -65 27 -202 -1 -185 -19 12 -32 62 -37
147 -7 102 5 114 38 38z m-2239 -27 c-12 -30 -6 -85 12 -114 9 -13 4 -40 -20
-116 -52 -163 -84 -295 -80 -325 3 -16 1 -29 -4 -29 -4 0 -8 -6 -8 -14 0 -17
33 -31 38 -17 2 6 11 11 19 11 10 0 13 -6 9 -16 -5 -12 -1 -14 17 -8 12 3 19
3 15 -1 -5 -5 1 -15 12 -22 15 -10 18 -21 14 -39 -5 -19 -3 -23 10 -18 11 4
16 0 16 -14 0 -28 23 -69 37 -65 18 6 26 -16 9 -23 -19 -7 -21 -24 -3 -24 9 0
14 -16 16 -50 2 -44 0 -50 -18 -50 -13 0 -18 -5 -15 -13 5 -14 31 -16 51 -4 6
4 16 1 22 -7 9 -11 7 -15 -9 -19 -11 -3 -23 -1 -26 4 -7 13 -24 1 -24 -17 0
-8 10 -14 23 -14 33 0 39 -10 22 -36 -18 -28 -10 -81 14 -87 9 -3 3 -5 -12 -6
-17 -1 -26 3 -22 9 11 18 -9 10 -34 -14 -21 -18 -34 -22 -63 -19 -22 3 -38 11
-38 18 0 17 -49 23 -105 15 -34 -5 -45 -4 -45 6 0 10 -7 11 -29 3 -26 -9 -33
-22 -61 -104 -36 -102 -63 -142 -96 -137 -11 2 -27 -4 -34 -13 -28 -34 -26
-10 10 93 36 104 61 202 115 462 70 335 150 597 247 808 21 48 35 52 18 6z
m2306 -433 c10 -31 24 -62 31 -69 7 -7 13 -24 13 -38 0 -13 4 -24 9 -24 5 0
14 -20 20 -45 10 -39 9 -51 -9 -89 -11 -25 -26 -43 -34 -42 -20 3 -46 26 -46
42 0 8 -4 14 -10 14 -5 0 -12 11 -16 25 -3 14 -11 29 -18 33 -14 9 -48 57 -69
99 -21 39 -11 72 28 97 15 10 31 30 37 46 8 25 12 27 27 18 10 -6 26 -36 37
-67z m3751 -438 c-3 -10 -5 -2 -5 17 0 19 2 27 5 18 2 -10 2 -26 0 -35z m0
-60 c-3 -10 -5 -4 -5 12 0 17 2 24 5 18 2 -7 2 -21 0 -30z m-5909 -264 c-3 -8
-7 -3 -11 10 -4 17 -3 21 5 13 5 -5 8 -16 6 -23z m977 1 c4 -6 11 -8 16 -5 14
9 11 -11 -15 -133 -37 -166 -90 -317 -121 -342 -15 -12 -18 -12 -27 3 -5 10
-13 15 -18 12 -9 -5 -3 20 58 251 21 82 47 167 57 187 17 36 38 47 50 27z
m5012 -182 c-3 -8 -6 -5 -6 6 -1 11 2 17 5 13 3 -3 4 -12 1 -19z m43 -239 c10
-57 12 -134 3 -112 -3 8 -14 11 -29 7 -20 -5 -24 -2 -24 15 0 11 9 26 20 33
26 17 26 38 -2 38 -20 0 -21 1 -3 20 14 16 16 29 11 67 -3 26 -12 51 -20 55
-8 5 -12 18 -9 35 10 60 16 55 30 -22 7 -44 18 -105 23 -136z m20 -181 c0 -13
3 -34 7 -47 5 -21 3 -23 -15 -19 -13 4 -23 0 -26 -9 -9 -22 -26 -5 -26 25 0
34 14 57 29 48 6 -4 11 0 11 8 0 9 5 16 10 16 6 0 10 -10 10 -22z m20 -108 c0
-5 -5 -10 -11 -10 -5 0 -7 5 -4 10 3 6 8 10 11 10 2 0 4 -4 4 -10z m0 -64 c0
-14 5 -28 10 -31 8 -5 8 -11 1 -19 -13 -16 -18 -49 -27 -208 -6 -117 -14 -149
-27 -115 -4 7 -6 6 -6 -5 -1 -10 -8 -15 -18 -14 -21 4 -33 -11 -26 -31 6 -15
54 -18 69 -3 22 22 35 -19 39 -122 3 -91 1 -105 -17 -124 -17 -19 -18 -27 -8
-64 9 -34 14 -39 26 -30 11 10 14 8 14 -12 0 -31 -9 -41 -26 -27 -11 9 -16 6
-23 -12 -11 -29 -4 -44 14 -29 9 7 16 6 24 -3 6 -8 8 -16 6 -19 -3 -3 -7 -14
-9 -24 -5 -22 -42 -118 -57 -146 -10 -19 -11 -19 -24 -1 -15 18 -20 99 -9 127
3 9 13 16 22 16 13 0 13 3 -2 19 -25 28 -33 99 -12 107 9 4 16 17 15 33 0 14
-3 20 -6 14 -11 -29 -23 -10 -23 38 0 42 -3 52 -20 56 -11 3 -20 12 -20 20 0
10 7 14 18 11 21 -6 48 27 32 37 -6 3 -10 15 -10 26 0 12 -5 19 -12 17 -7 -3
-13 -14 -13 -26 0 -12 -4 -23 -9 -24 -5 -2 -11 31 -13 72 -2 41 -8 77 -14 81
-5 3 -10 14 -9 25 0 10 0 40 0 66 0 27 4 67 11 90 6 24 11 66 10 95 -1 33 4
56 13 66 8 8 13 17 10 20 -7 7 11 40 32 61 8 9 29 16 45 16 24 0 29 -4 29 -24z
m-143 -448 c-3 -8 -6 -5 -6 6 -1 11 2 17 5 13 3 -3 4 -12 1 -19z m40 -245 c-3
-10 -5 -2 -5 17 0 19 2 27 5 18 2 -10 2 -26 0 -35z"/>
<path d="M8360 11395 c0 -8 5 -15 10 -15 6 0 10 7 10 15 0 8 -4 15 -10 15 -5
0 -10 -7 -10 -15z"/>
<path d="M8335 11310 c3 -5 10 -10 16 -10 5 0 9 5 9 10 0 6 -7 10 -16 10 -8 0
-12 -4 -9 -10z"/>
<path d="M6850 10989 c0 -5 5 -7 10 -4 6 3 10 8 10 11 0 2 -4 4 -10 4 -5 0
-10 -5 -10 -11z"/>
<path d="M8220 10946 c0 -9 5 -16 10 -16 6 0 10 4 10 9 0 6 -4 13 -10 16 -5 3
-10 -1 -10 -9z"/>
<path d="M7944 10659 c-3 -6 -1 -16 5 -22 8 -8 11 -5 11 11 0 24 -5 28 -16 11z"/>
<path d="M9256 11323 c-3 -3 0 -15 6 -27 6 -11 10 -22 9 -24 -1 -1 3 -27 9
-58 14 -69 6 -136 -25 -200 -14 -27 -25 -45 -25 -41 0 4 -15 -6 -32 -23 -18
-17 -59 -40 -91 -52 -68 -25 -75 -51 -15 -56 48 -4 106 26 152 80 57 67 93
213 79 328 -4 37 -11 49 -33 62 -16 9 -31 14 -34 11z"/>
<path d="M7480 10166 c0 -2 7 -7 16 -10 8 -3 12 -2 9 4 -6 10 -25 14 -25 6z"/>
<path d="M7425 10131 c-3 -5 -1 -12 5 -16 5 -3 10 1 10 9 0 18 -6 21 -15 7z"/>
<path d="M8888 10019 c11 -28 26 -29 30 -1 3 17 -2 22 -17 22 -16 0 -19 -4
-13 -21z"/>
<path d="M8895 9870 c-3 -5 -1 -10 4 -10 6 0 11 5 11 10 0 6 -2 10 -4 10 -3 0
-8 -4 -11 -10z"/>
<path d="M8895 9830 c-4 -6 3 -10 14 -10 25 0 27 6 6 13 -8 4 -17 2 -20 -3z"/>
<path d="M8856 9724 c-11 -7 -17 -16 -15 -19 3 -3 14 2 25 9 10 8 17 17 14 19
-3 3 -14 -1 -24 -9z"/>
<path d="M9834 8824 c-36 -81 -44 -104 -38 -104 9 0 76 151 70 157 -3 4 -18
-20 -32 -53z"/>
<path d="M9716 8533 c-21 -60 -16 -64 10 -7 12 25 18 47 13 49 -4 3 -14 -16
-23 -42z"/>
<path d="M9048 8133 c7 -3 16 -2 19 1 4 3 -2 6 -13 5 -11 0 -14 -3 -6 -6z"/>
<path d="M8912 8098 c-7 -7 -33 -13 -59 -14 -65 -4 -113 -13 -113 -23 0 -4 9
-17 20 -29 11 -12 20 -28 20 -37 0 -17 13 -19 38 -5 12 7 32 7 67 -2 38 -10
54 -21 70 -45 11 -18 26 -32 33 -33 7 0 11 -4 8 -9 -4 -5 5 -23 19 -40 14 -16
33 -51 42 -76 8 -26 21 -49 28 -51 9 -4 15 -39 20 -107 l7 -101 20 27 c11 15
27 27 37 27 9 0 21 4 27 8 5 5 35 15 67 22 31 7 61 18 66 24 18 22 83 157 78
162 -3 3 -15 -12 -28 -33 -22 -36 -37 -53 -50 -53 -3 0 -43 48 -90 108 -86
111 -139 166 -223 233 -40 33 -54 39 -80 34 -21 -3 -25 -2 -12 3 11 5 15 11 9
15 -5 3 -15 1 -21 -5z"/>
<path d="M10674 7945 c-12 -8 -29 -30 -38 -49 -12 -25 -30 -41 -60 -54 -48
-22 -84 -65 -110 -131 -10 -25 -35 -74 -55 -110 -46 -78 -102 -197 -143 -301
-16 -41 -36 -90 -44 -107 -20 -45 -44 -113 -44 -127 0 -10 31 50 119 233 18
35 61 108 96 163 36 54 76 120 89 147 14 26 46 70 73 97 26 27 64 80 83 119
25 49 46 77 73 94 26 18 34 27 25 33 -19 12 -41 10 -64 -7z"/>
<path d="M11326 7711 c-6 -9 102 -47 110 -38 3 3 -8 8 -25 12 -16 3 -35 13
-42 21 -13 16 -35 19 -43 5z"/>
<path d="M11312 7668 c-6 -6 -12 -19 -12 -27 0 -13 2 -13 16 1 9 9 15 21 13
27 -3 9 -8 8 -17 -1z"/>
<path d="M11465 7660 c3 -5 10 -10 16 -10 5 0 9 5 9 10 0 6 -7 10 -16 10 -8 0
-12 -4 -9 -10z"/>
<path d="M11524 7635 c15 -8 39 -15 51 -15 13 0 25 -4 27 -8 5 -14 120 -73
116 -60 -5 16 -74 54 -143 79 -60 23 -92 25 -51 4z"/>
<path d="M11740 7536 c0 -2 7 -6 15 -10 8 -3 15 -1 15 4 0 6 -7 10 -15 10 -8
0 -15 -2 -15 -4z"/>
<path d="M11373 7353 c-7 -2 -13 -15 -13 -27 0 -17 9 -24 43 -33 26 -7 46 -8
52 -2 5 6 4 9 -4 9 -10 0 -11 3 -2 14 9 11 4 17 -23 30 -19 9 -36 16 -38 15
-1 0 -9 -3 -15 -6z"/>
<path d="M11990 7323 c0 -12 92 -53 103 -46 11 6 -44 40 -78 49 -14 3 -25 2
-25 -3z"/>
<path d="M11335 7224 c3 -60 8 -76 30 -99 l25 -28 20 21 c21 23 17 29 -28 41
-24 7 -28 15 -39 72 l-12 64 4 -71z"/>
<path d="M11945 7231 c-11 -4 -53 -23 -93 -43 -61 -31 -89 -38 -163 -44 -49
-3 -89 -11 -89 -16 0 -5 -8 -4 -19 1 -14 8 -24 6 -41 -9 -17 -15 -26 -17 -36
-9 -20 16 -81 -7 -87 -33 -8 -30 -2 -36 41 -43 20 -4 59 -11 86 -17 35 -8 50
-8 55 1 4 6 45 14 92 17 46 3 100 7 119 10 59 10 12 22 -73 20 -43 -1 -80 1
-83 6 -3 4 2 8 10 8 9 0 16 4 16 9 0 5 17 12 38 16 33 6 89 31 102 46 3 3 40
21 82 40 43 18 78 37 78 42 0 8 -7 8 -35 -2z"/>
<path d="M11108 7081 c-47 -33 -57 -54 -22 -45 22 6 25 4 22 -12 -2 -13 -12
-19 -33 -20 -16 -1 -31 -6 -33 -13 -2 -6 -10 -11 -19 -11 -8 0 -47 -35 -86
-77 -40 -43 -93 -99 -119 -125 -27 -26 -48 -52 -48 -58 0 -7 -19 -35 -43 -63
-24 -29 -54 -73 -67 -99 -13 -27 -27 -48 -32 -48 -5 0 -19 -10 -32 -23 -12
-12 -41 -37 -64 -56 -23 -18 -42 -37 -42 -42 0 -5 -25 -35 -55 -66 -30 -32
-55 -63 -55 -69 0 -6 -9 -19 -20 -29 -11 -10 -20 -24 -20 -30 0 -7 -20 -22
-44 -34 -25 -11 -58 -33 -74 -48 -16 -16 -38 -33 -48 -40 -31 -19 -1 -31 59
-22 109 14 136 27 201 92 78 80 126 137 126 152 0 6 11 18 25 25 14 8 28 23
31 34 3 12 28 36 55 55 50 34 129 116 129 133 0 16 61 101 108 150 24 25 42
50 39 55 -9 14 15 38 71 72 28 18 52 39 52 48 0 8 11 29 25 47 14 18 25 43 25
55 0 26 17 62 37 76 12 9 12 15 1 36 l-13 25 -37 -25z"/>
<path d="M10300 6984 c-36 -31 -89 -79 -119 -107 l-53 -52 6 58 c12 109 -17
41 -64 -153 -5 -19 -11 -60 -14 -90 l-6 -55 31 78 c29 73 37 83 123 156 86 75
122 110 140 140 7 11 27 82 22 81 0 0 -30 -26 -66 -56z"/>
<path d="M11330 6908 c0 -57 -1 -159 -2 -226 -1 -95 2 -126 12 -132 10 -6 17
1 27 28 18 52 17 111 -2 118 -9 4 -15 11 -14 18 1 6 -1 19 -6 29 -4 9 -3 30 3
45 5 15 9 65 7 112 -4 112 -3 110 -15 110 -6 0 -10 -41 -10 -102z"/>
<path d="M9036 6937 c-9 -56 -2 -71 15 -34 8 17 8 34 2 54 -10 27 -10 26 -17
-20z"/>
<path d="M11378 6943 c7 -3 16 -2 19 1 4 3 -2 6 -13 5 -11 0 -14 -3 -6 -6z"/>
<path d="M10245 6465 c-52 -17 -78 -32 -102 -61 -18 -20 -33 -43 -33 -49 0 -7
-6 -18 -13 -24 -11 -8 -19 -5 -37 14 -13 14 -29 25 -36 25 -13 0 -27 -59 -39
-160 -3 -30 -15 -93 -26 -139 -11 -46 -17 -86 -15 -89 3 -2 17 9 31 27 15 17
65 61 111 98 47 37 93 81 104 98 33 54 136 165 152 165 5 0 8 8 8 18 0 22 22
43 69 67 78 40 -61 48 -174 10z m-5 -118 c0 -20 -28 -41 -78 -61 -41 -16 -62
-15 -62 3 0 5 21 23 48 40 49 32 92 40 92 18z m-180 -76 c0 -12 -29 -35 -36
-28 -11 10 5 37 21 37 8 0 15 -4 15 -9z m127 -13 c-2 -7 -10 -12 -16 -10 -6 1
-11 -2 -11 -8 0 -5 -8 -10 -17 -10 -15 1 -14 4 6 20 26 23 45 26 38 8z"/>
<path d="M10757 6079 c-54 -4 -142 -19 -195 -33 -157 -40 -270 -58 -321 -51
-34 4 -62 0 -106 -15 -33 -12 -76 -26 -95 -32 l-34 -10 29 -16 c42 -21 218
-43 295 -36 101 9 211 33 260 56 32 16 63 21 107 21 54 -2 66 2 99 28 20 16
42 29 48 29 6 1 24 11 40 24 28 23 28 24 8 35 -11 6 -24 10 -29 10 -4 -1 -52
-5 -106 -10z"/>
<path d="M11382 6071 c4 -13 18 -16 19 -4 0 4 -5 9 -11 12 -7 2 -11 -2 -8 -8z"/>
<path d="M9917 5912 c-9 -21 -18 -54 -22 -73 -6 -31 -3 -36 19 -47 14 -6 26
-18 26 -25 0 -10 13 -14 40 -14 22 0 40 4 40 8 0 5 -14 31 -31 59 -17 28 -33
68 -36 90 -3 22 -9 40 -13 40 -4 0 -15 -17 -23 -38z"/>
<path d="M10840 5806 l-35 -10 33 -4 c35 -4 46 1 41 16 -2 5 -19 4 -39 -2z"/>
<path d="M10650 5730 c0 -5 11 -10 25 -10 18 0 25 -5 25 -20 0 -16 7 -20 33
-20 33 1 67 19 67 37 0 6 -21 13 -46 17 -67 9 -104 7 -104 -4z"/>
<path d="M10977 5510 c-24 -29 -21 -42 10 -38 31 4 38 17 21 41 -12 16 -14 16
-31 -3z"/>
<path d="M9756 5416 c4 -16 1 -25 -10 -29 -9 -4 -13 -13 -10 -21 4 -11 -4 -17
-27 -23 -18 -5 -34 -14 -36 -20 -5 -13 76 7 94 24 7 6 18 13 25 15 8 3 5 15
-11 41 -26 43 -34 47 -25 13z"/>
<path d="M10488 5413 c7 -3 16 -2 19 1 4 3 -2 6 -13 5 -11 0 -14 -3 -6 -6z"/>
<path d="M11540 5374 c0 -11 5 -14 16 -10 9 3 22 6 30 6 8 0 14 5 14 10 0 6
-13 10 -30 10 -21 0 -30 -5 -30 -16z"/>
<path d="M9250 5151 c0 -10 7 -24 15 -31 8 -7 15 -18 15 -25 0 -24 24 -33 41
-15 15 16 14 20 -22 54 -44 41 -49 43 -49 17z"/>
<path d="M10160 4625 c0 -9 12 -18 29 -21 17 -4 32 -12 35 -20 4 -9 22 -14 53
-14 26 0 65 -4 86 -9 42 -10 52 4 13 19 -13 5 -27 14 -31 20 -5 7 -29 10 -66
8 -37 -2 -62 1 -67 8 -4 6 -17 14 -29 18 -17 6 -23 3 -23 -9z"/>
<path d="M10088 4012 c-69 -3 -86 -15 -45 -32 75 -30 174 -49 292 -55 l130 -7
80 -53 c83 -55 176 -105 195 -105 11 0 -19 41 -88 120 -36 42 -98 75 -170 90
-92 20 -328 45 -394 42z"/>
<path d="M9816 3903 c-3 -21 -6 -49 -6 -63 0 -23 3 -22 39 20 l40 45 -22 17
c-33 26 -44 22 -51 -19z"/>
<path d="M10020 3611 c0 -5 11 -12 25 -15 28 -7 240 -36 264 -36 35 0 -4 12
-100 30 -139 27 -189 33 -189 21z"/>
<path d="M10360 3150 c0 -5 5 -10 11 -10 5 0 7 5 4 10 -3 6 -8 10 -11 10 -2 0
-4 -4 -4 -10z"/>
<path d="M8720 9454 c0 -8 5 -12 10 -9 6 3 10 10 10 16 0 5 -4 9 -10 9 -5 0
-10 -7 -10 -16z"/>
<path d="M8633 9373 c-10 -4 -10 -8 0 -18 16 -16 78 -6 85 13 4 12 -59 16 -85
5z"/>
<path d="M8775 9313 c-36 -9 -41 -23 -7 -23 22 0 32 5 32 15 0 8 -1 14 -2 14
-2 -1 -12 -3 -23 -6z"/>
<path d="M8594 9195 c-15 -11 -16 -14 -3 -15 8 0 24 7 35 15 15 11 16 14 3 15
-8 0 -24 -7 -35 -15z"/>
<path d="M6587 8388 c-33 -37 -105 -127 -140 -178 -17 -25 34 31 97 105 33 39
69 80 80 93 36 41 4 23 -37 -20z"/>
<path d="M6705 8380 c-3 -5 -1 -10 4 -10 6 0 11 5 11 10 0 6 -2 10 -4 10 -3 0
-8 -4 -11 -10z"/>
<path d="M6665 8327 c-47 -56 -77 -98 -73 -102 6 -7 88 93 88 106 0 12 -3 11
-15 -4z"/>
<path d="M6585 8299 c-11 -17 1 -21 15 -4 8 9 8 15 2 15 -6 0 -14 -5 -17 -11z"/>
<path d="M6836 8218 c-9 -12 -16 -32 -15 -43 0 -15 3 -12 11 10 6 17 15 36 21
43 5 6 7 12 4 12 -3 0 -13 -10 -21 -22z"/>
<path d="M6797 8184 c-4 -4 -7 -14 -7 -23 0 -11 3 -12 11 -4 6 6 10 16 7 23
-2 6 -7 8 -11 4z"/>
<path d="M6457 8094 c-10 -13 -13 -24 -8 -24 10 0 36 39 29 45 -2 2 -11 -8
-21 -21z"/>
<path d="M6349 8063 c-13 -16 -12 -17 4 -4 9 7 17 15 17 17 0 8 -8 3 -21 -13z"/>
<path d="M6660 8056 c0 -9 -4 -15 -8 -12 -4 2 -6 -12 -3 -32 l5 -37 8 44 c4
25 5 47 3 50 -3 2 -5 -3 -5 -13z"/>
<path d="M6418 8022 c-8 -15 -18 -40 -21 -57 -4 -21 2 -14 19 23 27 56 29 80
2 34z"/>
<path d="M6662 7865 c0 -16 2 -22 5 -12 2 9 2 23 0 30 -3 6 -5 -1 -5 -18z"/>
<path d="M6373 7845 c0 -22 2 -30 4 -17 2 12 2 30 0 40 -3 9 -5 -1 -4 -23z"/>
<path d="M6366 7754 c-9 -25 -7 -242 3 -248 5 -3 8 54 7 129 0 74 -2 135 -2
135 -1 0 -5 -7 -8 -16z"/>
<path d="M6023 7918 c-6 -7 -16 -24 -23 -38 -10 -22 -9 -22 14 5 23 27 32 45
22 45 -2 0 -8 -6 -13 -12z"/>
<path d="M6031 7797 c-28 -59 -51 -116 -50 -125 0 -13 2 -12 9 4 5 12 13 25
19 28 6 4 18 31 27 61 8 30 20 57 25 60 5 4 9 15 9 25 0 10 5 20 12 22 6 2 9
11 6 19 -3 8 -27 -32 -57 -94z"/>
<path d="M5857 7664 c-10 -19 -13 -33 -8 -29 13 8 41 65 32 65 -4 0 -15 -16
-24 -36z"/>
<path d="M5675 7617 c-12 -9 -14 -16 -7 -21 6 -3 16 3 22 14 13 24 10 25 -15
7z"/>
<path d="M5542 7461 c-74 -73 -92 -95 -91 -118 0 -27 1 -27 11 -5 6 12 15 22
19 22 5 0 22 19 39 42 16 22 30 38 30 34 0 -10 -33 -69 -42 -76 -3 -3 -10 -19
-13 -35 -7 -29 -7 -29 8 -10 9 11 17 25 17 31 0 6 24 48 54 92 48 72 70 112
63 112 -1 0 -44 -40 -95 -89z"/>
<path d="M5431 7314 c0 -11 3 -14 6 -6 3 7 2 16 -1 19 -3 4 -6 -2 -5 -13z"/>
<path d="M5470 7275 c-6 -8 -10 -19 -8 -24 1 -6 8 1 15 14 13 28 11 31 -7 10z"/>
<path d="M5417 7173 c-7 -36 -2 -41 13 -13 8 14 8 26 2 32 -6 6 -11 -1 -15
-19z"/>
<path d="M5365 7049 c-15 -33 -24 -63 -21 -66 3 -3 10 6 15 20 6 15 20 44 31
67 11 22 16 40 12 40 -5 0 -22 -27 -37 -61z"/>
<path d="M5587 6993 c-7 -12 11 -53 23 -53 13 0 13 17 0 25 -5 3 -7 12 -3 20
5 15 -12 21 -20 8z"/>
<path d="M6885 6753 c-3 -21 -8 -47 -10 -58 -2 -11 1 -29 5 -40 10 -23 10 -21
16 73 4 69 -2 82 -11 25z"/>
<path d="M7012 6624 c4 -21 18 -27 38 -14 17 10 14 15 -18 25 -19 6 -23 4 -20
-11z"/>
<path d="M6951 6401 c-9 -6 -11 -21 -6 -54 8 -50 19 -53 61 -15 20 18 21 18
47 -3 l27 -20 0 23 c0 28 -10 43 -30 44 -8 1 -28 5 -43 9 -24 6 -29 4 -34 -15
-4 -16 -8 -18 -14 -9 -4 7 -3 19 3 26 13 17 7 25 -11 14z"/>
<path d="M6910 6095 c0 -44 4 -57 18 -62 9 -4 22 -14 29 -22 11 -14 12 -14 13
-1 0 8 -6 27 -14 41 -7 14 -16 42 -20 62 -10 56 -26 44 -26 -18z"/>
<path d="M6980 6003 c0 -27 12 -39 43 -45 22 -4 27 -2 27 14 0 25 -23 48 -49
48 -13 0 -21 -6 -21 -17z"/>
<path d="M4871 7008 c-1 -17 10 -40 28 -60 16 -18 50 -68 75 -110 44 -71 66
-100 66 -82 0 13 -103 174 -127 198 -13 14 -28 37 -33 53 l-8 28 -1 -27z"/>
<path d="M4797 6113 c-10 -9 -9 -23 2 -23 5 0 11 7 15 15 5 15 -5 20 -17 8z"/>
<path d="M4911 5901 c-7 -5 -11 -14 -7 -20 5 -7 12 -7 26 1 10 7 16 16 14 20
-7 10 -15 10 -33 -1z"/>
<path d="M4921 5844 c0 -11 3 -14 6 -6 3 7 2 16 -1 19 -3 4 -6 -2 -5 -13z"/>
<path d="M4885 5842 c-17 -12 -17 -52 0 -52 10 0 15 10 15 30 0 33 0 33 -15
22z"/>
<path d="M4828 5823 c7 -3 16 -2 19 1 4 3 -2 6 -13 5 -11 0 -14 -3 -6 -6z"/>
<path d="M4850 5780 c0 -5 7 -10 16 -10 8 0 12 5 9 10 -3 6 -10 10 -16 10 -5
0 -9 -4 -9 -10z"/>
<path d="M4891 5764 c-12 -14 -11 -16 4 -12 10 1 20 9 23 16 5 17 -10 15 -27
-4z"/>
<path d="M4808 5753 c7 -3 16 -2 19 1 4 3 -2 6 -13 5 -11 0 -14 -3 -6 -6z"/>
<path d="M4880 5719 c0 -5 5 -7 10 -4 6 3 10 8 10 11 0 2 -4 4 -10 4 -5 0 -10
-5 -10 -11z"/>
<path d="M4801 5664 c0 -11 3 -14 6 -6 3 7 2 16 -1 19 -3 4 -6 -2 -5 -13z"/>
<path d="M4876 5665 c-9 -26 -7 -32 5 -12 6 10 9 21 6 23 -2 3 -7 -2 -11 -11z"/>
<path d="M4865 5620 c-3 -5 -1 -10 4 -10 6 0 11 5 11 10 0 6 -2 10 -4 10 -3 0
-8 -4 -11 -10z"/>
<path d="M4865 5590 c-3 -5 -1 -10 4 -10 6 0 11 5 11 10 0 6 -2 10 -4 10 -3 0
-8 -4 -11 -10z"/>
<path d="M6447 5114 c-4 -4 -7 -14 -7 -23 0 -11 3 -12 11 -4 6 6 10 16 7 23
-2 6 -7 8 -11 4z"/>
<path d="M6590 5091 c0 -17 18 -21 24 -6 3 9 0 15 -9 15 -8 0 -15 -4 -15 -9z"/>
<path d="M6961 5054 c0 -11 3 -14 6 -6 3 7 2 16 -1 19 -3 4 -6 -2 -5 -13z"/>
<path d="M6418 5053 c7 -3 16 -2 19 1 4 3 -2 6 -13 5 -11 0 -14 -3 -6 -6z"/>
<path d="M6350 5036 c0 -9 7 -16 16 -16 9 0 14 5 12 12 -6 18 -28 21 -28 4z"/>
<path d="M6895 5030 c3 -5 8 -10 11 -10 2 0 4 5 4 10 0 6 -5 10 -11 10 -5 0
-7 -4 -4 -10z"/>
<path d="M6376 4944 c-4 -9 -3 -21 2 -26 12 -12 23 15 12 31 -5 9 -9 8 -14 -5z"/>
<path d="M6174 4913 c-3 -10 -10 -28 -15 -41 -12 -30 -12 -32 5 -32 8 0 17 8
21 19 3 10 14 26 25 36 27 24 25 35 -5 35 -16 0 -28 -7 -31 -17z"/>
<path d="M6392 4879 c-7 -12 -11 -24 -7 -27 7 -8 25 17 25 36 0 17 -3 15 -18
-9z"/>
<path d="M6242 4873 c-18 -32 -15 -51 4 -25 8 12 14 28 11 35 -2 7 -8 3 -15
-10z"/>
<path d="M6298 4828 c-2 -14 -10 -23 -20 -22 -10 1 -14 -4 -11 -11 2 -8 -5
-18 -16 -25 -13 -6 -21 -21 -21 -35 0 -14 -2 -25 -5 -25 -9 0 -45 40 -45 49 0
15 -32 22 -46 10 -8 -6 -14 -22 -14 -34 0 -12 -7 -28 -15 -35 -17 -14 -21 -60
-5 -60 12 0 13 -50 1 -69 -13 -21 -33 -2 -27 25 5 17 2 24 -8 24 -8 0 -16 8
-18 18 -3 11 -9 2 -16 -23 -70 -237 -109 -381 -105 -387 2 -4 12 -3 21 2 24
13 137 38 207 46 33 4 67 11 76 15 10 5 37 11 60 14 24 3 76 12 114 20 67 15
96 20 230 45 33 6 83 18 110 25 28 8 73 19 100 25 96 21 108 26 119 42 13 21
1 35 -17 19 -24 -20 -39 11 -35 75 3 50 1 57 -17 60 -11 2 -25 -4 -32 -12 -10
-13 -14 -11 -34 15 -16 22 -28 29 -41 25 -10 -3 -18 -1 -18 5 0 19 -18 12 -25
-9 -3 -11 -15 -20 -25 -20 -10 0 -20 -6 -23 -12 -2 -7 -3 -5 -1 5 3 23 -25 35
-37 16 -5 -8 -7 -22 -5 -31 6 -25 -11 -32 -19 -8 -8 24 -28 26 -49 5 -20 -21
-23 -19 -35 18 -10 31 -13 32 -63 32 -29 0 -57 -3 -63 -6 -25 -16 -98 14 -118
48 -4 7 -15 13 -22 13 -20 0 -19 14 2 31 14 12 17 12 21 0 6 -17 32 42 32 73
0 21 -17 46 -31 46 -4 0 -9 -10 -11 -22z m19 -70 c-3 -8 -6 -5 -6 6 -1 11 2
17 5 13 3 -3 4 -12 1 -19z m-67 -196 c0 -25 -20 -48 -47 -55 -17 -4 -20 -1
-15 12 19 53 62 83 62 43z m639 -61 c-2 -25 -2 -25 -6 -3 -3 18 -10 23 -24 19
-20 -5 -23 1 -13 28 6 14 8 14 25 -1 11 -9 18 -29 18 -43z m-812 27 c-3 -8 -6
-5 -6 6 -1 11 2 17 5 13 3 -3 4 -12 1 -19z m-20 -30 c-3 -8 -6 -5 -6 6 -1 11
2 17 5 13 3 -3 4 -12 1 -19z m413 -78 c8 -5 12 -12 9 -15 -8 -8 -39 5 -39 16
0 11 11 11 30 -1z"/>
<path d="M6377 4763 c-13 -12 -7 -43 8 -43 9 0 15 9 15 25 0 24 -10 32 -23 18z"/>
<path d="M6060 4726 c0 -8 -3 -22 -6 -31 -4 -10 -2 -15 7 -13 20 4 38 30 32
45 -7 18 -33 17 -33 -1z"/>
<path d="M6755 4700 c3 -5 8 -10 11 -10 2 0 4 5 4 10 0 6 -5 10 -11 10 -5 0
-7 -4 -4 -10z"/>
<path d="M6800 4689 c0 -5 5 -7 10 -4 6 3 10 8 10 11 0 2 -4 4 -10 4 -5 0 -10
-5 -10 -11z"/>
<path d="M6415 4670 c-3 -5 -1 -10 4 -10 6 0 11 5 11 10 0 6 -2 10 -4 10 -3 0
-8 -4 -11 -10z"/>
<path d="M6525 4670 c-3 -5 1 -10 10 -10 9 0 13 5 10 10 -3 6 -8 10 -10 10 -2
0 -7 -4 -10 -10z"/>
<path d="M6850 4658 c0 -19 2 -20 10 -8 13 19 13 30 0 30 -5 0 -10 -10 -10
-22z"/>
<path d="M6941 4634 c0 -11 3 -14 6 -6 3 7 2 16 -1 19 -3 4 -6 -2 -5 -13z"/>
<path d="M7193 4634 c-15 -15 -17 -28 -4 -20 5 4 11 1 13 -6 3 -7 7 -2 10 10
7 27 -2 35 -19 16z"/>
<path d="M7234 4535 c-19 -14 -19 -14 2 -15 12 0 24 7 28 15 7 19 -5 19 -30 0z"/>
<path d="M4860 5490 c-13 -8 -12 -10 3 -10 9 0 17 5 17 10 0 12 -1 12 -20 0z"/>
<path d="M4907 5473 c-10 -9 -9 -43 1 -43 4 0 9 11 10 25 2 26 0 29 -11 18z"/>
<path d="M4825 5420 c-16 -11 -25 -20 -18 -20 6 0 15 5 18 10 3 6 18 10 32 10
21 0 24 -2 13 -15 -10 -12 -10 -15 4 -15 17 0 20 9 10 34 -8 21 -23 20 -59 -4z"/>
<path d="M4770 5389 c0 -5 5 -7 10 -4 6 3 10 8 10 11 0 2 -4 4 -10 4 -5 0 -10
-5 -10 -11z"/>
<path d="M4818 5383 c6 -2 18 -2 25 0 6 3 1 5 -13 5 -14 0 -19 -2 -12 -5z"/>
<path d="M4805 5360 c-3 -6 1 -7 9 -4 18 7 21 14 7 14 -6 0 -13 -4 -16 -10z"/>
<path d="M4825 5340 c-3 -5 -1 -10 4 -10 6 0 11 5 11 10 0 6 -2 10 -4 10 -3 0
-8 -4 -11 -10z"/>
<path d="M4775 4750 c3 -5 10 -10 16 -10 5 0 9 5 9 10 0 6 -7 10 -16 10 -8 0
-12 -4 -9 -10z"/>
<path d="M3983 4373 c-15 -5 -17 -23 -4 -23 5 0 11 7 15 15 3 8 4 15 3 14 -1
0 -8 -3 -14 -6z"/>
<path d="M5302 2259 c2 -7 10 -15 17 -17 8 -3 12 1 9 9 -2 7 -10 15 -17 17 -8
3 -12 -1 -9 -9z"/>
<path d="M5107 2153 c-10 -18 -19 -98 -9 -88 5 6 12 29 16 53 6 39 3 52 -7 35z"/>
<path d="M5351 2144 c0 -11 3 -14 6 -6 3 7 2 16 -1 19 -3 4 -6 -2 -5 -13z"/>
<path d="M5250 2055 c0 -8 7 -15 15 -15 9 0 12 6 9 15 -4 8 -10 15 -15 15 -5
0 -9 -7 -9 -15z"/>
<path d="M10610 1176 c0 -8 4 -17 9 -20 10 -7 23 19 14 28 -11 11 -23 6 -23
-8z"/>
<path d="M10617 1124 c-3 -6 -2 -24 2 -40 7 -25 10 -26 16 -11 8 20 -8 67 -18
51z"/>
<path d="M10229 608 c-6 -21 -5 -38 2 -38 5 0 9 9 9 20 0 16 -7 28 -11 18z"/>
<path d="M10270 541 c13 -11 28 -17 33 -14 11 6 -23 32 -43 32 -10 1 -7 -6 10
-18z"/>
<path d="M11632 420 c0 -14 2 -19 5 -12 2 6 2 18 0 25 -3 6 -5 1 -5 -13z"/>
<path d="M10657 423 c-2 -5 -7 -21 -11 -38 l-7 -30 21 33 c11 18 20 35 20 37
0 8 -18 6 -23 -2z"/>
<path d="M11588 393 c-2 -42 0 -73 17 -183 5 -34 1 -67 -14 -121 -12 -41 -21
-78 -21 -82 0 -4 19 -7 41 -7 l42 0 -8 58 c-4 31 -7 66 -6 77 1 11 2 25 3 30
0 6 -7 37 -16 70 -9 33 -17 86 -17 117 0 58 -18 93 -21 41z"/>
<path d="M10423 373 c-33 -6 -28 -23 7 -23 20 0 30 5 30 15 0 8 -3 14 -7 14
-5 -1 -18 -4 -30 -6z"/>
<path d="M11652 353 c21 -45 33 -63 41 -63 5 0 6 7 3 16 -3 9 -6 20 -6 24 0 5
-10 14 -21 21 -12 6 -20 7 -17 2z"/>
<path d="M11661 224 c0 -11 3 -14 6 -6 3 7 2 16 -1 19 -3 4 -6 -2 -5 -13z"/>
</g>
</svg>
